<svg xmlns="http://www.w3.org/2000/svg" viewBox="0 0 500 500" width="500" height="500" preserveAspectRatio="xMidYMid meet" style="width: 100%; height: 100%; transform: translate3d(0px, 0px, 0px); content-visibility: visible;"><defs><clipPath id="__lottie_element_331"><rect width="500" height="500" x="0" y="0"></rect></clipPath><clipPath id="__lottie_element_338"><path d="M0,0 L500,0 L500,500 L0,500z"></path></clipPath><clipPath id="__lottie_element_352"><path d="M0,0 L500,0 L500,500 L0,500z"></path></clipPath></defs><g clip-path="url(#__lottie_element_331)"><g clip-path="url(#__lottie_element_352)" transform="matrix(1,0,0,1,0,0)" opacity="1" style="display: block;"><g class="primary design" style="display: none;" transform="matrix(0.9999995827674866,-0.0009062672615982592,0.0009062672615982592,0.9999995827674866,-0.18330001831054688,0.0516357421875)" opacity="1"><g opacity="1" transform="matrix(1,0,0,1,208.33099365234375,250.0030059814453)"><path stroke-linecap="round" stroke-linejoin="round" fill-opacity="0" stroke="rgb(255,255,255)" stroke-opacity="1" stroke-width="31.3" d=" M144.1540069580078,-102.5770034790039 C144.1540069580078,-102.5770034790039 102.5780029296875,-144.1529998779297 102.5780029296875,-144.1529998779297 C93.39299774169922,-153.33799743652344 78.5009994506836,-153.33799743652344 69.31600189208984,-144.1529998779297 C69.31600189208984,-144.1529998779297 -151.04299926757812,76.20500183105469 -151.04299926757812,76.20500183105469 C-151.04299926757812,76.20500183105469 -151.04299926757812,151.04200744628906 -151.04299926757812,151.04200744628906 C-151.04299926757812,151.04200744628906 -76.2040023803711,151.04200744628906 -76.2040023803711,151.04200744628906 C-76.2040023803711,151.04200744628906 144.1540069580078,-69.31500244140625 144.1540069580078,-69.31500244140625 C153.33900451660156,-78.5009994506836 153.33900451660156,-93.39199829101562 144.1540069580078,-102.5770034790039z"></path></g><g opacity="1" transform="matrix(1,0,0,1,265.17401123046875,193.16000366210938)"><path stroke-linecap="round" stroke-linejoin="round" fill-opacity="0" stroke="rgb(255,255,255)" stroke-opacity="1" stroke-width="31.3" d=" M37.41899871826172,37.41899871826172 C37.41899871826172,37.41899871826172 -37.41899871826172,-37.41899871826172 -37.41899871826172,-37.41899871826172"></path></g></g><g class="primary design" style="display: none;" transform="matrix(1,0,0,1,283.85198974609375,401.0450134277344)" opacity="1"><g opacity="1" transform="matrix(1,0,0,1,0,0)"><path stroke-linecap="round" stroke-linejoin="round" fill-opacity="0" stroke="rgb(255,255,255)" stroke-opacity="1" stroke-width="31.3" d=" M-238.53330993652344,0 C-238.53330993652344,0 -236.54856872558594,0.044819045811891556 -236.54856872558594,0.044819045811891556"></path></g></g><g class="primary design" style="display: none;" transform="matrix(1,0,0,1,283.85198974609375,401.0450134277344)" opacity="1"><g opacity="1" transform="matrix(1,0,0,1,0,0)"><path stroke-linecap="round" stroke-linejoin="round" fill-opacity="0" stroke="rgb(255,255,255)" stroke-opacity="1" stroke-width="31.3" d=" M-224.78802490234375,0 C-224.78802490234375,0 158.85499572753906,0 158.85499572753906,0"></path></g></g><g class="primary design" transform="matrix(1,0,0,1,250,250)" opacity="1" style="display: none;"><g opacity="1" transform="matrix(1,0,0,1,0,0)"><path fill="rgb(255,255,255)" fill-opacity="1" d=" M192.70700073242188,135.39500427246094 C192.70700073242188,135.39500427246094 -80.09100341796875,135.39500427246094 -80.09100341796875,135.39500427246094 C-80.09100341796875,135.39500427246094 113.5530014038086,-58.24700164794922 113.5530014038086,-58.24700164794922 C128.82400512695312,-73.5199966430664 128.822998046875,-98.37000274658203 113.552001953125,-113.64099884033203 C113.552001953125,-113.64099884033203 71.9749984741211,-155.2169952392578 71.9749984741211,-155.2169952392578 C56.70199966430664,-170.48800659179688 31.85300064086914,-170.48800659179688 16.579999923706055,-155.2169952392578 C16.579999923706055,-155.2169952392578 -203.7779998779297,65.14099884033203 -203.7779998779297,65.14099884033203 C-206.71299743652344,68.07599639892578 -208.36199951171875,72.05699920654297 -208.36199951171875,76.20800018310547 C-208.36199951171875,76.20800018310547 -208.36199951171875,151.0449981689453 -208.36199951171875,151.0449981689453 C-208.36199951171875,159.68800354003906 -201.3560028076172,166.69400024414062 -192.71200561523438,166.69400024414062 C-192.71200561523438,166.69400024414062 -125.01300048828125,166.69400024414062 -125.01300048828125,166.69400024414062 C-125.01000213623047,166.69400024414062 -125.00599670410156,166.69500732421875 -125.00299835205078,166.69500732421875 C-125.00299835205078,166.69500732421875 192.70700073242188,166.69500732421875 192.70700073242188,166.69500732421875 C201.3509979248047,166.69500732421875 208.35699462890625,159.68800354003906 208.35699462890625,151.0449981689453 C208.35699462890625,142.40199279785156 201.3509979248047,135.39500427246094 192.70700073242188,135.39500427246094z M38.7130012512207,-133.08399963378906 C41.78099822998047,-136.15199279785156 46.77399826049805,-136.15199279785156 49.84199905395508,-133.08399963378906 C49.84199905395508,-133.08399963378906 91.41899871826172,-91.50800323486328 91.41899871826172,-91.50800323486328 C94.48699951171875,-88.44000244140625 94.48699951171875,-83.4469985961914 91.41899871826172,-80.37899780273438 C91.41899871826172,-80.37899780273438 52.59299850463867,-41.553001403808594 52.59299850463867,-41.553001403808594 C52.59299850463867,-41.553001403808594 -0.1120000034570694,-94.25900268554688 -0.1120000034570694,-94.25900268554688 C-0.1120000034570694,-94.25900268554688 38.7130012512207,-133.08399963378906 38.7130012512207,-133.08399963378906z M-177.06199645996094,82.69000244140625 C-177.06199645996094,82.69000244140625 -22.2450008392334,-72.1259994506836 -22.2450008392334,-72.1259994506836 C-22.2450008392334,-72.1259994506836 30.459999084472656,-19.420000076293945 30.459999084472656,-19.420000076293945 C30.459999084472656,-19.420000076293945 -124.3550033569336,135.39500427246094 -124.3550033569336,135.39500427246094 C-124.3550033569336,135.39500427246094 -177.06199645996094,135.39500427246094 -177.06199645996094,135.39500427246094 C-177.06199645996094,135.39500427246094 -177.06199645996094,82.69000244140625 -177.06199645996094,82.69000244140625z"></path></g></g><g class="primary design" style="display: block;" transform="matrix(1,0,0,1,250,250)" opacity="1"><g opacity="1" transform="matrix(1,0,0,1,0,0)"><path fill="rgb(255,255,255)" fill-opacity="1" d=" M192.70700073242188,135.39500427246094 C192.70700073242188,135.39500427246094 -80.09100341796875,135.39500427246094 -80.09100341796875,135.39500427246094 C-80.09100341796875,135.39500427246094 113.5530014038086,-58.24700164794922 113.5530014038086,-58.24700164794922 C128.82400512695312,-73.5199966430664 128.822998046875,-98.37000274658203 113.552001953125,-113.64099884033203 C113.552001953125,-113.64099884033203 71.9749984741211,-155.2169952392578 71.9749984741211,-155.2169952392578 C56.70199966430664,-170.48800659179688 31.85300064086914,-170.48800659179688 16.579999923706055,-155.2169952392578 C16.579999923706055,-155.2169952392578 -203.7779998779297,65.14099884033203 -203.7779998779297,65.14099884033203 C-206.71299743652344,68.07599639892578 -208.36199951171875,72.05699920654297 -208.36199951171875,76.20800018310547 C-208.36199951171875,76.20800018310547 -208.36199951171875,151.0449981689453 -208.36199951171875,151.0449981689453 C-208.36199951171875,159.68800354003906 -201.3560028076172,166.69400024414062 -192.71200561523438,166.69400024414062 C-192.71200561523438,166.69400024414062 -125.01300048828125,166.69400024414062 -125.01300048828125,166.69400024414062 C-125.01000213623047,166.69400024414062 -125.00599670410156,166.69500732421875 -125.00299835205078,166.69500732421875 C-125.00299835205078,166.69500732421875 192.70700073242188,166.69500732421875 192.70700073242188,166.69500732421875 C201.3509979248047,166.69500732421875 208.35699462890625,159.68800354003906 208.35699462890625,151.0449981689453 C208.35699462890625,142.40199279785156 201.3509979248047,135.39500427246094 192.70700073242188,135.39500427246094z M38.7130012512207,-133.08399963378906 C41.78099822998047,-136.15199279785156 46.77399826049805,-136.15199279785156 49.84199905395508,-133.08399963378906 C49.84199905395508,-133.08399963378906 91.41899871826172,-91.50800323486328 91.41899871826172,-91.50800323486328 C94.48699951171875,-88.44000244140625 94.48699951171875,-83.4469985961914 91.41899871826172,-80.37899780273438 C91.41899871826172,-80.37899780273438 52.59299850463867,-41.553001403808594 52.59299850463867,-41.553001403808594 C52.59299850463867,-41.553001403808594 -0.1120000034570694,-94.25900268554688 -0.1120000034570694,-94.25900268554688 C-0.1120000034570694,-94.25900268554688 38.7130012512207,-133.08399963378906 38.7130012512207,-133.08399963378906z M-177.06199645996094,82.69000244140625 C-177.06199645996094,82.69000244140625 -22.2450008392334,-72.1259994506836 -22.2450008392334,-72.1259994506836 C-22.2450008392334,-72.1259994506836 30.459999084472656,-19.420000076293945 30.459999084472656,-19.420000076293945 C30.459999084472656,-19.420000076293945 -124.3550033569336,135.39500427246094 -124.3550033569336,135.39500427246094 C-124.3550033569336,135.39500427246094 -177.06199645996094,135.39500427246094 -177.06199645996094,135.39500427246094 C-177.06199645996094,135.39500427246094 -177.06199645996094,82.69000244140625 -177.06199645996094,82.69000244140625z"></path></g></g></g><g clip-path="url(#__lottie_element_338)" transform="matrix(1,0,0,1,0,0)" opacity="0" style="display: block;"><g class="primary design" style="display: none;" transform="matrix(0.9998642206192017,-0.01647963374853134,0.01647963374853134,0.9998642206192017,-3.929046630859375,0.9985198974609375)" opacity="1"><g opacity="1" transform="matrix(1,0,0,1,265.17401123046875,193.16000366210938)"><path stroke-linecap="round" stroke-linejoin="round" fill-opacity="0" stroke="rgb(255,255,255)" stroke-opacity="1" stroke-width="31.3" d=" M87.31099700927734,-45.73400115966797 C87.31099700927734,-45.73400115966797 45.73400115966797,-87.31099700927734 45.73400115966797,-87.31099700927734 C36.54899978637695,-96.49600219726562 21.658000946044922,-96.49600219726562 12.472999572753906,-87.31099700927734 C12.472999572753906,-87.31099700927734 -207.88600158691406,133.04800415039062 -207.88600158691406,133.04800415039062 C-207.88600158691406,133.04800415039062 -207.88600158691406,207.88499450683594 -207.88600158691406,207.88499450683594 C-207.88600158691406,207.88499450683594 -133.0469970703125,207.88499450683594 -133.0469970703125,207.88499450683594 C-133.0469970703125,207.88499450683594 87.31099700927734,-12.472000122070312 87.31099700927734,-12.472000122070312 C96.49600219726562,-21.658000946044922 96.49600219726562,-36.54899978637695 87.31099700927734,-45.73400115966797z M37.41899871826172,37.41899871826172 C37.41899871826172,37.41899871826172 -37.41899871826172,-37.41899871826172 -37.41899871826172,-37.41899871826172"></path></g></g><g class="primary design" style="display: none;" transform="matrix(1,0,0,1,283.85198974609375,401.0450134277344)" opacity="1"><g opacity="1" transform="matrix(1,0,0,1,0,0)"><path stroke-linecap="round" stroke-linejoin="round" fill-opacity="0" stroke="rgb(255,255,255)" stroke-opacity="1" stroke-width="31.3" d=" M-220.98974609375,0.039510998874902725 C-220.98974609375,0.039510998874902725 158.85499572753906,0 158.85499572753906,0"></path></g></g><g class="primary design" style="display: block;" transform="matrix(1,0,0,1,250,250)" opacity="1"><g opacity="1" transform="matrix(1,0,0,1,0,0)"><path fill="rgb(255,255,255)" fill-opacity="1" d=" M192.70700073242188,135.39500427246094 C192.70700073242188,135.39500427246094 -80.09100341796875,135.39500427246094 -80.09100341796875,135.39500427246094 C-80.09100341796875,135.39500427246094 113.5530014038086,-58.24700164794922 113.5530014038086,-58.24700164794922 C128.82400512695312,-73.5199966430664 128.822998046875,-98.37000274658203 113.552001953125,-113.64099884033203 C113.552001953125,-113.64099884033203 71.9749984741211,-155.2169952392578 71.9749984741211,-155.2169952392578 C56.70199966430664,-170.48800659179688 31.85300064086914,-170.48800659179688 16.579999923706055,-155.2169952392578 C16.579999923706055,-155.2169952392578 -203.7779998779297,65.14099884033203 -203.7779998779297,65.14099884033203 C-206.71299743652344,68.07599639892578 -208.36199951171875,72.05699920654297 -208.36199951171875,76.20800018310547 C-208.36199951171875,76.20800018310547 -208.36199951171875,151.0449981689453 -208.36199951171875,151.0449981689453 C-208.36199951171875,159.68800354003906 -201.3560028076172,166.69400024414062 -192.71200561523438,166.69400024414062 C-192.71200561523438,166.69400024414062 -125.01300048828125,166.69400024414062 -125.01300048828125,166.69400024414062 C-125.01000213623047,166.69400024414062 -125.00599670410156,166.69500732421875 -125.00299835205078,166.69500732421875 C-125.00299835205078,166.69500732421875 192.70700073242188,166.69500732421875 192.70700073242188,166.69500732421875 C201.3509979248047,166.69500732421875 208.35699462890625,159.68800354003906 208.35699462890625,151.0449981689453 C208.35699462890625,142.40199279785156 201.3509979248047,135.39500427246094 192.70700073242188,135.39500427246094z M38.7130012512207,-133.08399963378906 C41.78099822998047,-136.15199279785156 46.77399826049805,-136.15199279785156 49.84199905395508,-133.08399963378906 C49.84199905395508,-133.08399963378906 91.41899871826172,-91.50800323486328 91.41899871826172,-91.50800323486328 C94.48699951171875,-88.44000244140625 94.48699951171875,-83.4469985961914 91.41899871826172,-80.37899780273438 C91.41899871826172,-80.37899780273438 52.59299850463867,-41.553001403808594 52.59299850463867,-41.553001403808594 C52.59299850463867,-41.553001403808594 -0.1120000034570694,-94.25900268554688 -0.1120000034570694,-94.25900268554688 C-0.1120000034570694,-94.25900268554688 38.7130012512207,-133.08399963378906 38.7130012512207,-133.08399963378906z M-177.06199645996094,82.69000244140625 C-177.06199645996094,82.69000244140625 -22.2450008392334,-72.1259994506836 -22.2450008392334,-72.1259994506836 C-22.2450008392334,-72.1259994506836 30.459999084472656,-19.420000076293945 30.459999084472656,-19.420000076293945 C30.459999084472656,-19.420000076293945 -124.3550033569336,135.39500427246094 -124.3550033569336,135.39500427246094 C-124.3550033569336,135.39500427246094 -177.06199645996094,135.39500427246094 -177.06199645996094,135.39500427246094 C-177.06199645996094,135.39500427246094 -177.06199645996094,82.69000244140625 -177.06199645996094,82.69000244140625z"></path></g></g></g><g class="com" style="display: none;"><g><path></path></g><g><path></path></g><g><path></path></g><g><path></path></g><g><path></path></g><g><path></path></g><g><path></path></g><g><path></path></g><g><path></path></g><g><path></path></g><g><path></path></g><g><path></path></g></g></g></svg>
