<svg xmlns="http://www.w3.org/2000/svg" viewBox="0 0 500 500" width="500" height="500" preserveAspectRatio="xMidYMid meet" style="width: 100%; height: 100%; transform: translate3d(0px, 0px, 0px); content-visibility: visible;"><defs><clipPath id="__lottie_element_47"><rect width="500" height="500" x="0" y="0"></rect></clipPath><clipPath id="__lottie_element_54"><path d="M0,0 L500,0 L500,500 L0,500z"></path></clipPath><clipPath id="__lottie_element_70"><path d="M0,0 L500,0 L500,500 L0,500z"></path></clipPath><filter id="__lottie_element_86" filterUnits="objectBoundingBox" x="0%" y="0%" width="100%" height="100%"><feComponentTransfer in="SourceGraphic"><feFuncA type="table" tableValues="1.0 0.0"></feFuncA></feComponentTransfer></filter><mask id="__lottie_element_85" mask-type="alpha"><g filter="url(#__lottie_element_86)"><rect width="500" height="500" x="0" y="0" fill="#ffffff" opacity="0"></rect><g class="primary design" style="display: none;" transform="matrix(1,0,0,1,250.0019989013672,265.7096252441406)" opacity="1"><g opacity="1" transform="matrix(1,0,0,1,0,0)"><path fill="rgb(255,0,0)" fill-opacity="1" d=" M192.70799255371094,-65.1510009765625 C192.70799255371094,-65.1510009765625 0,65.1510009765625 0,65.1510009765625 C0,65.1510009765625 -192.70799255371094,-65.1510009765625 -192.70799255371094,-65.1510009765625 C-192.70799255371094,-65.1510009765625 -192.0019989013672,370.34100341796875 -192.0019989013672,370.34100341796875 C-192.0019989013672,370.34100341796875 194.66700744628906,397.6319885253906 194.66700744628906,397.6319885253906 C194.66700744628906,397.6319885253906 192.70799255371094,-65.1510009765625 192.70799255371094,-65.1510009765625z"></path></g></g></g></mask><filter id="__lottie_element_93" filterUnits="objectBoundingBox" x="0%" y="0%" width="100%" height="100%"><feComponentTransfer in="SourceGraphic"><feFuncA type="table" tableValues="1.0 0.0"></feFuncA></feComponentTransfer></filter><mask id="__lottie_element_92" mask-type="alpha"><g filter="url(#__lottie_element_93)"><rect width="500" height="500" x="0" y="0" fill="#ffffff" opacity="0"></rect><g class="primary design" style="display: none;" transform="matrix(1,0,0,1,0,45.98701477050781)" opacity="1"><g opacity="1" transform="matrix(1,0,0,1,250.093994140625,218.2729949951172)"><path fill="rgb(253,0,0)" fill-opacity="1" d=" M138.5760040283203,162.6280059814453 C138.5760040283203,162.6280059814453 -138.5760040283203,162.6280059814453 -138.5760040283203,162.6280059814453 C-146.48800659179688,162.6280059814453 -152.906005859375,156.20899963378906 -152.906005859375,148.2969970703125 C-152.906005859375,148.2969970703125 -152.906005859375,-148.2969970703125 -152.906005859375,-148.2969970703125 C-152.906005859375,-156.20899963378906 -146.48800659179688,-162.6280059814453 -138.5760040283203,-162.6280059814453 C-138.5760040283203,-162.6280059814453 138.5760040283203,-162.6280059814453 138.5760040283203,-162.6280059814453 C146.48800659179688,-162.6280059814453 152.906005859375,-156.20899963378906 152.906005859375,-148.2969970703125 C152.906005859375,-148.2969970703125 152.906005859375,148.2969970703125 152.906005859375,148.2969970703125 C152.906005859375,156.20899963378906 146.48800659179688,162.6280059814453 138.5760040283203,162.6280059814453z"></path></g></g></g></mask><clipPath id="__lottie_element_100"><path d="M0,0 L500,0 L500,500 L0,500z"></path></clipPath><clipPath id="__lottie_element_122"><path d="M0,0 L500,0 L500,500 L0,500z"></path></clipPath><filter id="__lottie_element_138" filterUnits="objectBoundingBox" x="0%" y="0%" width="100%" height="100%"><feComponentTransfer in="SourceGraphic"><feFuncA type="table" tableValues="1.0 0.0"></feFuncA></feComponentTransfer></filter><mask id="__lottie_element_137" mask-type="alpha"><g filter="url(#__lottie_element_138)"><rect width="500" height="500" x="0" y="0" fill="#ffffff" opacity="0"></rect><g class="primary design" style="display: none;" transform="matrix(1,0,0,1,250.0019989013672,271.46246337890625)" opacity="1"><g opacity="1" transform="matrix(1,0,0,1,0,0)"><path fill="rgb(18,19,49)" fill-opacity="1" d=" M192.70799255371094,-65.1510009765625 C192.70799255371094,-65.1510009765625 0,65.1510009765625 0,65.1510009765625 C0,65.1510009765625 -192.70799255371094,-65.1510009765625 -192.70799255371094,-65.1510009765625 C-192.70799255371094,-65.1510009765625 -269.00201416015625,255.34100341796875 -269.00201416015625,255.34100341796875 C-269.00201416015625,255.34100341796875 -241.9709930419922,426.1659851074219 -241.9709930419922,426.1659851074219 C-241.9709930419922,426.1659851074219 302.5769958496094,422.5950012207031 302.5769958496094,422.5950012207031 C302.5769958496094,422.5950012207031 316.99798583984375,266.34100341796875 316.99798583984375,266.34100341796875 C316.99798583984375,266.34100341796875 192.70799255371094,-65.1510009765625 192.70799255371094,-65.1510009765625z"></path></g></g></g></mask><filter id="__lottie_element_145" filterUnits="objectBoundingBox" x="0%" y="0%" width="100%" height="100%"><feComponentTransfer in="SourceGraphic"><feFuncA type="table" tableValues="1.0 0.0"></feFuncA></feComponentTransfer></filter><mask id="__lottie_element_144" mask-type="alpha"><g filter="url(#__lottie_element_145)"><rect width="500" height="500" x="0" y="0" fill="#ffffff" opacity="0"></rect><g class="primary design" style="display: none;" transform="matrix(1,0,0,1,0,13.486770629882812)" opacity="1"><g opacity="1" transform="matrix(1,0,0,1,250.093994140625,218.2729949951172)"><path fill="rgb(18,19,49)" fill-opacity="1" d=" M139.48199462890625,163.6909942626953 C139.48199462890625,163.6909942626953 -139.48199462890625,163.6909942626953 -139.48199462890625,163.6909942626953 C-147.44500732421875,163.6909942626953 -153.906005859375,157.22999572753906 -153.906005859375,149.26699829101562 C-153.906005859375,149.26699829101562 -153.906005859375,-149.26699829101562 -153.906005859375,-149.26699829101562 C-153.906005859375,-157.22999572753906 -147.44500732421875,-163.6909942626953 -139.48199462890625,-163.6909942626953 C-139.48199462890625,-163.6909942626953 139.48199462890625,-163.6909942626953 139.48199462890625,-163.6909942626953 C147.44500732421875,-163.6909942626953 153.906005859375,-157.22999572753906 153.906005859375,-149.26699829101562 C153.906005859375,-149.26699829101562 153.906005859375,149.26699829101562 153.906005859375,149.26699829101562 C153.906005859375,157.22999572753906 147.44500732421875,163.6909942626953 139.48199462890625,163.6909942626953z"></path></g></g></g></mask></defs><g clip-path="url(#__lottie_element_47)"><g clip-path="url(#__lottie_element_122)" transform="matrix(1,0,0,1,0,0)" opacity="0" style="display: block;"><g class="primary design" style="display: none;" transform="matrix(1,0,0,1,249.99899291992188,323.5804748535156)" opacity="1"><g opacity="1" transform="matrix(1,0,0,1,0,0)"><path stroke-linecap="round" stroke-linejoin="round" fill-opacity="0" stroke="rgb(255,255,255)" stroke-opacity="1" stroke-width="31.3" d=" M192.7050018310547,-117.26899719238281 C192.7050018310547,-117.26899719238281 192.7050018310547,117.26899719238281 192.7050018310547,117.26899719238281 C192.7050018310547,117.26899719238281 -192.7050018310547,117.26899719238281 -192.7050018310547,117.26899719238281 C-192.7050018310547,117.26899719238281 -192.7050018310547,-117.26899719238281 -192.7050018310547,-117.26899719238281"></path></g></g><g mask="url(#__lottie_element_144)" style="display: none;"><g class="primary design" transform="matrix(1,0,0,1,250.00399780273438,141.28846740722656)" opacity="1"><g opacity="1" transform="matrix(1,0,0,1,0,0)"><path stroke-linecap="round" stroke-linejoin="round" fill-opacity="0" stroke="rgb(255,255,255)" stroke-opacity="1" stroke-width="31.3" d=" M-192.70799255371094,65.02400207519531 C-192.70799255371094,65.02400207519531 -37.7140007019043,-52.35300064086914 -37.7140007019043,-52.35300064086914 C-15.404999732971191,-69.24800109863281 15.404999732971191,-69.24800109863281 37.7140007019043,-52.35300064086914 C37.7140007019043,-52.35300064086914 192.70799255371094,65.02400207519531 192.70799255371094,65.02400207519531"></path></g></g></g><g mask="url(#__lottie_element_137)" style="display: none;"><g class="primary design" transform="matrix(1,0,0,1,0,13.486770629882812)" opacity="1"><g opacity="1" transform="matrix(1,0,0,1,250.093994140625,218.2729949951172)"><path fill="rgb(255,255,255)" fill-opacity="1" d=" M151.09100341796875,177.3159942626953 C151.09100341796875,177.3159942626953 -151.09100341796875,177.3159942626953 -151.09100341796875,177.3159942626953 C-159.7169952392578,177.3159942626953 -166.71600341796875,170.31700134277344 -166.71600341796875,161.6909942626953 C-166.71600341796875,161.6909942626953 -166.71600341796875,-161.6909942626953 -166.71600341796875,-161.6909942626953 C-166.71600341796875,-170.31700134277344 -159.7169952392578,-177.3159942626953 -151.09100341796875,-177.3159942626953 C-151.09100341796875,-177.3159942626953 151.09100341796875,-177.3159942626953 151.09100341796875,-177.3159942626953 C159.7169952392578,-177.3159942626953 166.71600341796875,-170.31700134277344 166.71600341796875,-161.6909942626953 C166.71600341796875,-161.6909942626953 166.71600341796875,161.6909942626953 166.71600341796875,161.6909942626953 C166.71600341796875,170.31700134277344 159.7169952392578,177.3159942626953 151.09100341796875,177.3159942626953z M-135.46600341796875,146.0659942626953 C-135.46600341796875,146.0659942626953 135.46600341796875,146.0659942626953 135.46600341796875,146.0659942626953 C135.46600341796875,146.0659942626953 135.46600341796875,-146.0659942626953 135.46600341796875,-146.0659942626953 C135.46600341796875,-146.0659942626953 -135.46600341796875,-146.0659942626953 -135.46600341796875,-146.0659942626953 C-135.46600341796875,-146.0659942626953 -135.46600341796875,146.0659942626953 -135.46600341796875,146.0659942626953z"></path></g><g opacity="1" transform="matrix(1,0,0,1,249.7790069580078,131.11599731445312)"><path fill="rgb(255,255,255)" fill-opacity="1" d=" M78.91300201416016,14.836000442504883 C78.91300201416016,14.836000442504883 -78.91300201416016,14.836000442504883 -78.91300201416016,14.836000442504883 C-87.10399627685547,14.836000442504883 -93.7490005493164,8.190999984741211 -93.7490005493164,0 C-93.7490005493164,-8.190999984741211 -87.10399627685547,-14.836000442504883 -78.91300201416016,-14.836000442504883 C-78.91300201416016,-14.836000442504883 78.91300201416016,-14.836000442504883 78.91300201416016,-14.836000442504883 C87.10399627685547,-14.836000442504883 93.7490005493164,-8.190999984741211 93.7490005493164,0 C93.7490005493164,8.190999984741211 87.10399627685547,14.836000442504883 78.91300201416016,14.836000442504883z"></path></g><g opacity="1" transform="matrix(1,0,0,1,249.7790069580078,191.3260040283203)"><path fill="rgb(255,255,255)" fill-opacity="1" d=" M78.91300201416016,14.836000442504883 C78.91300201416016,14.836000442504883 -78.91300201416016,14.836000442504883 -78.91300201416016,14.836000442504883 C-87.10399627685547,14.836000442504883 -93.7490005493164,8.190999984741211 -93.7490005493164,0 C-93.7490005493164,-8.190999984741211 -87.10399627685547,-14.836000442504883 -78.91300201416016,-14.836000442504883 C-78.91300201416016,-14.836000442504883 78.91300201416016,-14.836000442504883 78.91300201416016,-14.836000442504883 C87.10399627685547,-14.836000442504883 93.7490005493164,-8.190999984741211 93.7490005493164,0 C93.7490005493164,8.190999984741211 87.10399627685547,14.836000442504883 78.91300201416016,14.836000442504883z"></path></g></g></g><g class="primary design" style="display: none;" transform="matrix(1,0,0,1,250.0019989013672,271.46246337890625)" opacity="1"><g opacity="1" transform="matrix(1,0,0,1,0,0)"><path stroke-linecap="round" stroke-linejoin="round" fill-opacity="0" stroke="rgb(255,255,255)" stroke-opacity="1" stroke-width="31.3" d=" M192.70799255371094,-65.1510009765625 C192.70799255371094,-65.1510009765625 0,65.1510009765625 0,65.1510009765625 C0,65.1510009765625 -192.70799255371094,-65.1510009765625 -192.70799255371094,-65.1510009765625"></path></g></g><g class="primary design" transform="matrix(1,0,0,1,250,250)" opacity="1" style="display: block;"><g opacity="1" transform="matrix(1,0,0,1,0,0)"><path fill="rgb(255,255,255)" fill-opacity="1" d=" M208.34800720214844,-83.78600311279297 C208.34300231933594,-84.05899810791016 208.3280029296875,-84.33200073242188 208.30799865722656,-84.6050033569336 C208.29100036621094,-84.84500122070312 208.27200317382812,-85.08300018310547 208.24400329589844,-85.3219985961914 C208.21400451660156,-85.572998046875 208.17599487304688,-85.8219985961914 208.13400268554688,-86.07099914550781 C208.0919952392578,-86.3219985961914 208.04800415039062,-86.5719985961914 207.99400329589844,-86.82099914550781 C207.94000244140625,-87.06900024414062 207.87600708007812,-87.31400299072266 207.80999755859375,-87.55899810791016 C207.75900268554688,-87.75 207.71400451660156,-87.94100189208984 207.65499877929688,-88.13099670410156 C207.63999938964844,-88.17900085449219 207.61900329589844,-88.22599792480469 207.60400390625,-88.27400207519531 C207.5189971923828,-88.54000091552734 207.4219970703125,-88.802001953125 207.32200622558594,-89.06400299072266 C207.25799560546875,-89.23100280761719 207.20199584960938,-89.39900207519531 207.1320037841797,-89.56400299072266 C207.11500549316406,-89.6050033569336 207.093994140625,-89.64399719238281 207.07699584960938,-89.68399810791016 C206.947998046875,-89.98300170898438 206.8040008544922,-90.2750015258789 206.656005859375,-90.56700134277344 C206.5919952392578,-90.69300079345703 206.53599548339844,-90.8219985961914 206.46800231933594,-90.9469985961914 C206.4530029296875,-90.9739990234375 206.43600463867188,-90.9990005493164 206.42100524902344,-91.0260009765625 C206.23800659179688,-91.35900115966797 206.03599548339844,-91.68399810791016 205.8280029296875,-92.00499725341797 C205.7740020751953,-92.08899688720703 205.7310028076172,-92.17500305175781 205.6750030517578,-92.25800323486328 C205.6540069580078,-92.28900146484375 205.6280059814453,-92.31700134277344 205.60699462890625,-92.3479995727539 C205.39300537109375,-92.65899658203125 205.16200256347656,-92.95999908447266 204.9239959716797,-93.25700378417969 C204.91400146484375,-93.26899719238281 204.90499877929688,-93.28199768066406 204.89500427246094,-93.29399871826172 C204.85400390625,-93.34500122070312 204.81900024414062,-93.4010009765625 204.77699279785156,-93.4520034790039 C204.72799682617188,-93.51100158691406 204.6790008544922,-93.56999969482422 204.62899780273438,-93.62799835205078 C204.4290008544922,-93.86199951171875 204.21400451660156,-94.08599853515625 203.99899291992188,-94.30999755859375 C203.96600341796875,-94.34500122070312 203.9340057373047,-94.38099670410156 203.9010009765625,-94.41500091552734 C203.8520050048828,-94.46600341796875 203.8070068359375,-94.52100372314453 203.7570037841797,-94.57099914550781 C203.677001953125,-94.6510009765625 203.59500122070312,-94.73100280761719 203.51300048828125,-94.80899810791016 C203.34500122070312,-94.96900177001953 203.16600036621094,-95.11900329589844 202.99000549316406,-95.27200317382812 C202.93499755859375,-95.31999969482422 202.88099670410156,-95.37100219726562 202.8249969482422,-95.41799926757812 C202.75900268554688,-95.4739990234375 202.697998046875,-95.53500366210938 202.63099670410156,-95.58999633789062 C202.5189971923828,-95.68199920654297 202.40499877929688,-95.77100372314453 202.29100036621094,-95.85900115966797 C202.24600219726562,-95.89399719238281 202.20700073242188,-95.93299865722656 202.16099548339844,-95.96800231933594 C202.16099548339844,-95.96800231933594 47.16699981689453,-213.34500122070312 47.16699981689453,-213.34500122070312 C19.39900016784668,-234.3719940185547 -19.38800048828125,-234.37399291992188 -47.15800094604492,-213.34500122070312 C-47.15800094604492,-213.34500122070312 -202.1510009765625,-95.96800231933594 -202.1510009765625,-95.96800231933594 C-202.18499755859375,-95.94200134277344 -202.21400451660156,-95.91300201416016 -202.2480010986328,-95.88700103759766 C-202.36300659179688,-95.7979965209961 -202.47999572753906,-95.71199798583984 -202.59300231933594,-95.62000274658203 C-202.7530059814453,-95.48999786376953 -202.9010009765625,-95.34700012207031 -203.05499267578125,-95.21099853515625 C-203.06700134277344,-95.20099639892578 -203.07899475097656,-95.19000244140625 -203.09100341796875,-95.18000030517578 C-203.2169952392578,-95.06800079345703 -203.3459930419922,-94.95999908447266 -203.46800231933594,-94.84500122070312 C-203.552001953125,-94.76499938964844 -203.63800048828125,-94.68699645996094 -203.7209930419922,-94.6050033569336 C-203.8679962158203,-94.45899963378906 -204.0030059814453,-94.302001953125 -204.1439971923828,-94.1500015258789 C-204.29200744628906,-93.99199676513672 -204.4429931640625,-93.83599853515625 -204.58299255371094,-93.6729965209961 C-204.63600158691406,-93.61100006103516 -204.6929931640625,-93.552001953125 -204.7449951171875,-93.48899841308594 C-204.875,-93.33300018310547 -204.98899841308594,-93.16699981689453 -205.11300659179688,-93.00599670410156 C-205.26199340820312,-92.81199645996094 -205.41299438476562,-92.61799621582031 -205.552001953125,-92.41799926757812 C-205.70700073242188,-92.19599914550781 -205.8489990234375,-91.96499633789062 -205.99200439453125,-91.73400115966797 C-206.11199951171875,-91.54000091552734 -206.23699951171875,-91.3489990234375 -206.34800720214844,-91.1500015258789 C-206.39500427246094,-91.06600189208984 -206.44700622558594,-90.98400115966797 -206.4929962158203,-90.89900207519531 C-206.5290069580078,-90.83200073242188 -206.55599975585938,-90.76200103759766 -206.59100341796875,-90.69499969482422 C-206.64999389648438,-90.58100128173828 -206.7030029296875,-90.46299743652344 -206.75900268554688,-90.3479995727539 C-206.84500122070312,-90.1719970703125 -206.9340057373047,-89.99800109863281 -207.01300048828125,-89.81999969482422 C-207.0590057373047,-89.71600341796875 -207.11000061035156,-89.61499786376953 -207.1540069580078,-89.51000213623047 C-207.22999572753906,-89.3280029296875 -207.28700256347656,-89.14199829101562 -207.3560028076172,-88.95800018310547 C-207.36300659179688,-88.93900299072266 -207.3699951171875,-88.91799926757812 -207.3769989013672,-88.89900207519531 C-207.43499755859375,-88.74099731445312 -207.4980010986328,-88.58399963378906 -207.55099487304688,-88.42400360107422 C-207.58999633789062,-88.30599975585938 -207.63600158691406,-88.19100189208984 -207.6719970703125,-88.0719985961914 C-207.73899841308594,-87.85299682617188 -207.78599548339844,-87.63200378417969 -207.84300231933594,-87.41100311279297 C-207.8820037841797,-87.26000213623047 -207.9239959716797,-87.11000061035156 -207.95799255371094,-86.95899963378906 C-207.98599243164062,-86.83499908447266 -208.02200317382812,-86.71600341796875 -208.0469970703125,-86.59100341796875 C-208.09100341796875,-86.37000274658203 -208.11599731445312,-86.14800262451172 -208.1510009765625,-85.9260025024414 C-208.177001953125,-85.75900268554688 -208.20399475097656,-85.59300231933594 -208.22500610351562,-85.4260025024414 C-208.24000549316406,-85.30699920654297 -208.26499938964844,-85.19200134277344 -208.27699279785156,-85.0719985961914 C-208.2969970703125,-84.86900329589844 -208.2989959716797,-84.66500091552734 -208.31100463867188,-84.46199798583984 C-208.322998046875,-84.27200317382812 -208.33399963378906,-84.08300018310547 -208.33900451660156,-83.89299774169922 C-208.3419952392578,-83.75900268554688 -208.3560028076172,-83.625 -208.3560028076172,-83.49099731445312 C-208.3560028076172,-83.49099731445312 -208.3560028076172,151.0449981689453 -208.3560028076172,151.0449981689453 C-208.3560028076172,159.68800354003906 -201.35000610351562,166.69500732421875 -192.70599365234375,166.69500732421875 C-192.70599365234375,166.69500732421875 192.70399475097656,166.69500732421875 192.70399475097656,166.69500732421875 C201.34800720214844,166.69500732421875 208.35400390625,159.68800354003906 208.35400390625,151.0449981689453 C208.35400390625,151.0449981689453 208.35400390625,-83.36799621582031 208.35400390625,-83.36799621582031 C208.35499572753906,-83.50800323486328 208.3509979248047,-83.64600372314453 208.34800720214844,-83.78600311279297z M-28.261999130249023,-188.39300537109375 C-11.619999885559082,-200.99600219726562 11.626999855041504,-200.9969940185547 28.270999908447266,-188.39300537109375 C28.270999908447266,-188.39300537109375 165.83799743652344,-84.21399688720703 165.83799743652344,-84.21399688720703 C165.83799743652344,-84.21399688720703 0.0020000000949949026,27.917999267578125 0.0020000000949949026,27.917999267578125 C0.0020000000949949026,27.917999267578125 -165.83099365234375,-84.21199798583984 -165.83099365234375,-84.21199798583984 C-165.83099365234375,-84.21199798583984 -28.261999130249023,-188.39300537109375 -28.261999130249023,-188.39300537109375z M-177.05599975585938,135.39500427246094 C-177.05599975585938,135.39500427246094 -177.05599975585938,-54.01900100708008 -177.05599975585938,-54.01900100708008 C-177.05599975585938,-54.01900100708008 -8.763999938964844,59.77399826049805 -8.763999938964844,59.77399826049805 C-6.117000102996826,61.564998626708984 -3.058000087738037,62.45899963378906 0.0020000000949949026,62.45899963378906 C3.062000036239624,62.45899963378906 6.120999813079834,61.564998626708984 8.767999649047852,59.77399826049805 C8.767999649047852,59.77399826049805 177.0540008544922,-54.01499938964844 177.0540008544922,-54.01499938964844 C177.0540008544922,-54.01499938964844 177.0540008544922,135.39500427246094 177.0540008544922,135.39500427246094 C177.0540008544922,135.39500427246094 -177.05599975585938,135.39500427246094 -177.05599975585938,135.39500427246094z"></path></g></g><g class="primary design" style="display: none;" transform="matrix(1,0,0,1,0,0)" opacity="1"><g opacity="1" transform="matrix(1,0,0,1,250,249.64300537109375)"><path fill="rgb(255,255,255)" fill-opacity="1" d=" M208.32000732421875,-41.90999984741211 C208.30999755859375,-42.06999969482422 208.3000030517578,-42.2400016784668 208.2899932861328,-42.40999984741211 C208.27000427246094,-42.7400016784668 208.25,-43.06999969482422 208.1999969482422,-43.400001525878906 C208.17999267578125,-43.58000183105469 208.16000366210938,-43.75 208.1300048828125,-43.91999816894531 C208.08999633789062,-44.13999938964844 208.07000732421875,-44.36000061035156 208.02000427246094,-44.58000183105469 C208,-44.68000030517578 207.97000122070312,-44.779998779296875 207.9499969482422,-44.880001068115234 C207.91000366210938,-45.06999969482422 207.85000610351562,-45.27000045776367 207.8000030517578,-45.459999084472656 C207.75,-45.65999984741211 207.7100067138672,-45.86000061035156 207.64999389648438,-46.04999923706055 C207.6199951171875,-46.13999938964844 207.5800018310547,-46.22999954223633 207.5500030517578,-46.33000183105469 C207.47999572753906,-46.56999969482422 207.3800048828125,-46.810001373291016 207.2899932861328,-47.04999923706055 C207.24000549316406,-47.189998626708984 207.19000244140625,-47.33000183105469 207.1300048828125,-47.470001220703125 C207.10000610351562,-47.54999923706055 207.05999755859375,-47.630001068115234 207.02999877929688,-47.709999084472656 C206.89999389648438,-48 206.75999450683594,-48.290000915527344 206.61000061035156,-48.56999969482422 C206.5399932861328,-48.720001220703125 206.4600067138672,-48.880001068115234 206.3800048828125,-49.029998779296875 C206.1999969482422,-49.349998474121094 206.00999450683594,-49.65999984741211 205.8000030517578,-49.97999954223633 C205.74000549316406,-50.08000183105469 205.67999267578125,-50.18000030517578 205.61000061035156,-50.279998779296875 C205.38999938964844,-50.61000061035156 205.14999389648438,-50.91999816894531 204.89999389648438,-51.22999954223633 C204.83999633789062,-51.29999923706055 204.7899932861328,-51.380001068115234 204.72999572753906,-51.45000076293945 C204.6999969482422,-51.47999954223633 204.67999267578125,-51.5099983215332 204.66000366210938,-51.540000915527344 C204.4199981689453,-51.810001373291016 204.1699981689453,-52.08000183105469 203.9199981689453,-52.34000015258789 C203.85000610351562,-52.40999984741211 203.8000030517578,-52.47999954223633 203.72999572753906,-52.540000915527344 C203.6699981689453,-52.61000061035156 203.60000610351562,-52.66999816894531 203.52999877929688,-52.7400016784668 C203.3300018310547,-52.93000030517578 203.11000061035156,-53.119998931884766 202.88999938964844,-53.310001373291016 C202.83999633789062,-53.349998474121094 202.7899932861328,-53.400001525878906 202.72999572753906,-53.45000076293945 C202.6999969482422,-53.47999954223633 202.6699981689453,-53.5099983215332 202.6300048828125,-53.540000915527344 C202.52999877929688,-53.630001068115234 202.4199981689453,-53.709999084472656 202.30999755859375,-53.79999923706055 C202.25,-53.84000015258789 202.1999969482422,-53.88999938964844 202.14999389648438,-53.93000030517578 C202.14999389648438,-53.93000030517578 166.80999755859375,-80.69000244140625 166.80999755859375,-80.69000244140625 C166.80999755859375,-80.69000244140625 166.80999755859375,-193.05999755859375 166.80999755859375,-193.05999755859375 C166.80999755859375,-201.69000244140625 159.80999755859375,-208.69000244140625 151.19000244140625,-208.69000244140625 C151.19000244140625,-208.69000244140625 -151,-208.69000244140625 -151,-208.69000244140625 C-159.6199951171875,-208.69000244140625 -166.6199951171875,-201.69000244140625 -166.6199951171875,-193.05999755859375 C-166.6199951171875,-193.05999755859375 -166.6199951171875,-80.83000183105469 -166.6199951171875,-80.83000183105469 C-166.6199951171875,-80.83000183105469 -202.13999938964844,-53.93000030517578 -202.13999938964844,-53.93000030517578 C-202.22000122070312,-53.880001068115234 -202.27999877929688,-53.810001373291016 -202.35000610351562,-53.7599983215332 C-202.42999267578125,-53.70000076293945 -202.50999450683594,-53.630001068115234 -202.5800018310547,-53.56999969482422 C-202.6699981689453,-53.5 -202.75,-53.41999816894531 -202.83999633789062,-53.349998474121094 C-203.08999633789062,-53.130001068115234 -203.3300018310547,-52.91999816894531 -203.57000732421875,-52.70000076293945 C-203.61000061035156,-52.65999984741211 -203.64999389648438,-52.61000061035156 -203.69000244140625,-52.56999969482422 C-203.77000427246094,-52.5 -203.83999633789062,-52.41999816894531 -203.91000366210938,-52.34000015258789 C-204.1699981689453,-52.06999969482422 -204.42999267578125,-51.79999923706055 -204.6699981689453,-51.5099983215332 C-204.67999267578125,-51.5 -204.69000244140625,-51.47999954223633 -204.6999969482422,-51.470001220703125 C-204.77000427246094,-51.38999938964844 -204.8300018310547,-51.310001373291016 -204.88999938964844,-51.22999954223633 C-205.13999938964844,-50.91999816894531 -205.3800048828125,-50.61000061035156 -205.60000610351562,-50.279998779296875 C-205.6699981689453,-50.18000030517578 -205.72999572753906,-50.08000183105469 -205.8000030517578,-49.97999954223633 C-206,-49.65999984741211 -206.1999969482422,-49.349998474121094 -206.3800048828125,-49.029998779296875 C-206.4600067138672,-48.880001068115234 -206.52999877929688,-48.720001220703125 -206.61000061035156,-48.56999969482422 C-206.75,-48.290000915527344 -206.89999389648438,-48 -207.02999877929688,-47.709999084472656 C-207.05999755859375,-47.630001068115234 -207.10000610351562,-47.54999923706055 -207.1300048828125,-47.470001220703125 C-207.19000244140625,-47.33000183105469 -207.22999572753906,-47.189998626708984 -207.2899932861328,-47.04999923706055 C-207.3800048828125,-46.810001373291016 -207.47000122070312,-46.56999969482422 -207.5500030517578,-46.33000183105469 C-207.5800018310547,-46.22999954223633 -207.61000061035156,-46.13999938964844 -207.63999938964844,-46.04999923706055 C-207.6999969482422,-45.86000061035156 -207.75,-45.65999984741211 -207.8000030517578,-45.459999084472656 C-207.85000610351562,-45.27000045776367 -207.89999389648438,-45.06999969482422 -207.9499969482422,-44.880001068115234 C-207.97000122070312,-44.779998779296875 -208,-44.68000030517578 -208.02000427246094,-44.58000183105469 C-208.05999755859375,-44.36000061035156 -208.08999633789062,-44.13999938964844 -208.1199951171875,-43.91999816894531 C-208.14999389648438,-43.75 -208.17999267578125,-43.58000183105469 -208.1999969482422,-43.400001525878906 C-208.24000549316406,-43.06999969482422 -208.27000427246094,-42.7400016784668 -208.2899932861328,-42.40999984741211 C-208.3000030517578,-42.2400016784668 -208.30999755859375,-42.06999969482422 -208.30999755859375,-41.90999984741211 C-208.32000732421875,-41.7400016784668 -208.3300018310547,-41.56999969482422 -208.3300018310547,-41.400001525878906 C-208.3300018310547,-41.400001525878906 -208.3300018310547,193.05999755859375 -208.3300018310547,193.05999755859375 C-208.3300018310547,201.69000244140625 -201.3300018310547,208.69000244140625 -192.6999969482422,208.69000244140625 C-192.6999969482422,208.69000244140625 192.7100067138672,208.69000244140625 192.7100067138672,208.69000244140625 C201.33999633789062,208.69000244140625 208.3300018310547,201.69000244140625 208.3300018310547,193.05999755859375 C208.3300018310547,193.05999755859375 208.3300018310547,-41.400001525878906 208.3300018310547,-41.400001525878906 C208.3300018310547,-41.56999969482422 208.32000732421875,-41.7400016784668 208.32000732421875,-41.90999984741211z M-135.3699951171875,-177.44000244140625 C-135.3699951171875,-177.44000244140625 135.55999755859375,-177.44000244140625 135.55999755859375,-177.44000244140625 C135.55999755859375,-177.44000244140625 135.55999755859375,-104.36000061035156 135.55999755859375,-104.36000061035156 C135.55999755859375,-104.36000061035156 135.55999755859375,-65.13999938964844 135.55999755859375,-65.13999938964844 C135.55999755859375,-65.13999938964844 135.55999755859375,-21.68000030517578 135.55999755859375,-21.68000030517578 C135.55999755859375,-21.68000030517578 0,69.9800033569336 0,69.9800033569336 C0,69.9800033569336 -135.3699951171875,-21.559999465942383 -135.3699951171875,-21.559999465942383 C-135.3699951171875,-21.559999465942383 -135.3699951171875,-65.27999877929688 -135.3699951171875,-65.27999877929688 C-135.3699951171875,-65.27999877929688 -135.3699951171875,-104.5 -135.3699951171875,-104.5 C-135.3699951171875,-104.5 -135.3699951171875,-177.44000244140625 -135.3699951171875,-177.44000244140625z M177.0800018310547,177.44000244140625 C177.0800018310547,177.44000244140625 -177.0800018310547,177.44000244140625 -177.0800018310547,177.44000244140625 C-177.0800018310547,177.44000244140625 -177.0800018310547,-12.050000190734863 -177.0800018310547,-12.050000190734863 C-177.0800018310547,-12.050000190734863 -166.6199951171875,-4.980000019073486 -166.6199951171875,-4.980000019073486 C-166.6199951171875,-4.980000019073486 -135.3699951171875,16.15999984741211 -135.3699951171875,16.15999984741211 C-135.3699951171875,16.15999984741211 -8.75,101.77999877929688 -8.75,101.77999877929688 C-6.099999904632568,103.56999969482422 -3.049999952316284,104.45999908447266 0,104.45999908447266 C3.049999952316284,104.45999908447266 6.110000133514404,103.56999969482422 8.75,101.77999877929688 C8.75,101.77999877929688 135.55999755859375,16.030000686645508 135.55999755859375,16.030000686645508 C135.55999755859375,16.030000686645508 166.80999755859375,-5.110000133514404 166.80999755859375,-5.110000133514404 C166.80999755859375,-5.110000133514404 177.0800018310547,-12.050000190734863 177.0800018310547,-12.050000190734863 C177.0800018310547,-12.050000190734863 177.0800018310547,177.44000244140625 177.0800018310547,177.44000244140625z"></path></g><g opacity="1" transform="matrix(1,0,0,1,249.7790069580078,131.11599731445312)"><path fill="rgb(255,255,255)" fill-opacity="1" d=" M-78.91300201416016,14.836000442504883 C-78.91300201416016,14.836000442504883 78.91300201416016,14.836000442504883 78.91300201416016,14.836000442504883 C87.10399627685547,14.836000442504883 93.7490005493164,8.190999984741211 93.7490005493164,0 C93.7490005493164,-8.190999984741211 87.10399627685547,-14.836000442504883 78.91300201416016,-14.836000442504883 C78.91300201416016,-14.836000442504883 -78.91300201416016,-14.836000442504883 -78.91300201416016,-14.836000442504883 C-87.10399627685547,-14.836000442504883 -93.7490005493164,-8.190999984741211 -93.7490005493164,0 C-93.7490005493164,8.190999984741211 -87.10399627685547,14.836000442504883 -78.91300201416016,14.836000442504883z"></path></g><g opacity="1" transform="matrix(1,0,0,1,249.7790069580078,191.3260040283203)"><path fill="rgb(255,255,255)" fill-opacity="1" d=" M-78.91300201416016,14.836000442504883 C-78.91300201416016,14.836000442504883 78.91300201416016,14.836000442504883 78.91300201416016,14.836000442504883 C87.10399627685547,14.836000442504883 93.7490005493164,8.190999984741211 93.7490005493164,0 C93.7490005493164,-8.190999984741211 87.10399627685547,-14.836000442504883 78.91300201416016,-14.836000442504883 C78.91300201416016,-14.836000442504883 -78.91300201416016,-14.836000442504883 -78.91300201416016,-14.836000442504883 C-87.10399627685547,-14.836000442504883 -93.7490005493164,-8.190999984741211 -93.7490005493164,0 C-93.7490005493164,8.190999984741211 -87.10399627685547,14.836000442504883 -78.91300201416016,14.836000442504883z"></path></g></g></g><g clip-path="url(#__lottie_element_100)" transform="matrix(1,0,0,1,0,0)" opacity="0" style="display: block;"><g class="primary design" style="display: none;" transform="matrix(0.9760246276855469,0.21765999495983124,-0.21765999495983124,0.9760246276855469,249.99899291992188,310.52398681640625)" opacity="1"><g opacity="1" transform="matrix(1,0,0,1,0,0)"><path stroke-linecap="round" stroke-linejoin="round" fill-opacity="0" stroke="rgb(255,255,255)" stroke-opacity="1" stroke-width="31.3" d=" M192.99899291992188,-184.7689971923828 C192.99899291992188,-184.7689971923828 192.7050018310547,117.26899719238281 192.7050018310547,117.26899719238281 C192.7050018310547,117.26899719238281 -192.7050018310547,117.26899719238281 -192.7050018310547,117.26899719238281 C-192.7050018310547,117.26899719238281 -192.41099548339844,-184.7689971923828 -192.41099548339844,-184.7689971923828"></path></g></g><g class="primary design" style="display: none;" transform="matrix(0.9760246276855469,0.21765999495983124,-0.21765999495983124,0.9760246276855469,289.6815490722656,132.6035919189453)" opacity="1"><g opacity="1" transform="matrix(1,0,0,1,0,0)"><path stroke-linecap="round" stroke-linejoin="round" fill-opacity="0" stroke="rgb(255,255,255)" stroke-opacity="1" stroke-width="31.3" d=" M-192.70799255371094,-1.4839999675750732 C-192.70799255371094,-1.4839999675750732 -42.494998931884766,157.3300018310547 -42.494998931884766,157.3300018310547 C-17.357999801635742,183.48699951171875 17.357999801635742,183.48699951171875 42.494998931884766,157.3300018310547 C42.494998931884766,157.3300018310547 192.70799255371094,-1.4839999675750732 192.70799255371094,-1.4839999675750732"></path></g></g><g class="primary design" style="display: none;" transform="matrix(0.9760246276855469,0.21765999495983124,-0.21765999495983124,0.9760246276855469,289.6815490722656,132.6035919189453)" opacity="1"><g opacity="1" transform="matrix(1,0,0,1,0,0)"><path stroke-linecap="round" stroke-linejoin="round" fill-opacity="0" stroke="rgb(255,255,255)" stroke-opacity="1" stroke-width="31.3" d=" M-192.8070068359375,-2.2269999980926514 C-192.8070068359375,-2.2269999980926514 192.60899353027344,-2.2269999980926514 192.60899353027344,-2.2269999980926514"></path></g></g><g class="primary design" style="display: none;" transform="matrix(0.9999688267707825,0.00789380632340908,-0.00789380632340908,0.9999688267707825,250.4134063720703,261.4458923339844)" opacity="1"><g opacity="1" transform="matrix(1,0,0,1,0,0)"><path stroke-linecap="round" stroke-linejoin="round" fill-opacity="0" stroke="rgb(255,255,255)" stroke-opacity="1" stroke-width="31.3" d=" M192.70799255371094,-125.10187530517578 C192.70799255371094,-125.10187530517578 0,41.16456604003906 0,41.16456604003906 C0,41.16456604003906 -192.70799255371094,-125.10187530517578 -192.70799255371094,-125.10187530517578"></path></g></g><g class="primary design" transform="matrix(1,0,0,1,250,250)" opacity="1" style="display: block;"><g opacity="1" transform="matrix(1,0,0,1,0,0)"><path fill="rgb(255,255,255)" fill-opacity="1" d=" M208.34800720214844,-83.78600311279297 C208.34300231933594,-84.05899810791016 208.3280029296875,-84.33200073242188 208.30799865722656,-84.6050033569336 C208.29100036621094,-84.84500122070312 208.27200317382812,-85.08300018310547 208.24400329589844,-85.3219985961914 C208.21400451660156,-85.572998046875 208.17599487304688,-85.8219985961914 208.13400268554688,-86.07099914550781 C208.0919952392578,-86.3219985961914 208.04800415039062,-86.5719985961914 207.99400329589844,-86.82099914550781 C207.94000244140625,-87.06900024414062 207.87600708007812,-87.31400299072266 207.80999755859375,-87.55899810791016 C207.75900268554688,-87.75 207.71400451660156,-87.94100189208984 207.65499877929688,-88.13099670410156 C207.63999938964844,-88.17900085449219 207.61900329589844,-88.22599792480469 207.60400390625,-88.27400207519531 C207.5189971923828,-88.54000091552734 207.4219970703125,-88.802001953125 207.32200622558594,-89.06400299072266 C207.25799560546875,-89.23100280761719 207.20199584960938,-89.39900207519531 207.1320037841797,-89.56400299072266 C207.11500549316406,-89.6050033569336 207.093994140625,-89.64399719238281 207.07699584960938,-89.68399810791016 C206.947998046875,-89.98300170898438 206.8040008544922,-90.2750015258789 206.656005859375,-90.56700134277344 C206.5919952392578,-90.69300079345703 206.53599548339844,-90.8219985961914 206.46800231933594,-90.9469985961914 C206.4530029296875,-90.9739990234375 206.43600463867188,-90.9990005493164 206.42100524902344,-91.0260009765625 C206.23800659179688,-91.35900115966797 206.03599548339844,-91.68399810791016 205.8280029296875,-92.00499725341797 C205.7740020751953,-92.08899688720703 205.7310028076172,-92.17500305175781 205.6750030517578,-92.25800323486328 C205.6540069580078,-92.28900146484375 205.6280059814453,-92.31700134277344 205.60699462890625,-92.3479995727539 C205.39300537109375,-92.65899658203125 205.16200256347656,-92.95999908447266 204.9239959716797,-93.25700378417969 C204.91400146484375,-93.26899719238281 204.90499877929688,-93.28199768066406 204.89500427246094,-93.29399871826172 C204.85400390625,-93.34500122070312 204.81900024414062,-93.4010009765625 204.77699279785156,-93.4520034790039 C204.72799682617188,-93.51100158691406 204.6790008544922,-93.56999969482422 204.62899780273438,-93.62799835205078 C204.4290008544922,-93.86199951171875 204.21400451660156,-94.08599853515625 203.99899291992188,-94.30999755859375 C203.96600341796875,-94.34500122070312 203.9340057373047,-94.38099670410156 203.9010009765625,-94.41500091552734 C203.8520050048828,-94.46600341796875 203.8070068359375,-94.52100372314453 203.7570037841797,-94.57099914550781 C203.677001953125,-94.6510009765625 203.59500122070312,-94.73100280761719 203.51300048828125,-94.80899810791016 C203.34500122070312,-94.96900177001953 203.16600036621094,-95.11900329589844 202.99000549316406,-95.27200317382812 C202.93499755859375,-95.31999969482422 202.88099670410156,-95.37100219726562 202.8249969482422,-95.41799926757812 C202.75900268554688,-95.4739990234375 202.697998046875,-95.53500366210938 202.63099670410156,-95.58999633789062 C202.5189971923828,-95.68199920654297 202.40499877929688,-95.77100372314453 202.29100036621094,-95.85900115966797 C202.24600219726562,-95.89399719238281 202.20700073242188,-95.93299865722656 202.16099548339844,-95.96800231933594 C202.16099548339844,-95.96800231933594 47.16699981689453,-213.34500122070312 47.16699981689453,-213.34500122070312 C19.39900016784668,-234.3719940185547 -19.38800048828125,-234.37399291992188 -47.15800094604492,-213.34500122070312 C-47.15800094604492,-213.34500122070312 -202.1510009765625,-95.96800231933594 -202.1510009765625,-95.96800231933594 C-202.18499755859375,-95.94200134277344 -202.21400451660156,-95.91300201416016 -202.2480010986328,-95.88700103759766 C-202.36300659179688,-95.7979965209961 -202.47999572753906,-95.71199798583984 -202.59300231933594,-95.62000274658203 C-202.7530059814453,-95.48999786376953 -202.9010009765625,-95.34700012207031 -203.05499267578125,-95.21099853515625 C-203.06700134277344,-95.20099639892578 -203.07899475097656,-95.19000244140625 -203.09100341796875,-95.18000030517578 C-203.2169952392578,-95.06800079345703 -203.3459930419922,-94.95999908447266 -203.46800231933594,-94.84500122070312 C-203.552001953125,-94.76499938964844 -203.63800048828125,-94.68699645996094 -203.7209930419922,-94.6050033569336 C-203.8679962158203,-94.45899963378906 -204.0030059814453,-94.302001953125 -204.1439971923828,-94.1500015258789 C-204.29200744628906,-93.99199676513672 -204.4429931640625,-93.83599853515625 -204.58299255371094,-93.6729965209961 C-204.63600158691406,-93.61100006103516 -204.6929931640625,-93.552001953125 -204.7449951171875,-93.48899841308594 C-204.875,-93.33300018310547 -204.98899841308594,-93.16699981689453 -205.11300659179688,-93.00599670410156 C-205.26199340820312,-92.81199645996094 -205.41299438476562,-92.61799621582031 -205.552001953125,-92.41799926757812 C-205.70700073242188,-92.19599914550781 -205.8489990234375,-91.96499633789062 -205.99200439453125,-91.73400115966797 C-206.11199951171875,-91.54000091552734 -206.23699951171875,-91.3489990234375 -206.34800720214844,-91.1500015258789 C-206.39500427246094,-91.06600189208984 -206.44700622558594,-90.98400115966797 -206.4929962158203,-90.89900207519531 C-206.5290069580078,-90.83200073242188 -206.55599975585938,-90.76200103759766 -206.59100341796875,-90.69499969482422 C-206.64999389648438,-90.58100128173828 -206.7030029296875,-90.46299743652344 -206.75900268554688,-90.3479995727539 C-206.84500122070312,-90.1719970703125 -206.9340057373047,-89.99800109863281 -207.01300048828125,-89.81999969482422 C-207.0590057373047,-89.71600341796875 -207.11000061035156,-89.61499786376953 -207.1540069580078,-89.51000213623047 C-207.22999572753906,-89.3280029296875 -207.28700256347656,-89.14199829101562 -207.3560028076172,-88.95800018310547 C-207.36300659179688,-88.93900299072266 -207.3699951171875,-88.91799926757812 -207.3769989013672,-88.89900207519531 C-207.43499755859375,-88.74099731445312 -207.4980010986328,-88.58399963378906 -207.55099487304688,-88.42400360107422 C-207.58999633789062,-88.30599975585938 -207.63600158691406,-88.19100189208984 -207.6719970703125,-88.0719985961914 C-207.73899841308594,-87.85299682617188 -207.78599548339844,-87.63200378417969 -207.84300231933594,-87.41100311279297 C-207.8820037841797,-87.26000213623047 -207.9239959716797,-87.11000061035156 -207.95799255371094,-86.95899963378906 C-207.98599243164062,-86.83499908447266 -208.02200317382812,-86.71600341796875 -208.0469970703125,-86.59100341796875 C-208.09100341796875,-86.37000274658203 -208.11599731445312,-86.14800262451172 -208.1510009765625,-85.9260025024414 C-208.177001953125,-85.75900268554688 -208.20399475097656,-85.59300231933594 -208.22500610351562,-85.4260025024414 C-208.24000549316406,-85.30699920654297 -208.26499938964844,-85.19200134277344 -208.27699279785156,-85.0719985961914 C-208.2969970703125,-84.86900329589844 -208.2989959716797,-84.66500091552734 -208.31100463867188,-84.46199798583984 C-208.322998046875,-84.27200317382812 -208.33399963378906,-84.08300018310547 -208.33900451660156,-83.89299774169922 C-208.3419952392578,-83.75900268554688 -208.3560028076172,-83.625 -208.3560028076172,-83.49099731445312 C-208.3560028076172,-83.49099731445312 -208.3560028076172,151.0449981689453 -208.3560028076172,151.0449981689453 C-208.3560028076172,159.68800354003906 -201.35000610351562,166.69500732421875 -192.70599365234375,166.69500732421875 C-192.70599365234375,166.69500732421875 192.70399475097656,166.69500732421875 192.70399475097656,166.69500732421875 C201.34800720214844,166.69500732421875 208.35400390625,159.68800354003906 208.35400390625,151.0449981689453 C208.35400390625,151.0449981689453 208.35400390625,-83.36799621582031 208.35400390625,-83.36799621582031 C208.35499572753906,-83.50800323486328 208.3509979248047,-83.64600372314453 208.34800720214844,-83.78600311279297z M-28.261999130249023,-188.39300537109375 C-11.619999885559082,-200.99600219726562 11.626999855041504,-200.9969940185547 28.270999908447266,-188.39300537109375 C28.270999908447266,-188.39300537109375 165.83799743652344,-84.21399688720703 165.83799743652344,-84.21399688720703 C165.83799743652344,-84.21399688720703 0.0020000000949949026,27.917999267578125 0.0020000000949949026,27.917999267578125 C0.0020000000949949026,27.917999267578125 -165.83099365234375,-84.21199798583984 -165.83099365234375,-84.21199798583984 C-165.83099365234375,-84.21199798583984 -28.261999130249023,-188.39300537109375 -28.261999130249023,-188.39300537109375z M-177.05599975585938,135.39500427246094 C-177.05599975585938,135.39500427246094 -177.05599975585938,-54.01900100708008 -177.05599975585938,-54.01900100708008 C-177.05599975585938,-54.01900100708008 -8.763999938964844,59.77399826049805 -8.763999938964844,59.77399826049805 C-6.117000102996826,61.564998626708984 -3.058000087738037,62.45899963378906 0.0020000000949949026,62.45899963378906 C3.062000036239624,62.45899963378906 6.120999813079834,61.564998626708984 8.767999649047852,59.77399826049805 C8.767999649047852,59.77399826049805 177.0540008544922,-54.01499938964844 177.0540008544922,-54.01499938964844 C177.0540008544922,-54.01499938964844 177.0540008544922,135.39500427246094 177.0540008544922,135.39500427246094 C177.0540008544922,135.39500427246094 -177.05599975585938,135.39500427246094 -177.05599975585938,135.39500427246094z"></path></g></g><g class="primary design" style="display: none;" transform="matrix(1,0,0,1,250,250)" opacity="1"><g opacity="1" transform="matrix(1,0,0,1,0,0)"><path fill="rgb(255,255,255)" fill-opacity="1" d=" M208.3459930419922,-151.28700256347656 C208.34100341796875,-151.5679931640625 208.32200622558594,-151.8470001220703 208.30299377441406,-152.1269989013672 C208.28599548339844,-152.3699951171875 208.2729949951172,-152.61399841308594 208.2449951171875,-152.85400390625 C208.21600341796875,-153.10499572753906 208.1719970703125,-153.35400390625 208.13099670410156,-153.60299682617188 C208.08799743652344,-153.86399841308594 208.04800415039062,-154.12600708007812 207.99200439453125,-154.3820037841797 C207.94200134277344,-154.61099243164062 207.8769989013672,-154.83599853515625 207.81700134277344,-155.06300354003906 C207.7469940185547,-155.3280029296875 207.67999267578125,-155.593994140625 207.5959930419922,-155.85299682617188 C207.5229949951172,-156.0800018310547 207.43299865722656,-156.3040008544922 207.3489990234375,-156.5279998779297 C207.25599670410156,-156.77499389648438 207.16900634765625,-157.0240020751953 207.06399536132812,-157.26499938964844 C206.96200561523438,-157.5019989013672 206.84300231933594,-157.73199462890625 206.72799682617188,-157.96400451660156 C206.61900329589844,-158.18299865722656 206.51499938964844,-158.40499877929688 206.39700317382812,-158.6179962158203 C206.26699829101562,-158.8520050048828 206.12100219726562,-159.0780029296875 205.97900390625,-159.30599975585938 C205.8520050048828,-159.50999450683594 205.72900390625,-159.71600341796875 205.59300231933594,-159.91299438476562 C205.4459991455078,-160.125 205.28599548339844,-160.3300018310547 205.1280059814453,-160.53599548339844 C204.9720001220703,-160.74000549316406 204.81700134277344,-160.94500732421875 204.6510009765625,-161.14100646972656 C204.4969940185547,-161.322998046875 204.33099365234375,-161.4969940185547 204.16799926757812,-161.67300415039062 C203.9739990234375,-161.8820037841797 203.781005859375,-162.08900451660156 203.5760040283203,-162.28700256347656 C203.51699829101562,-162.343994140625 203.46600341796875,-162.406005859375 203.406005859375,-162.46200561523438 C203.2949981689453,-162.5659942626953 203.17599487304688,-162.65199279785156 203.06300354003906,-162.7519989013672 C202.84800720214844,-162.94200134277344 202.6320037841797,-163.12899780273438 202.40699768066406,-163.3070068359375 C202.2169952392578,-163.45799255371094 202.02200317382812,-163.60000610351562 201.82699584960938,-163.74099731445312 C201.61000061035156,-163.89700317382812 201.39199829101562,-164.0489959716797 201.16700744628906,-164.19400024414062 C200.95399475097656,-164.33099365234375 200.73800659179688,-164.46099853515625 200.52000427246094,-164.58700561523438 C200.2989959716797,-164.71499633789062 200.0760040283203,-164.83799743652344 199.84800720214844,-164.9550018310547 C199.6199951171875,-165.07200622558594 199.38999938964844,-165.1820068359375 199.1580047607422,-165.28700256347656 C198.92599487304688,-165.39199829101562 198.69200134277344,-165.49200439453125 198.45399475097656,-165.58599853515625 C198.218994140625,-165.6790008544922 197.98300170898438,-165.76499938964844 197.74400329589844,-165.8459930419922 C197.5,-165.9290008544922 197.2550048828125,-166.0070037841797 197.00599670410156,-166.0780029296875 C196.76300048828125,-166.14700317382812 196.51800537109375,-166.20899963378906 196.27200317382812,-166.26600646972656 C196.0229949951172,-166.32400512695312 195.7740020751953,-166.3780059814453 195.52099609375,-166.4239959716797 C195.26199340820312,-166.4709930419922 195.0019989013672,-166.50900268554688 194.74099731445312,-166.54299926757812 C194.49899291992188,-166.57400512695312 194.2570037841797,-166.60400390625 194.01100158691406,-166.62399291992188 C193.72900390625,-166.64700317382812 193.4459991455078,-166.65899658203125 193.16299438476562,-166.66700744628906 C193.00999450683594,-166.67100524902344 192.86199951171875,-166.69000244140625 192.70799255371094,-166.69000244140625 C192.70799255371094,-166.69000244140625 -192.7100067138672,-166.69000244140625 -192.7100067138672,-166.69000244140625 C-192.86000061035156,-166.69000244140625 -193.00599670410156,-166.67100524902344 -193.15499877929688,-166.66700744628906 C-193.44400024414062,-166.65899658203125 -193.73199462890625,-166.64700317382812 -194.02000427246094,-166.6230010986328 C-194.25999450683594,-166.60299682617188 -194.49600219726562,-166.5749969482422 -194.73300170898438,-166.54400634765625 C-195,-166.50900268554688 -195.26600646972656,-166.4709930419922 -195.531005859375,-166.42300415039062 C-195.7779998779297,-166.3780059814453 -196.0229949951172,-166.3249969482422 -196.26600646972656,-166.26800537109375 C-196.51699829101562,-166.2100067138672 -196.76600646972656,-166.14700317382812 -197.01499938964844,-166.0760040283203 C-197.25900268554688,-166.00599670410156 -197.49899291992188,-165.92999267578125 -197.73800659179688,-165.8489990234375 C-197.9810028076172,-165.76600646972656 -198.22300720214844,-165.6790008544922 -198.46299743652344,-165.58399963378906 C-198.6959991455078,-165.49200439453125 -198.9250030517578,-165.39300537109375 -199.1529998779297,-165.2899932861328 C-199.38999938964844,-165.18299865722656 -199.62399291992188,-165.0709991455078 -199.8560028076172,-164.95199584960938 C-200.0800018310547,-164.83700561523438 -200.2989959716797,-164.71600341796875 -200.51600646972656,-164.59100341796875 C-200.73800659179688,-164.46299743652344 -200.95700073242188,-164.33099365234375 -201.1739959716797,-164.1909942626953 C-201.39599609375,-164.04800415039062 -201.61099243164062,-163.8979949951172 -201.8249969482422,-163.74400329589844 C-202.0229949951172,-163.6020050048828 -202.21800231933594,-163.45899963378906 -202.41099548339844,-163.30599975585938 C-202.63499450683594,-163.12899780273438 -202.85000610351562,-162.94200134277344 -203.06399536132812,-162.7530059814453 C-203.177001953125,-162.6529998779297 -203.2969970703125,-162.5659942626953 -203.4080047607422,-162.46200561523438 C-203.46800231933594,-162.406005859375 -203.5189971923828,-162.343994140625 -203.5780029296875,-162.28700256347656 C-203.7830047607422,-162.08900451660156 -203.9759979248047,-161.8820037841797 -204.1699981689453,-161.67300415039062 C-204.33299255371094,-161.4969940185547 -204.49899291992188,-161.322998046875 -204.6529998779297,-161.14100646972656 C-204.81900024414062,-160.94500732421875 -204.9739990234375,-160.74000549316406 -205.1300048828125,-160.53599548339844 C-205.28799438476562,-160.3300018310547 -205.447998046875,-160.125 -205.59500122070312,-159.91299438476562 C-205.7310028076172,-159.71600341796875 -205.85400390625,-159.50999450683594 -205.9810028076172,-159.30599975585938 C-206.1230010986328,-159.0780029296875 -206.27000427246094,-158.8520050048828 -206.3990020751953,-158.6179962158203 C-206.51800537109375,-158.4040069580078 -206.62100219726562,-158.1820068359375 -206.72999572753906,-157.96200561523438 C-206.843994140625,-157.72999572753906 -206.96400451660156,-157.50100708007812 -207.0659942626953,-157.26499938964844 C-207.17100524902344,-157.0229949951172 -207.25900268554688,-156.7740020751953 -207.3520050048828,-156.5260009765625 C-207.43600463867188,-156.302001953125 -207.52499389648438,-156.0800018310547 -207.59800720214844,-155.85299682617188 C-207.6820068359375,-155.593994140625 -207.74899291992188,-155.3280029296875 -207.81900024414062,-155.06300354003906 C-207.87899780273438,-154.83599853515625 -207.94400024414062,-154.61099243164062 -207.99400329589844,-154.3820037841797 C-208.0500030517578,-154.12600708007812 -208.08999633789062,-153.86399841308594 -208.13299560546875,-153.60299682617188 C-208.1739959716797,-153.35400390625 -208.21800231933594,-153.10499572753906 -208.2469940185547,-152.85400390625 C-208.27499389648438,-152.61399841308594 -208.28799438476562,-152.3699951171875 -208.30499267578125,-152.1269989013672 C-208.32400512695312,-151.8470001220703 -208.34300231933594,-151.5679931640625 -208.34800720214844,-151.28700256347656 C-208.3489990234375,-151.20399475097656 -208.36000061035156,-151.12399291992188 -208.36000061035156,-151.0399932861328 C-208.36000061035156,-151.0399932861328 -208.36000061035156,151.0449981689453 -208.36000061035156,151.0449981689453 C-208.36000061035156,159.68800354003906 -201.35400390625,166.69500732421875 -192.7100067138672,166.69500732421875 C-192.7100067138672,166.69500732421875 192.70799255371094,166.69500732421875 192.70799255371094,166.69500732421875 C201.3520050048828,166.69500732421875 208.35800170898438,159.68800354003906 208.35800170898438,151.0449981689453 C208.35800170898438,151.0449981689453 208.35800170898438,-151.0399932861328 208.35800170898438,-151.0399932861328 C208.35800170898438,-151.12399291992188 208.3470001220703,-151.20399475097656 208.3459930419922,-151.28700256347656z M156.60800170898438,-135.38999938964844 C156.60800170898438,-135.38999938964844 33.91699981689453,-4.389999866485596 33.91699981689453,-4.389999866485596 C24.988000869750977,5.144000053405762 12.940999984741211,10.395000457763672 -0.0020000000949949026,10.395000457763672 C-12.944999694824219,10.395000457763672 -24.989999771118164,5.144000053405762 -33.91899871826172,-4.389999866485596 C-33.91899871826172,-4.389999866485596 -156.61000061035156,-135.38999938964844 -156.61000061035156,-135.38999938964844 C-156.61000061035156,-135.38999938964844 156.60800170898438,-135.38999938964844 156.60800170898438,-135.38999938964844z M-177.05999755859375,135.39500427246094 C-177.05999755859375,135.39500427246094 -177.05999755859375,-111.43499755859375 -177.05999755859375,-111.43499755859375 C-177.05999755859375,-111.43499755859375 -56.76499938964844,17.006000518798828 -56.76499938964844,17.006000518798828 C-41.85499954223633,32.92599868774414 -21.69499969482422,41.69499969482422 -0.0020000000949949026,41.69499969482422 C-0.0010000000474974513,41.69499969482422 -0.003000000026077032,41.69499969482422 -0.0010000000474974513,41.69499969482422 C21.69099998474121,41.69499969482422 41.85200119018555,32.92599868774414 56.76300048828125,17.006999969482422 C56.76300048828125,17.006999969482422 177.05799865722656,-111.43499755859375 177.05799865722656,-111.43499755859375 C177.05799865722656,-111.43499755859375 177.05799865722656,135.39500427246094 177.05799865722656,135.39500427246094 C177.05799865722656,135.39500427246094 -177.05999755859375,135.39500427246094 -177.05999755859375,135.39500427246094z"></path></g></g></g><g clip-path="url(#__lottie_element_70)" transform="matrix(1,0,0,1,0,0)" opacity="1" style="display: block;"><g class="primary design" style="display: none;" transform="matrix(1,0,0,1,249.99899291992188,317.82763671875)" opacity="1"><g opacity="1" transform="matrix(1,0,0,1,0,0)"><path stroke-linecap="round" stroke-linejoin="round" fill-opacity="0" stroke="rgb(255,255,255)" stroke-opacity="1" stroke-width="31.3" d=" M192.7050018310547,-117.26899719238281 C192.7050018310547,-117.26899719238281 192.7050018310547,117.26899719238281 192.7050018310547,117.26899719238281 C192.7050018310547,117.26899719238281 -192.7050018310547,117.26899719238281 -192.7050018310547,117.26899719238281 C-192.7050018310547,117.26899719238281 -192.7050018310547,-117.26899719238281 -192.7050018310547,-117.26899719238281"></path></g></g><g mask="url(#__lottie_element_92)" style="display: none;"><g class="primary design" transform="matrix(1,0,0,1,250.00399780273438,135.53562927246094)" opacity="1"><g opacity="1" transform="matrix(1,0,0,1,0,0)"><path stroke-linecap="round" stroke-linejoin="round" fill-opacity="0" stroke="rgb(255,255,255)" stroke-opacity="1" stroke-width="31.3" d=" M-192.70799255371094,65.02400207519531 C-192.70799255371094,65.02400207519531 -37.7140007019043,-52.35300064086914 -37.7140007019043,-52.35300064086914 C-15.404999732971191,-69.24800109863281 15.404999732971191,-69.24800109863281 37.7140007019043,-52.35300064086914 C37.7140007019043,-52.35300064086914 192.70799255371094,65.02400207519531 192.70799255371094,65.02400207519531"></path></g></g></g><g mask="url(#__lottie_element_85)" style="display: none;"><g class="primary design" transform="matrix(1,0,0,1,0,45.98701477050781)" opacity="1"><g opacity="1" transform="matrix(1,0,0,1,250.093994140625,218.2729949951172)"><path fill="rgb(255,255,255)" fill-opacity="1" d=" M151.09100341796875,177.3159942626953 C151.09100341796875,177.3159942626953 -151.09100341796875,177.3159942626953 -151.09100341796875,177.3159942626953 C-159.7169952392578,177.3159942626953 -166.71600341796875,170.31700134277344 -166.71600341796875,161.6909942626953 C-166.71600341796875,161.6909942626953 -166.71600341796875,-161.6909942626953 -166.71600341796875,-161.6909942626953 C-166.71600341796875,-170.31700134277344 -159.7169952392578,-177.3159942626953 -151.09100341796875,-177.3159942626953 C-151.09100341796875,-177.3159942626953 151.09100341796875,-177.3159942626953 151.09100341796875,-177.3159942626953 C159.7169952392578,-177.3159942626953 166.71600341796875,-170.31700134277344 166.71600341796875,-161.6909942626953 C166.71600341796875,-161.6909942626953 166.71600341796875,161.6909942626953 166.71600341796875,161.6909942626953 C166.71600341796875,170.31700134277344 159.7169952392578,177.3159942626953 151.09100341796875,177.3159942626953z M-135.46600341796875,146.0659942626953 C-135.46600341796875,146.0659942626953 135.46600341796875,146.0659942626953 135.46600341796875,146.0659942626953 C135.46600341796875,146.0659942626953 135.46600341796875,-146.0659942626953 135.46600341796875,-146.0659942626953 C135.46600341796875,-146.0659942626953 -135.46600341796875,-146.0659942626953 -135.46600341796875,-146.0659942626953 C-135.46600341796875,-146.0659942626953 -135.46600341796875,146.0659942626953 -135.46600341796875,146.0659942626953z"></path></g><g opacity="1" transform="matrix(1,0,0,1,249.7790069580078,131.11599731445312)"><path fill="rgb(255,255,255)" fill-opacity="1" d=" M78.91300201416016,14.836000442504883 C78.91300201416016,14.836000442504883 -78.91300201416016,14.836000442504883 -78.91300201416016,14.836000442504883 C-87.10399627685547,14.836000442504883 -93.7490005493164,8.190999984741211 -93.7490005493164,0 C-93.7490005493164,-8.190999984741211 -87.10399627685547,-14.836000442504883 -78.91300201416016,-14.836000442504883 C-78.91300201416016,-14.836000442504883 78.91300201416016,-14.836000442504883 78.91300201416016,-14.836000442504883 C87.10399627685547,-14.836000442504883 93.7490005493164,-8.190999984741211 93.7490005493164,0 C93.7490005493164,8.190999984741211 87.10399627685547,14.836000442504883 78.91300201416016,14.836000442504883z"></path></g><g opacity="1" transform="matrix(1,0,0,1,249.7790069580078,191.3260040283203)"><path fill="rgb(255,255,255)" fill-opacity="1" d=" M78.91300201416016,14.836000442504883 C78.91300201416016,14.836000442504883 -78.91300201416016,14.836000442504883 -78.91300201416016,14.836000442504883 C-87.10399627685547,14.836000442504883 -93.7490005493164,8.190999984741211 -93.7490005493164,0 C-93.7490005493164,-8.190999984741211 -87.10399627685547,-14.836000442504883 -78.91300201416016,-14.836000442504883 C-78.91300201416016,-14.836000442504883 78.91300201416016,-14.836000442504883 78.91300201416016,-14.836000442504883 C87.10399627685547,-14.836000442504883 93.7490005493164,-8.190999984741211 93.7490005493164,0 C93.7490005493164,8.190999984741211 87.10399627685547,14.836000442504883 78.91300201416016,14.836000442504883z"></path></g></g></g><g class="primary design" style="display: none;" transform="matrix(1,0,0,1,250.0019989013672,265.7096252441406)" opacity="1"><g opacity="1" transform="matrix(1,0,0,1,0,0)"><path stroke-linecap="round" stroke-linejoin="round" fill-opacity="0" stroke="rgb(255,255,255)" stroke-opacity="1" stroke-width="31.3" d=" M192.70799255371094,-65.1510009765625 C192.70799255371094,-65.1510009765625 0,65.1510009765625 0,65.1510009765625 C0,65.1510009765625 -192.70799255371094,-65.1510009765625 -192.70799255371094,-65.1510009765625"></path></g></g><g class="primary design" transform="matrix(1,0,0,1,250,250)" opacity="1" style="display: block;"><g opacity="1" transform="matrix(1,0,0,1,0,0)"><path fill="rgb(255,255,255)" fill-opacity="1" d=" M208.34800720214844,-83.78600311279297 C208.34300231933594,-84.05899810791016 208.3280029296875,-84.33200073242188 208.30799865722656,-84.6050033569336 C208.29100036621094,-84.84500122070312 208.27200317382812,-85.08300018310547 208.24400329589844,-85.3219985961914 C208.21400451660156,-85.572998046875 208.17599487304688,-85.8219985961914 208.13400268554688,-86.07099914550781 C208.0919952392578,-86.3219985961914 208.04800415039062,-86.5719985961914 207.99400329589844,-86.82099914550781 C207.94000244140625,-87.06900024414062 207.87600708007812,-87.31400299072266 207.80999755859375,-87.55899810791016 C207.75900268554688,-87.75 207.71400451660156,-87.94100189208984 207.65499877929688,-88.13099670410156 C207.63999938964844,-88.17900085449219 207.61900329589844,-88.22599792480469 207.60400390625,-88.27400207519531 C207.5189971923828,-88.54000091552734 207.4219970703125,-88.802001953125 207.32200622558594,-89.06400299072266 C207.25799560546875,-89.23100280761719 207.20199584960938,-89.39900207519531 207.1320037841797,-89.56400299072266 C207.11500549316406,-89.6050033569336 207.093994140625,-89.64399719238281 207.07699584960938,-89.68399810791016 C206.947998046875,-89.98300170898438 206.8040008544922,-90.2750015258789 206.656005859375,-90.56700134277344 C206.5919952392578,-90.69300079345703 206.53599548339844,-90.8219985961914 206.46800231933594,-90.9469985961914 C206.4530029296875,-90.9739990234375 206.43600463867188,-90.9990005493164 206.42100524902344,-91.0260009765625 C206.23800659179688,-91.35900115966797 206.03599548339844,-91.68399810791016 205.8280029296875,-92.00499725341797 C205.7740020751953,-92.08899688720703 205.7310028076172,-92.17500305175781 205.6750030517578,-92.25800323486328 C205.6540069580078,-92.28900146484375 205.6280059814453,-92.31700134277344 205.60699462890625,-92.3479995727539 C205.39300537109375,-92.65899658203125 205.16200256347656,-92.95999908447266 204.9239959716797,-93.25700378417969 C204.91400146484375,-93.26899719238281 204.90499877929688,-93.28199768066406 204.89500427246094,-93.29399871826172 C204.85400390625,-93.34500122070312 204.81900024414062,-93.4010009765625 204.77699279785156,-93.4520034790039 C204.72799682617188,-93.51100158691406 204.6790008544922,-93.56999969482422 204.62899780273438,-93.62799835205078 C204.4290008544922,-93.86199951171875 204.21400451660156,-94.08599853515625 203.99899291992188,-94.30999755859375 C203.96600341796875,-94.34500122070312 203.9340057373047,-94.38099670410156 203.9010009765625,-94.41500091552734 C203.8520050048828,-94.46600341796875 203.8070068359375,-94.52100372314453 203.7570037841797,-94.57099914550781 C203.677001953125,-94.6510009765625 203.59500122070312,-94.73100280761719 203.51300048828125,-94.80899810791016 C203.34500122070312,-94.96900177001953 203.16600036621094,-95.11900329589844 202.99000549316406,-95.27200317382812 C202.93499755859375,-95.31999969482422 202.88099670410156,-95.37100219726562 202.8249969482422,-95.41799926757812 C202.75900268554688,-95.4739990234375 202.697998046875,-95.53500366210938 202.63099670410156,-95.58999633789062 C202.5189971923828,-95.68199920654297 202.40499877929688,-95.77100372314453 202.29100036621094,-95.85900115966797 C202.24600219726562,-95.89399719238281 202.20700073242188,-95.93299865722656 202.16099548339844,-95.96800231933594 C202.16099548339844,-95.96800231933594 47.16699981689453,-213.34500122070312 47.16699981689453,-213.34500122070312 C19.39900016784668,-234.3719940185547 -19.38800048828125,-234.37399291992188 -47.15800094604492,-213.34500122070312 C-47.15800094604492,-213.34500122070312 -202.1510009765625,-95.96800231933594 -202.1510009765625,-95.96800231933594 C-202.18499755859375,-95.94200134277344 -202.21400451660156,-95.91300201416016 -202.2480010986328,-95.88700103759766 C-202.36300659179688,-95.7979965209961 -202.47999572753906,-95.71199798583984 -202.59300231933594,-95.62000274658203 C-202.7530059814453,-95.48999786376953 -202.9010009765625,-95.34700012207031 -203.05499267578125,-95.21099853515625 C-203.06700134277344,-95.20099639892578 -203.07899475097656,-95.19000244140625 -203.09100341796875,-95.18000030517578 C-203.2169952392578,-95.06800079345703 -203.3459930419922,-94.95999908447266 -203.46800231933594,-94.84500122070312 C-203.552001953125,-94.76499938964844 -203.63800048828125,-94.68699645996094 -203.7209930419922,-94.6050033569336 C-203.8679962158203,-94.45899963378906 -204.0030059814453,-94.302001953125 -204.1439971923828,-94.1500015258789 C-204.29200744628906,-93.99199676513672 -204.4429931640625,-93.83599853515625 -204.58299255371094,-93.6729965209961 C-204.63600158691406,-93.61100006103516 -204.6929931640625,-93.552001953125 -204.7449951171875,-93.48899841308594 C-204.875,-93.33300018310547 -204.98899841308594,-93.16699981689453 -205.11300659179688,-93.00599670410156 C-205.26199340820312,-92.81199645996094 -205.41299438476562,-92.61799621582031 -205.552001953125,-92.41799926757812 C-205.70700073242188,-92.19599914550781 -205.8489990234375,-91.96499633789062 -205.99200439453125,-91.73400115966797 C-206.11199951171875,-91.54000091552734 -206.23699951171875,-91.3489990234375 -206.34800720214844,-91.1500015258789 C-206.39500427246094,-91.06600189208984 -206.44700622558594,-90.98400115966797 -206.4929962158203,-90.89900207519531 C-206.5290069580078,-90.83200073242188 -206.55599975585938,-90.76200103759766 -206.59100341796875,-90.69499969482422 C-206.64999389648438,-90.58100128173828 -206.7030029296875,-90.46299743652344 -206.75900268554688,-90.3479995727539 C-206.84500122070312,-90.1719970703125 -206.9340057373047,-89.99800109863281 -207.01300048828125,-89.81999969482422 C-207.0590057373047,-89.71600341796875 -207.11000061035156,-89.61499786376953 -207.1540069580078,-89.51000213623047 C-207.22999572753906,-89.3280029296875 -207.28700256347656,-89.14199829101562 -207.3560028076172,-88.95800018310547 C-207.36300659179688,-88.93900299072266 -207.3699951171875,-88.91799926757812 -207.3769989013672,-88.89900207519531 C-207.43499755859375,-88.74099731445312 -207.4980010986328,-88.58399963378906 -207.55099487304688,-88.42400360107422 C-207.58999633789062,-88.30599975585938 -207.63600158691406,-88.19100189208984 -207.6719970703125,-88.0719985961914 C-207.73899841308594,-87.85299682617188 -207.78599548339844,-87.63200378417969 -207.84300231933594,-87.41100311279297 C-207.8820037841797,-87.26000213623047 -207.9239959716797,-87.11000061035156 -207.95799255371094,-86.95899963378906 C-207.98599243164062,-86.83499908447266 -208.02200317382812,-86.71600341796875 -208.0469970703125,-86.59100341796875 C-208.09100341796875,-86.37000274658203 -208.11599731445312,-86.14800262451172 -208.1510009765625,-85.9260025024414 C-208.177001953125,-85.75900268554688 -208.20399475097656,-85.59300231933594 -208.22500610351562,-85.4260025024414 C-208.24000549316406,-85.30699920654297 -208.26499938964844,-85.19200134277344 -208.27699279785156,-85.0719985961914 C-208.2969970703125,-84.86900329589844 -208.2989959716797,-84.66500091552734 -208.31100463867188,-84.46199798583984 C-208.322998046875,-84.27200317382812 -208.33399963378906,-84.08300018310547 -208.33900451660156,-83.89299774169922 C-208.3419952392578,-83.75900268554688 -208.3560028076172,-83.625 -208.3560028076172,-83.49099731445312 C-208.3560028076172,-83.49099731445312 -208.3560028076172,151.0449981689453 -208.3560028076172,151.0449981689453 C-208.3560028076172,159.68800354003906 -201.35000610351562,166.69500732421875 -192.70599365234375,166.69500732421875 C-192.70599365234375,166.69500732421875 192.70399475097656,166.69500732421875 192.70399475097656,166.69500732421875 C201.34800720214844,166.69500732421875 208.35400390625,159.68800354003906 208.35400390625,151.0449981689453 C208.35400390625,151.0449981689453 208.35400390625,-83.36799621582031 208.35400390625,-83.36799621582031 C208.35499572753906,-83.50800323486328 208.3509979248047,-83.64600372314453 208.34800720214844,-83.78600311279297z M-28.261999130249023,-188.39300537109375 C-11.619999885559082,-200.99600219726562 11.626999855041504,-200.9969940185547 28.270999908447266,-188.39300537109375 C28.270999908447266,-188.39300537109375 165.83799743652344,-84.21399688720703 165.83799743652344,-84.21399688720703 C165.83799743652344,-84.21399688720703 0.0020000000949949026,27.917999267578125 0.0020000000949949026,27.917999267578125 C0.0020000000949949026,27.917999267578125 -165.83099365234375,-84.21199798583984 -165.83099365234375,-84.21199798583984 C-165.83099365234375,-84.21199798583984 -28.261999130249023,-188.39300537109375 -28.261999130249023,-188.39300537109375z M-177.05599975585938,135.39500427246094 C-177.05599975585938,135.39500427246094 -177.05599975585938,-54.01900100708008 -177.05599975585938,-54.01900100708008 C-177.05599975585938,-54.01900100708008 -8.763999938964844,59.77399826049805 -8.763999938964844,59.77399826049805 C-6.117000102996826,61.564998626708984 -3.058000087738037,62.45899963378906 0.0020000000949949026,62.45899963378906 C3.062000036239624,62.45899963378906 6.120999813079834,61.564998626708984 8.767999649047852,59.77399826049805 C8.767999649047852,59.77399826049805 177.0540008544922,-54.01499938964844 177.0540008544922,-54.01499938964844 C177.0540008544922,-54.01499938964844 177.0540008544922,135.39500427246094 177.0540008544922,135.39500427246094 C177.0540008544922,135.39500427246094 -177.05599975585938,135.39500427246094 -177.05599975585938,135.39500427246094z"></path></g></g><g class="primary design" style="display: none;" transform="matrix(1,0,0,1,250,250)" opacity="1"><g opacity="1" transform="matrix(1,0,0,1,0,0)"><path fill="rgb(255,255,255)" fill-opacity="1" d=" M208.34800720214844,-83.78600311279297 C208.34300231933594,-84.05899810791016 208.3280029296875,-84.33200073242188 208.30799865722656,-84.6050033569336 C208.29100036621094,-84.84500122070312 208.27200317382812,-85.08300018310547 208.24400329589844,-85.3219985961914 C208.21400451660156,-85.572998046875 208.17599487304688,-85.8219985961914 208.13400268554688,-86.07099914550781 C208.0919952392578,-86.3219985961914 208.04800415039062,-86.5719985961914 207.99400329589844,-86.82099914550781 C207.94000244140625,-87.06900024414062 207.87600708007812,-87.31400299072266 207.80999755859375,-87.55899810791016 C207.75900268554688,-87.75 207.71400451660156,-87.94100189208984 207.65499877929688,-88.13099670410156 C207.63999938964844,-88.17900085449219 207.61900329589844,-88.22599792480469 207.60400390625,-88.27400207519531 C207.5189971923828,-88.54000091552734 207.4219970703125,-88.802001953125 207.32200622558594,-89.06400299072266 C207.25799560546875,-89.23100280761719 207.20199584960938,-89.39900207519531 207.1320037841797,-89.56400299072266 C207.11500549316406,-89.6050033569336 207.093994140625,-89.64399719238281 207.07699584960938,-89.68399810791016 C206.947998046875,-89.98300170898438 206.8040008544922,-90.2750015258789 206.656005859375,-90.56700134277344 C206.5919952392578,-90.69300079345703 206.53599548339844,-90.8219985961914 206.46800231933594,-90.9469985961914 C206.4530029296875,-90.9739990234375 206.43600463867188,-90.9990005493164 206.42100524902344,-91.0260009765625 C206.23800659179688,-91.35900115966797 206.03599548339844,-91.68399810791016 205.8280029296875,-92.00499725341797 C205.7740020751953,-92.08899688720703 205.7310028076172,-92.17500305175781 205.6750030517578,-92.25800323486328 C205.6540069580078,-92.28900146484375 205.6280059814453,-92.31700134277344 205.60699462890625,-92.3479995727539 C205.39300537109375,-92.65899658203125 205.16200256347656,-92.95999908447266 204.9239959716797,-93.25700378417969 C204.91400146484375,-93.26899719238281 204.90499877929688,-93.28199768066406 204.89500427246094,-93.29399871826172 C204.85400390625,-93.34500122070312 204.81900024414062,-93.4010009765625 204.77699279785156,-93.4520034790039 C204.72799682617188,-93.51100158691406 204.6790008544922,-93.56999969482422 204.62899780273438,-93.62799835205078 C204.4290008544922,-93.86199951171875 204.21400451660156,-94.08599853515625 203.99899291992188,-94.30999755859375 C203.96600341796875,-94.34500122070312 203.9340057373047,-94.38099670410156 203.9010009765625,-94.41500091552734 C203.8520050048828,-94.46600341796875 203.8070068359375,-94.52100372314453 203.7570037841797,-94.57099914550781 C203.677001953125,-94.6510009765625 203.59500122070312,-94.73100280761719 203.51300048828125,-94.80899810791016 C203.34500122070312,-94.96900177001953 203.16600036621094,-95.11900329589844 202.99000549316406,-95.27200317382812 C202.93499755859375,-95.31999969482422 202.88099670410156,-95.37100219726562 202.8249969482422,-95.41799926757812 C202.75900268554688,-95.4739990234375 202.697998046875,-95.53500366210938 202.63099670410156,-95.58999633789062 C202.5189971923828,-95.68199920654297 202.40499877929688,-95.77100372314453 202.29100036621094,-95.85900115966797 C202.24600219726562,-95.89399719238281 202.20700073242188,-95.93299865722656 202.16099548339844,-95.96800231933594 C202.16099548339844,-95.96800231933594 47.16699981689453,-213.34500122070312 47.16699981689453,-213.34500122070312 C19.39900016784668,-234.3719940185547 -19.38800048828125,-234.37399291992188 -47.15800094604492,-213.34500122070312 C-47.15800094604492,-213.34500122070312 -202.1510009765625,-95.96800231933594 -202.1510009765625,-95.96800231933594 C-202.18499755859375,-95.94200134277344 -202.21400451660156,-95.91300201416016 -202.2480010986328,-95.88700103759766 C-202.36300659179688,-95.7979965209961 -202.47999572753906,-95.71199798583984 -202.59300231933594,-95.62000274658203 C-202.7530059814453,-95.48999786376953 -202.9010009765625,-95.34700012207031 -203.05499267578125,-95.21099853515625 C-203.06700134277344,-95.20099639892578 -203.07899475097656,-95.19000244140625 -203.09100341796875,-95.18000030517578 C-203.2169952392578,-95.06800079345703 -203.3459930419922,-94.95999908447266 -203.46800231933594,-94.84500122070312 C-203.552001953125,-94.76499938964844 -203.63800048828125,-94.68699645996094 -203.7209930419922,-94.6050033569336 C-203.8679962158203,-94.45899963378906 -204.0030059814453,-94.302001953125 -204.1439971923828,-94.1500015258789 C-204.29200744628906,-93.99199676513672 -204.4429931640625,-93.83599853515625 -204.58299255371094,-93.6729965209961 C-204.63600158691406,-93.61100006103516 -204.6929931640625,-93.552001953125 -204.7449951171875,-93.48899841308594 C-204.875,-93.33300018310547 -204.98899841308594,-93.16699981689453 -205.11300659179688,-93.00599670410156 C-205.26199340820312,-92.81199645996094 -205.41299438476562,-92.61799621582031 -205.552001953125,-92.41799926757812 C-205.70700073242188,-92.19599914550781 -205.8489990234375,-91.96499633789062 -205.99200439453125,-91.73400115966797 C-206.11199951171875,-91.54000091552734 -206.23699951171875,-91.3489990234375 -206.34800720214844,-91.1500015258789 C-206.39500427246094,-91.06600189208984 -206.44700622558594,-90.98400115966797 -206.4929962158203,-90.89900207519531 C-206.5290069580078,-90.83200073242188 -206.55599975585938,-90.76200103759766 -206.59100341796875,-90.69499969482422 C-206.64999389648438,-90.58100128173828 -206.7030029296875,-90.46299743652344 -206.75900268554688,-90.3479995727539 C-206.84500122070312,-90.1719970703125 -206.9340057373047,-89.99800109863281 -207.01300048828125,-89.81999969482422 C-207.0590057373047,-89.71600341796875 -207.11000061035156,-89.61499786376953 -207.1540069580078,-89.51000213623047 C-207.22999572753906,-89.3280029296875 -207.28700256347656,-89.14199829101562 -207.3560028076172,-88.95800018310547 C-207.36300659179688,-88.93900299072266 -207.3699951171875,-88.91799926757812 -207.3769989013672,-88.89900207519531 C-207.43499755859375,-88.74099731445312 -207.4980010986328,-88.58399963378906 -207.55099487304688,-88.42400360107422 C-207.58999633789062,-88.30599975585938 -207.63600158691406,-88.19100189208984 -207.6719970703125,-88.0719985961914 C-207.73899841308594,-87.85299682617188 -207.78599548339844,-87.63200378417969 -207.84300231933594,-87.41100311279297 C-207.8820037841797,-87.26000213623047 -207.9239959716797,-87.11000061035156 -207.95799255371094,-86.95899963378906 C-207.98599243164062,-86.83499908447266 -208.02200317382812,-86.71600341796875 -208.0469970703125,-86.59100341796875 C-208.09100341796875,-86.37000274658203 -208.11599731445312,-86.14800262451172 -208.1510009765625,-85.9260025024414 C-208.177001953125,-85.75900268554688 -208.20399475097656,-85.59300231933594 -208.22500610351562,-85.4260025024414 C-208.24000549316406,-85.30699920654297 -208.26499938964844,-85.19200134277344 -208.27699279785156,-85.0719985961914 C-208.2969970703125,-84.86900329589844 -208.2989959716797,-84.66500091552734 -208.31100463867188,-84.46199798583984 C-208.322998046875,-84.27200317382812 -208.33399963378906,-84.08300018310547 -208.33900451660156,-83.89299774169922 C-208.3419952392578,-83.75900268554688 -208.3560028076172,-83.625 -208.3560028076172,-83.49099731445312 C-208.3560028076172,-83.49099731445312 -208.3560028076172,151.0449981689453 -208.3560028076172,151.0449981689453 C-208.3560028076172,159.68800354003906 -201.35000610351562,166.69500732421875 -192.70599365234375,166.69500732421875 C-192.70599365234375,166.69500732421875 192.70399475097656,166.69500732421875 192.70399475097656,166.69500732421875 C201.34800720214844,166.69500732421875 208.35400390625,159.68800354003906 208.35400390625,151.0449981689453 C208.35400390625,151.0449981689453 208.35400390625,-83.36799621582031 208.35400390625,-83.36799621582031 C208.35499572753906,-83.50800323486328 208.3509979248047,-83.64600372314453 208.34800720214844,-83.78600311279297z M-28.261999130249023,-188.39300537109375 C-11.619999885559082,-200.99600219726562 11.626999855041504,-200.9969940185547 28.270999908447266,-188.39300537109375 C28.270999908447266,-188.39300537109375 165.83799743652344,-84.21399688720703 165.83799743652344,-84.21399688720703 C165.83799743652344,-84.21399688720703 0.0020000000949949026,27.917999267578125 0.0020000000949949026,27.917999267578125 C0.0020000000949949026,27.917999267578125 -165.83099365234375,-84.21199798583984 -165.83099365234375,-84.21199798583984 C-165.83099365234375,-84.21199798583984 -28.261999130249023,-188.39300537109375 -28.261999130249023,-188.39300537109375z M-177.05599975585938,135.39500427246094 C-177.05599975585938,135.39500427246094 -177.05599975585938,-54.01900100708008 -177.05599975585938,-54.01900100708008 C-177.05599975585938,-54.01900100708008 -8.763999938964844,59.77399826049805 -8.763999938964844,59.77399826049805 C-6.117000102996826,61.564998626708984 -3.058000087738037,62.45899963378906 0.0020000000949949026,62.45899963378906 C3.062000036239624,62.45899963378906 6.120999813079834,61.564998626708984 8.767999649047852,59.77399826049805 C8.767999649047852,59.77399826049805 177.0540008544922,-54.01499938964844 177.0540008544922,-54.01499938964844 C177.0540008544922,-54.01499938964844 177.0540008544922,135.39500427246094 177.0540008544922,135.39500427246094 C177.0540008544922,135.39500427246094 -177.05599975585938,135.39500427246094 -177.05599975585938,135.39500427246094z"></path></g></g></g><g clip-path="url(#__lottie_element_54)" transform="matrix(1,0,0,1,0,0)" opacity="0" style="display: block;"><g class="primary design" style="display: none;" transform="matrix(1,0,0,1,249.99899291992188,308.3631896972656)" opacity="1"><g opacity="1" transform="matrix(1,0,0,1,0,0)"><path stroke-linecap="round" stroke-linejoin="round" fill-opacity="0" stroke="rgb(255,255,255)" stroke-opacity="1" stroke-width="31.3" d=" M192.99899291992188,-132.69749450683594 C192.99899291992188,-132.69749450683594 192.7050018310547,110.24408721923828 192.7050018310547,110.24408721923828 C192.7050018310547,110.24408721923828 -192.7050018310547,110.24408721923828 -192.7050018310547,110.24408721923828 C-192.7050018310547,110.24408721923828 -192.41099548339844,-132.69749450683594 -192.41099548339844,-132.69749450683594"></path></g><g opacity="1" transform="matrix(1,0,0,1,0,0)"><path stroke-linecap="round" stroke-linejoin="round" fill-opacity="0" stroke="rgb(255,255,255)" stroke-opacity="1" stroke-width="31.3" d=" M79.99175262451172,-135.87290954589844 C79.99175262451172,-135.87290954589844 -79.40274810791016,-135.87290954589844 -79.40274810791016,-135.87290954589844"></path></g></g><g class="primary design" style="display: none;" transform="matrix(1,0,0,1,250.00399780273438,126.07118225097656)" opacity="1"><g opacity="1" transform="matrix(1,0,0,1,0,0)"><path stroke-linecap="round" stroke-linejoin="round" fill-opacity="0" stroke="rgb(255,255,255)" stroke-opacity="1" stroke-width="31.3" d=" M-191.34249877929688,45.24178695678711 C-137.3068389892578,-5.675809383392334 -40.547523498535156,71.9159164428711 -40.547523498535156,71.9159164428711 C-16.562253952026367,93.14910888671875 16.562253952026367,93.14910888671875 40.547523498535156,71.9159164428711 C40.547523498535156,71.9159164428711 138.88851928710938,-6.471421718597412 193.1459503173828,48.218379974365234"></path></g></g><g class="primary design" style="display: none;" transform="matrix(1,0,0,1,250.0019989013672,231.65899658203125)" opacity="1"><g opacity="1" transform="matrix(1,0,0,1,0,0)"><path stroke-linecap="round" stroke-linejoin="round" fill-opacity="0" stroke="rgb(255,255,255)" stroke-opacity="1" stroke-width="31.3" d=" M192.62600708007812,-54.047000885009766 C192.62600708007812,-54.047000885009766 3.3529999256134033,80.31600189208984 -0.11599999666213989,82.77799987792969"></path></g><g opacity="1" transform="matrix(1,0,0,1,0,0)"><path stroke-linecap="round" stroke-linejoin="round" fill-opacity="0" stroke="rgb(255,255,255)" stroke-opacity="1" stroke-width="31.3" d=" M-192.79039001464844,-54.046592712402344 C-192.79039001464844,-54.046592712402344 -0.1638995110988617,82.812255859375 -0.1638995110988617,82.812255859375 C-0.164000004529953,82.81199645996094 -0.164000004529953,82.81199645996094 -0.164000004529953,82.81199645996094"></path></g></g><g class="primary design" style="display: none;" transform="matrix(1,0,0,1,250,250)" opacity="1"><g opacity="1" transform="matrix(1,0,0,1,0,0)"><path fill="rgb(255,255,255)" fill-opacity="1" d=" M208.34800720214844,-83.78600311279297 C208.34300231933594,-84.05899810791016 208.3280029296875,-84.33200073242188 208.30799865722656,-84.6050033569336 C208.29100036621094,-84.84500122070312 208.27200317382812,-85.08300018310547 208.24400329589844,-85.3219985961914 C208.21400451660156,-85.572998046875 208.17599487304688,-85.8219985961914 208.13400268554688,-86.07099914550781 C208.0919952392578,-86.3219985961914 208.04800415039062,-86.5719985961914 207.99400329589844,-86.82099914550781 C207.94000244140625,-87.06900024414062 207.87600708007812,-87.31400299072266 207.80999755859375,-87.55899810791016 C207.75900268554688,-87.75 207.71400451660156,-87.94100189208984 207.65499877929688,-88.13099670410156 C207.63999938964844,-88.17900085449219 207.61900329589844,-88.22599792480469 207.60400390625,-88.27400207519531 C207.5189971923828,-88.54000091552734 207.4219970703125,-88.802001953125 207.32200622558594,-89.06400299072266 C207.25799560546875,-89.23100280761719 207.20199584960938,-89.39900207519531 207.1320037841797,-89.56400299072266 C207.11500549316406,-89.6050033569336 207.093994140625,-89.64399719238281 207.07699584960938,-89.68399810791016 C206.947998046875,-89.98300170898438 206.8040008544922,-90.2750015258789 206.656005859375,-90.56700134277344 C206.5919952392578,-90.69300079345703 206.53599548339844,-90.8219985961914 206.46800231933594,-90.9469985961914 C206.4530029296875,-90.9739990234375 206.43600463867188,-90.9990005493164 206.42100524902344,-91.0260009765625 C206.23800659179688,-91.35900115966797 206.03599548339844,-91.68399810791016 205.8280029296875,-92.00499725341797 C205.7740020751953,-92.08899688720703 205.7310028076172,-92.17500305175781 205.6750030517578,-92.25800323486328 C205.6540069580078,-92.28900146484375 205.6280059814453,-92.31700134277344 205.60699462890625,-92.3479995727539 C205.39300537109375,-92.65899658203125 205.16200256347656,-92.95999908447266 204.9239959716797,-93.25700378417969 C204.91400146484375,-93.26899719238281 204.90499877929688,-93.28199768066406 204.89500427246094,-93.29399871826172 C204.85400390625,-93.34500122070312 204.81900024414062,-93.4010009765625 204.77699279785156,-93.4520034790039 C204.72799682617188,-93.51100158691406 204.6790008544922,-93.56999969482422 204.62899780273438,-93.62799835205078 C204.4290008544922,-93.86199951171875 204.21400451660156,-94.08599853515625 203.99899291992188,-94.30999755859375 C203.96600341796875,-94.34500122070312 203.9340057373047,-94.38099670410156 203.9010009765625,-94.41500091552734 C203.8520050048828,-94.46600341796875 203.8070068359375,-94.52100372314453 203.7570037841797,-94.57099914550781 C203.677001953125,-94.6510009765625 203.59500122070312,-94.73100280761719 203.51300048828125,-94.80899810791016 C203.34500122070312,-94.96900177001953 203.16600036621094,-95.11900329589844 202.99000549316406,-95.27200317382812 C202.93499755859375,-95.31999969482422 202.88099670410156,-95.37100219726562 202.8249969482422,-95.41799926757812 C202.75900268554688,-95.4739990234375 202.697998046875,-95.53500366210938 202.63099670410156,-95.58999633789062 C202.5189971923828,-95.68199920654297 202.40499877929688,-95.77100372314453 202.29100036621094,-95.85900115966797 C202.24600219726562,-95.89399719238281 202.20700073242188,-95.93299865722656 202.16099548339844,-95.96800231933594 C202.16099548339844,-95.96800231933594 47.16699981689453,-213.34500122070312 47.16699981689453,-213.34500122070312 C19.39900016784668,-234.3719940185547 -19.38800048828125,-234.37399291992188 -47.15800094604492,-213.34500122070312 C-47.15800094604492,-213.34500122070312 -202.1510009765625,-95.96800231933594 -202.1510009765625,-95.96800231933594 C-202.18499755859375,-95.94200134277344 -202.21400451660156,-95.91300201416016 -202.2480010986328,-95.88700103759766 C-202.36300659179688,-95.7979965209961 -202.47999572753906,-95.71199798583984 -202.59300231933594,-95.62000274658203 C-202.7530059814453,-95.48999786376953 -202.9010009765625,-95.34700012207031 -203.05499267578125,-95.21099853515625 C-203.06700134277344,-95.20099639892578 -203.07899475097656,-95.19000244140625 -203.09100341796875,-95.18000030517578 C-203.2169952392578,-95.06800079345703 -203.3459930419922,-94.95999908447266 -203.46800231933594,-94.84500122070312 C-203.552001953125,-94.76499938964844 -203.63800048828125,-94.68699645996094 -203.7209930419922,-94.6050033569336 C-203.8679962158203,-94.45899963378906 -204.0030059814453,-94.302001953125 -204.1439971923828,-94.1500015258789 C-204.29200744628906,-93.99199676513672 -204.4429931640625,-93.83599853515625 -204.58299255371094,-93.6729965209961 C-204.63600158691406,-93.61100006103516 -204.6929931640625,-93.552001953125 -204.7449951171875,-93.48899841308594 C-204.875,-93.33300018310547 -204.98899841308594,-93.16699981689453 -205.11300659179688,-93.00599670410156 C-205.26199340820312,-92.81199645996094 -205.41299438476562,-92.61799621582031 -205.552001953125,-92.41799926757812 C-205.70700073242188,-92.19599914550781 -205.8489990234375,-91.96499633789062 -205.99200439453125,-91.73400115966797 C-206.11199951171875,-91.54000091552734 -206.23699951171875,-91.3489990234375 -206.34800720214844,-91.1500015258789 C-206.39500427246094,-91.06600189208984 -206.44700622558594,-90.98400115966797 -206.4929962158203,-90.89900207519531 C-206.5290069580078,-90.83200073242188 -206.55599975585938,-90.76200103759766 -206.59100341796875,-90.69499969482422 C-206.64999389648438,-90.58100128173828 -206.7030029296875,-90.46299743652344 -206.75900268554688,-90.3479995727539 C-206.84500122070312,-90.1719970703125 -206.9340057373047,-89.99800109863281 -207.01300048828125,-89.81999969482422 C-207.0590057373047,-89.71600341796875 -207.11000061035156,-89.61499786376953 -207.1540069580078,-89.51000213623047 C-207.22999572753906,-89.3280029296875 -207.28700256347656,-89.14199829101562 -207.3560028076172,-88.95800018310547 C-207.36300659179688,-88.93900299072266 -207.3699951171875,-88.91799926757812 -207.3769989013672,-88.89900207519531 C-207.43499755859375,-88.74099731445312 -207.4980010986328,-88.58399963378906 -207.55099487304688,-88.42400360107422 C-207.58999633789062,-88.30599975585938 -207.63600158691406,-88.19100189208984 -207.6719970703125,-88.0719985961914 C-207.73899841308594,-87.85299682617188 -207.78599548339844,-87.63200378417969 -207.84300231933594,-87.41100311279297 C-207.8820037841797,-87.26000213623047 -207.9239959716797,-87.11000061035156 -207.95799255371094,-86.95899963378906 C-207.98599243164062,-86.83499908447266 -208.02200317382812,-86.71600341796875 -208.0469970703125,-86.59100341796875 C-208.09100341796875,-86.37000274658203 -208.11599731445312,-86.14800262451172 -208.1510009765625,-85.9260025024414 C-208.177001953125,-85.75900268554688 -208.20399475097656,-85.59300231933594 -208.22500610351562,-85.4260025024414 C-208.24000549316406,-85.30699920654297 -208.26499938964844,-85.19200134277344 -208.27699279785156,-85.0719985961914 C-208.2969970703125,-84.86900329589844 -208.2989959716797,-84.66500091552734 -208.31100463867188,-84.46199798583984 C-208.322998046875,-84.27200317382812 -208.33399963378906,-84.08300018310547 -208.33900451660156,-83.89299774169922 C-208.3419952392578,-83.75900268554688 -208.3560028076172,-83.625 -208.3560028076172,-83.49099731445312 C-208.3560028076172,-83.49099731445312 -208.3560028076172,151.0449981689453 -208.3560028076172,151.0449981689453 C-208.3560028076172,159.68800354003906 -201.35000610351562,166.69500732421875 -192.70599365234375,166.69500732421875 C-192.70599365234375,166.69500732421875 192.70399475097656,166.69500732421875 192.70399475097656,166.69500732421875 C201.34800720214844,166.69500732421875 208.35400390625,159.68800354003906 208.35400390625,151.0449981689453 C208.35400390625,151.0449981689453 208.35400390625,-83.36799621582031 208.35400390625,-83.36799621582031 C208.35499572753906,-83.50800323486328 208.3509979248047,-83.64600372314453 208.34800720214844,-83.78600311279297z M-28.261999130249023,-188.39300537109375 C-11.619999885559082,-200.99600219726562 11.626999855041504,-200.9969940185547 28.270999908447266,-188.39300537109375 C28.270999908447266,-188.39300537109375 165.83799743652344,-84.21399688720703 165.83799743652344,-84.21399688720703 C165.83799743652344,-84.21399688720703 0.0020000000949949026,27.917999267578125 0.0020000000949949026,27.917999267578125 C0.0020000000949949026,27.917999267578125 -165.83099365234375,-84.21199798583984 -165.83099365234375,-84.21199798583984 C-165.83099365234375,-84.21199798583984 -28.261999130249023,-188.39300537109375 -28.261999130249023,-188.39300537109375z M-177.05599975585938,135.39500427246094 C-177.05599975585938,135.39500427246094 -177.05599975585938,-54.01900100708008 -177.05599975585938,-54.01900100708008 C-177.05599975585938,-54.01900100708008 -8.763999938964844,59.77399826049805 -8.763999938964844,59.77399826049805 C-6.117000102996826,61.564998626708984 -3.058000087738037,62.45899963378906 0.0020000000949949026,62.45899963378906 C3.062000036239624,62.45899963378906 6.120999813079834,61.564998626708984 8.767999649047852,59.77399826049805 C8.767999649047852,59.77399826049805 177.0540008544922,-54.01499938964844 177.0540008544922,-54.01499938964844 C177.0540008544922,-54.01499938964844 177.0540008544922,135.39500427246094 177.0540008544922,135.39500427246094 C177.0540008544922,135.39500427246094 -177.05599975585938,135.39500427246094 -177.05599975585938,135.39500427246094z"></path></g></g></g><g class="com" style="display: none;"><g><path></path></g><g><path></path></g><g><path></path></g><g><path></path></g><g><path></path></g><g><path></path></g><g><path></path></g><g><path></path></g><g><path></path></g><g><path></path></g><g><path></path></g><g><path></path></g></g></g></svg>