<svg xmlns="http://www.w3.org/2000/svg" viewBox="0 0 500 500" width="500" height="500" preserveAspectRatio="xMidYMid meet" style="width: 100%; height: 100%; transform: translate3d(0px, 0px, 0px); content-visibility: visible;"><defs><clipPath id="__lottie_element_758"><rect width="500" height="500" x="0" y="0"></rect></clipPath><clipPath id="__lottie_element_765"><path d="M0,0 L500,0 L500,500 L0,500z"></path></clipPath><clipPath id="__lottie_element_778"><path d="M0,0 L500,0 L500,500 L0,500z"></path></clipPath><mask id="__lottie_element_784" mask-type="alpha"><g class="primary design" transform="matrix(1,0,0,1,250,250)" opacity="1" style="display: block;"><g opacity="1" transform="matrix(1,0,0,1,2,-17)"><path fill="rgb(18,19,49)" fill-opacity="1" d=" M237,-177 C237,-177 237,177 237,177 C237,177 -237,177 -237,177 C-237,177 -237,-177 -237,-177 C-237,-177 237,-177 237,-177z"></path><path stroke-linecap="butt" stroke-linejoin="miter" fill-opacity="0" stroke-miterlimit="4" stroke="rgb(18,19,49)" stroke-opacity="1" stroke-width="0" d=" M237,-177 C237,-177 237,177 237,177 C237,177 -237,177 -237,177 C-237,177 -237,-177 -237,-177 C-237,-177 237,-177 237,-177z"></path></g></g></mask></defs><g clip-path="url(#__lottie_element_758)"><g clip-path="url(#__lottie_element_778)" transform="matrix(1,0,0,1,0,0)" opacity="1" style="display: block;"><g class="primary design" transform="matrix(1,0,0,1,0,0)" opacity="1" style="display: block;"><g opacity="1" transform="matrix(1,0,0,1,249.99899291992188,250.0030059814453)"><path fill="rgb(255,255,255)" fill-opacity="1" d=" M171.87600708007812,-166.69200134277344 C171.87600708007812,-166.69200134277344 98.96499633789062,-166.69200134277344 98.96499633789062,-166.69200134277344 C90.32099914550781,-166.69200134277344 83.31400299072266,-159.68499755859375 83.31400299072266,-151.04200744628906 C83.31400299072266,-142.3990020751953 90.32099914550781,-135.39300537109375 98.96499633789062,-135.39300537109375 C98.96499633789062,-135.39300537109375 171.87600708007812,-135.39300537109375 171.87600708007812,-135.39300537109375 C174.73399353027344,-135.39300537109375 177.0590057373047,-133.0659942626953 177.0590057373047,-130.20799255371094 C177.0590057373047,-130.20799255371094 177.0590057373047,130.20899963378906 177.0590057373047,130.20899963378906 C177.0590057373047,133.06700134277344 174.73399353027344,135.39300537109375 171.87600708007812,135.39300537109375 C171.87600708007812,135.39300537109375 -171.87600708007812,135.39300537109375 -171.87600708007812,135.39300537109375 C-174.73399353027344,135.39300537109375 -177.0590057373047,133.06700134277344 -177.0590057373047,130.20899963378906 C-177.0590057373047,130.20899963378906 -177.0590057373047,-130.20799255371094 -177.0590057373047,-130.20799255371094 C-177.0590057373047,-133.0659942626953 -174.73399353027344,-135.39300537109375 -171.87600708007812,-135.39300537109375 C-171.87600708007812,-135.39300537109375 -98.9520034790039,-135.39300537109375 -98.9520034790039,-135.39300537109375 C-90.30799865722656,-135.39300537109375 -83.302001953125,-142.3990020751953 -83.302001953125,-151.04200744628906 C-83.302001953125,-159.68499755859375 -90.30799865722656,-166.69200134277344 -98.9520034790039,-166.69200134277344 C-98.9520034790039,-166.69200134277344 -171.87600708007812,-166.69200134277344 -171.87600708007812,-166.69200134277344 C-191.9929962158203,-166.69200134277344 -208.35899353027344,-150.3249969482422 -208.35899353027344,-130.20799255371094 C-208.35899353027344,-130.20799255371094 -208.35899353027344,130.20899963378906 -208.35899353027344,130.20899963378906 C-208.35899353027344,150.3260040283203 -191.9929962158203,166.69200134277344 -171.87600708007812,166.69200134277344 C-171.87600708007812,166.69200134277344 171.87600708007812,166.69200134277344 171.87600708007812,166.69200134277344 C191.9929962158203,166.69200134277344 208.35899353027344,150.3260040283203 208.35899353027344,130.20899963378906 C208.35899353027344,130.20899963378906 208.35899353027344,-130.20799255371094 208.35899353027344,-130.20799255371094 C208.35899353027344,-150.3249969482422 191.9929962158203,-166.69200134277344 171.87600708007812,-166.69200134277344z"></path></g></g><g mask="url(#__lottie_element_784)" style="display: block;"><g class="primary design" transform="matrix(1,0,0,1,0,0)" opacity="1"><g opacity="1" transform="matrix(1,0,0,1,249.9969940185547,197.91900634765625)"><path fill="rgb(255,255,255)" fill-opacity="1" d=" M-78.7750015258789,42.321998596191406 C-78.7750015258789,42.321998596191406 -11.071999549865723,110.0250015258789 -11.071999549865723,110.0250015258789 C-11.043999671936035,110.0530014038086 -11.013999938964844,110.07599639892578 -10.986000061035156,110.10299682617188 C-10.647000312805176,110.43699645996094 -10.295000076293945,110.75800323486328 -9.927000045776367,111.05999755859375 C-9.737000465393066,111.21600341796875 -9.53600025177002,111.35299682617188 -9.34000015258789,111.4990005493164 C-9.126999855041504,111.65799713134766 -8.918999671936035,111.822998046875 -8.697999954223633,111.97100067138672 C-8.468000411987305,112.125 -8.229999542236328,112.25800323486328 -7.99399995803833,112.39800262451172 C-7.790999889373779,112.51899719238281 -7.5929999351501465,112.64700317382812 -7.383999824523926,112.75900268554688 C-7.144999980926514,112.88700103759766 -6.900000095367432,112.99400329589844 -6.656000137329102,113.10900115966797 C-6.436999797821045,113.21199798583984 -6.2220001220703125,113.3219985961914 -5.997000217437744,113.41500091552734 C-5.760000228881836,113.51300048828125 -5.517000198364258,113.59300231933594 -5.276000022888184,113.67900085449219 C-5.034999847412109,113.76499938964844 -4.796999931335449,113.85800170898438 -4.551000118255615,113.93299865722656 C-4.309999942779541,114.00599670410156 -4.065999984741211,114.05899810791016 -3.822000026702881,114.12000274658203 C-3.569999933242798,114.18299865722656 -3.321000099182129,114.25399780273438 -3.065000057220459,114.30500030517578 C-2.7869999408721924,114.36000061035156 -2.50600004196167,114.39299774169922 -2.2249999046325684,114.43299865722656 C-2,114.46499633789062 -1.777999997138977,114.50900268554688 -1.5499999523162842,114.53099822998047 C-1.0360000133514404,114.58200073242188 -0.5210000276565552,114.60900115966797 -0.004999999888241291,114.60900115966797 C0.5109999775886536,114.60900115966797 1.024999976158142,114.58200073242188 1.5390000343322754,114.53099822998047 C1.7710000276565552,114.50800323486328 1.9950000047683716,114.46499633789062 2.2239999771118164,114.43199920654297 C2.5,114.39199829101562 2.7780001163482666,114.35900115966797 3.052000045776367,114.30500030517578 C3.312999963760376,114.25299835205078 3.565000057220459,114.18199920654297 3.821000099182129,114.11799621582031 C4.060999870300293,114.05799865722656 4.302000045776367,114.00499725341797 4.539000034332275,113.93299865722656 C4.7870001792907715,113.85800170898438 5.0269999504089355,113.76499938964844 5.269000053405762,113.6780014038086 C5.508999824523926,113.59200286865234 5.75,113.51300048828125 5.986000061035156,113.41500091552734 C6.210000038146973,113.3219985961914 6.423999786376953,113.21399688720703 6.642000198364258,113.11100006103516 C6.88700008392334,112.99600219726562 7.135000228881836,112.88700103759766 7.375,112.75800323486328 C7.578999996185303,112.64800262451172 7.7729997634887695,112.52300262451172 7.9720001220703125,112.40499877929688 C8.211999893188477,112.26200103759766 8.454999923706055,112.12699890136719 8.689000129699707,111.97000122070312 C8.899999618530273,111.8280029296875 9.098999977111816,111.66899871826172 9.303000450134277,111.51799774169922 C9.508999824523926,111.36499786376953 9.718999862670898,111.22200012207031 9.918999671936035,111.05799865722656 C10.260000228881836,110.77799987792969 10.583999633789062,110.47799682617188 10.899999618530273,110.16999816894531 C10.95199966430664,110.11900329589844 11.008999824523926,110.0770034790039 11.060999870300293,110.0250015258789 C11.060999870300293,110.0250015258789 78.7750015258789,42.31399917602539 78.7750015258789,42.31399917602539 C84.88600158691406,36.202999114990234 84.88600158691406,26.29400062561035 78.7750015258789,20.18199920654297 C72.66500091552734,14.071000099182129 62.75400161743164,14.069000244140625 56.641998291015625,20.180999755859375 C56.641998291015625,20.180999755859375 15.645999908447266,61.17599868774414 15.645999908447266,61.17599868774414 C15.645999908447266,61.17599868774414 15.651000022888184,-98.95800018310547 15.651000022888184,-98.95800018310547 C15.651000022888184,-107.60099792480469 8.644000053405762,-114.60900115966797 0,-114.60900115966797 C-8.642999649047852,-114.60900115966797 -15.64900016784668,-107.60199737548828 -15.649999618530273,-98.95899963378906 C-15.649999618530273,-98.95899963378906 -15.654999732971191,61.176998138427734 -15.654999732971191,61.176998138427734 C-15.654999732971191,61.176998138427734 -56.641998291015625,20.18899917602539 -56.641998291015625,20.18899917602539 C-62.75400161743164,14.07800006866455 -72.66300201416016,14.07800006866455 -78.7750015258789,20.18899917602539 C-84.88600158691406,26.301000595092773 -84.88600158691406,36.209999084472656 -78.7750015258789,42.321998596191406z"></path></g></g></g><g class="primary design" transform="matrix(1,0,0,1,0,-322)" opacity="1" style="display: block;"><g opacity="1" transform="matrix(1,0,0,1,249.9969940185547,197.91900634765625)"><path fill="rgb(255,255,255)" fill-opacity="1" d=" M-78.7750015258789,42.321998596191406 C-78.7750015258789,42.321998596191406 -11.071999549865723,110.0250015258789 -11.071999549865723,110.0250015258789 C-11.043999671936035,110.0530014038086 -11.013999938964844,110.07599639892578 -10.986000061035156,110.10299682617188 C-10.647000312805176,110.43699645996094 -10.295000076293945,110.75800323486328 -9.927000045776367,111.05999755859375 C-9.737000465393066,111.21600341796875 -9.53600025177002,111.35299682617188 -9.34000015258789,111.4990005493164 C-9.126999855041504,111.65799713134766 -8.918999671936035,111.822998046875 -8.697999954223633,111.97100067138672 C-8.468000411987305,112.125 -8.229999542236328,112.25800323486328 -7.99399995803833,112.39800262451172 C-7.790999889373779,112.51899719238281 -7.5929999351501465,112.64700317382812 -7.383999824523926,112.75900268554688 C-7.144999980926514,112.88700103759766 -6.900000095367432,112.99400329589844 -6.656000137329102,113.10900115966797 C-6.436999797821045,113.21199798583984 -6.2220001220703125,113.3219985961914 -5.997000217437744,113.41500091552734 C-5.760000228881836,113.51300048828125 -5.517000198364258,113.59300231933594 -5.276000022888184,113.67900085449219 C-5.034999847412109,113.76499938964844 -4.796999931335449,113.85800170898438 -4.551000118255615,113.93299865722656 C-4.309999942779541,114.00599670410156 -4.065999984741211,114.05899810791016 -3.822000026702881,114.12000274658203 C-3.569999933242798,114.18299865722656 -3.321000099182129,114.25399780273438 -3.065000057220459,114.30500030517578 C-2.7869999408721924,114.36000061035156 -2.50600004196167,114.39299774169922 -2.2249999046325684,114.43299865722656 C-2,114.46499633789062 -1.777999997138977,114.50900268554688 -1.5499999523162842,114.53099822998047 C-1.0360000133514404,114.58200073242188 -0.5210000276565552,114.60900115966797 -0.004999999888241291,114.60900115966797 C0.5109999775886536,114.60900115966797 1.024999976158142,114.58200073242188 1.5390000343322754,114.53099822998047 C1.7710000276565552,114.50800323486328 1.9950000047683716,114.46499633789062 2.2239999771118164,114.43199920654297 C2.5,114.39199829101562 2.7780001163482666,114.35900115966797 3.052000045776367,114.30500030517578 C3.312999963760376,114.25299835205078 3.565000057220459,114.18199920654297 3.821000099182129,114.11799621582031 C4.060999870300293,114.05799865722656 4.302000045776367,114.00499725341797 4.539000034332275,113.93299865722656 C4.7870001792907715,113.85800170898438 5.0269999504089355,113.76499938964844 5.269000053405762,113.6780014038086 C5.508999824523926,113.59200286865234 5.75,113.51300048828125 5.986000061035156,113.41500091552734 C6.210000038146973,113.3219985961914 6.423999786376953,113.21399688720703 6.642000198364258,113.11100006103516 C6.88700008392334,112.99600219726562 7.135000228881836,112.88700103759766 7.375,112.75800323486328 C7.578999996185303,112.64800262451172 7.7729997634887695,112.52300262451172 7.9720001220703125,112.40499877929688 C8.211999893188477,112.26200103759766 8.454999923706055,112.12699890136719 8.689000129699707,111.97000122070312 C8.899999618530273,111.8280029296875 9.098999977111816,111.66899871826172 9.303000450134277,111.51799774169922 C9.508999824523926,111.36499786376953 9.718999862670898,111.22200012207031 9.918999671936035,111.05799865722656 C10.260000228881836,110.77799987792969 10.583999633789062,110.47799682617188 10.899999618530273,110.16999816894531 C10.95199966430664,110.11900329589844 11.008999824523926,110.0770034790039 11.060999870300293,110.0250015258789 C11.060999870300293,110.0250015258789 78.7750015258789,42.31399917602539 78.7750015258789,42.31399917602539 C84.88600158691406,36.202999114990234 84.88600158691406,26.29400062561035 78.7750015258789,20.18199920654297 C72.66500091552734,14.071000099182129 62.75400161743164,14.069000244140625 56.641998291015625,20.180999755859375 C56.641998291015625,20.180999755859375 15.645999908447266,61.17599868774414 15.645999908447266,61.17599868774414 C15.645999908447266,61.17599868774414 15.651000022888184,-98.95800018310547 15.651000022888184,-98.95800018310547 C15.651000022888184,-107.60099792480469 8.644000053405762,-114.60900115966797 0,-114.60900115966797 C-8.642999649047852,-114.60900115966797 -15.64900016784668,-107.60199737548828 -15.649999618530273,-98.95899963378906 C-15.649999618530273,-98.95899963378906 -15.654999732971191,61.176998138427734 -15.654999732971191,61.176998138427734 C-15.654999732971191,61.176998138427734 -56.641998291015625,20.18899917602539 -56.641998291015625,20.18899917602539 C-62.75400161743164,14.07800006866455 -72.66300201416016,14.07800006866455 -78.7750015258789,20.18899917602539 C-84.88600158691406,26.301000595092773 -84.88600158691406,36.209999084472656 -78.7750015258789,42.321998596191406z"></path></g></g></g><g clip-path="url(#__lottie_element_765)" transform="matrix(1,0,0,1,0,0)" opacity="0" style="display: block;"><g class="primary design" transform="matrix(1,0,0,1,0,0)" opacity="1" style="display: block;"><g opacity="1" transform="matrix(1,0,0,1,249.99899291992188,250.0030059814453)"><path stroke-linecap="round" stroke-linejoin="round" fill-opacity="0" stroke="rgb(255,255,255)" stroke-opacity="1" stroke-width="31.3" d="M0 0"></path></g></g><g class="primary design" style="display: none;" transform="matrix(1,0,0,1,0,0)" opacity="1"><g opacity="1" transform="matrix(1,0,0,1,249.99899291992188,250.0030059814453)"><path fill="rgb(255,255,255)" fill-opacity="1" d=" M171.87600708007812,-166.69200134277344 C171.87600708007812,-166.69200134277344 98.96499633789062,-166.69200134277344 98.96499633789062,-166.69200134277344 C90.32099914550781,-166.69200134277344 83.31400299072266,-159.68499755859375 83.31400299072266,-151.04200744628906 C83.31400299072266,-142.3990020751953 90.32099914550781,-135.39300537109375 98.96499633789062,-135.39300537109375 C98.96499633789062,-135.39300537109375 171.87600708007812,-135.39300537109375 171.87600708007812,-135.39300537109375 C174.73399353027344,-135.39300537109375 177.0590057373047,-133.0659942626953 177.0590057373047,-130.20799255371094 C177.0590057373047,-130.20799255371094 177.0590057373047,130.20899963378906 177.0590057373047,130.20899963378906 C177.0590057373047,133.06700134277344 174.73399353027344,135.39300537109375 171.87600708007812,135.39300537109375 C171.87600708007812,135.39300537109375 -171.87600708007812,135.39300537109375 -171.87600708007812,135.39300537109375 C-174.73399353027344,135.39300537109375 -177.0590057373047,133.06700134277344 -177.0590057373047,130.20899963378906 C-177.0590057373047,130.20899963378906 -177.0590057373047,-130.20799255371094 -177.0590057373047,-130.20799255371094 C-177.0590057373047,-133.0659942626953 -174.73399353027344,-135.39300537109375 -171.87600708007812,-135.39300537109375 C-171.87600708007812,-135.39300537109375 -98.9520034790039,-135.39300537109375 -98.9520034790039,-135.39300537109375 C-90.30799865722656,-135.39300537109375 -83.302001953125,-142.3990020751953 -83.302001953125,-151.04200744628906 C-83.302001953125,-159.68499755859375 -90.30799865722656,-166.69200134277344 -98.9520034790039,-166.69200134277344 C-98.9520034790039,-166.69200134277344 -171.87600708007812,-166.69200134277344 -171.87600708007812,-166.69200134277344 C-191.9929962158203,-166.69200134277344 -208.35899353027344,-150.3249969482422 -208.35899353027344,-130.20799255371094 C-208.35899353027344,-130.20799255371094 -208.35899353027344,130.20899963378906 -208.35899353027344,130.20899963378906 C-208.35899353027344,150.3260040283203 -191.9929962158203,166.69200134277344 -171.87600708007812,166.69200134277344 C-171.87600708007812,166.69200134277344 171.87600708007812,166.69200134277344 171.87600708007812,166.69200134277344 C191.9929962158203,166.69200134277344 208.35899353027344,150.3260040283203 208.35899353027344,130.20899963378906 C208.35899353027344,130.20899963378906 208.35899353027344,-130.20799255371094 208.35899353027344,-130.20799255371094 C208.35899353027344,-150.3249969482422 191.9929962158203,-166.69200134277344 171.87600708007812,-166.69200134277344z"></path></g></g><g class="primary design" transform="matrix(1,0,0,1,0,-322)" opacity="1" style="display: block;"><g opacity="1" transform="matrix(1,0,0,1,249.9969940185547,197.91900634765625)"><path fill="rgb(255,255,255)" fill-opacity="1" d=" M-78.7750015258789,42.321998596191406 C-78.7750015258789,42.321998596191406 -11.071999549865723,110.0250015258789 -11.071999549865723,110.0250015258789 C-11.043999671936035,110.0530014038086 -11.013999938964844,110.07599639892578 -10.986000061035156,110.10299682617188 C-10.647000312805176,110.43699645996094 -10.295000076293945,110.75800323486328 -9.927000045776367,111.05999755859375 C-9.737000465393066,111.21600341796875 -9.53600025177002,111.35299682617188 -9.34000015258789,111.4990005493164 C-9.126999855041504,111.65799713134766 -8.918999671936035,111.822998046875 -8.697999954223633,111.97100067138672 C-8.468000411987305,112.125 -8.229999542236328,112.25800323486328 -7.99399995803833,112.39800262451172 C-7.790999889373779,112.51899719238281 -7.5929999351501465,112.64700317382812 -7.383999824523926,112.75900268554688 C-7.144999980926514,112.88700103759766 -6.900000095367432,112.99400329589844 -6.656000137329102,113.10900115966797 C-6.436999797821045,113.21199798583984 -6.2220001220703125,113.3219985961914 -5.997000217437744,113.41500091552734 C-5.760000228881836,113.51300048828125 -5.517000198364258,113.59300231933594 -5.276000022888184,113.67900085449219 C-5.034999847412109,113.76499938964844 -4.796999931335449,113.85800170898438 -4.551000118255615,113.93299865722656 C-4.309999942779541,114.00599670410156 -4.065999984741211,114.05899810791016 -3.822000026702881,114.12000274658203 C-3.569999933242798,114.18299865722656 -3.321000099182129,114.25399780273438 -3.065000057220459,114.30500030517578 C-2.7869999408721924,114.36000061035156 -2.50600004196167,114.39299774169922 -2.2249999046325684,114.43299865722656 C-2,114.46499633789062 -1.777999997138977,114.50900268554688 -1.5499999523162842,114.53099822998047 C-1.0360000133514404,114.58200073242188 -0.5210000276565552,114.60900115966797 -0.004999999888241291,114.60900115966797 C0.5109999775886536,114.60900115966797 1.024999976158142,114.58200073242188 1.5390000343322754,114.53099822998047 C1.7710000276565552,114.50800323486328 1.9950000047683716,114.46499633789062 2.2239999771118164,114.43199920654297 C2.5,114.39199829101562 2.7780001163482666,114.35900115966797 3.052000045776367,114.30500030517578 C3.312999963760376,114.25299835205078 3.565000057220459,114.18199920654297 3.821000099182129,114.11799621582031 C4.060999870300293,114.05799865722656 4.302000045776367,114.00499725341797 4.539000034332275,113.93299865722656 C4.7870001792907715,113.85800170898438 5.0269999504089355,113.76499938964844 5.269000053405762,113.6780014038086 C5.508999824523926,113.59200286865234 5.75,113.51300048828125 5.986000061035156,113.41500091552734 C6.210000038146973,113.3219985961914 6.423999786376953,113.21399688720703 6.642000198364258,113.11100006103516 C6.88700008392334,112.99600219726562 7.135000228881836,112.88700103759766 7.375,112.75800323486328 C7.578999996185303,112.64800262451172 7.7729997634887695,112.52300262451172 7.9720001220703125,112.40499877929688 C8.211999893188477,112.26200103759766 8.454999923706055,112.12699890136719 8.689000129699707,111.97000122070312 C8.899999618530273,111.8280029296875 9.098999977111816,111.66899871826172 9.303000450134277,111.51799774169922 C9.508999824523926,111.36499786376953 9.718999862670898,111.22200012207031 9.918999671936035,111.05799865722656 C10.260000228881836,110.77799987792969 10.583999633789062,110.47799682617188 10.899999618530273,110.16999816894531 C10.95199966430664,110.11900329589844 11.008999824523926,110.0770034790039 11.060999870300293,110.0250015258789 C11.060999870300293,110.0250015258789 78.7750015258789,42.31399917602539 78.7750015258789,42.31399917602539 C84.88600158691406,36.202999114990234 84.88600158691406,26.29400062561035 78.7750015258789,20.18199920654297 C72.66500091552734,14.071000099182129 62.75400161743164,14.069000244140625 56.641998291015625,20.180999755859375 C56.641998291015625,20.180999755859375 15.645999908447266,61.17599868774414 15.645999908447266,61.17599868774414 C15.645999908447266,61.17599868774414 15.651000022888184,-98.95800018310547 15.651000022888184,-98.95800018310547 C15.651000022888184,-107.60099792480469 8.644000053405762,-114.60900115966797 0,-114.60900115966797 C-8.642999649047852,-114.60900115966797 -15.64900016784668,-107.60199737548828 -15.649999618530273,-98.95899963378906 C-15.649999618530273,-98.95899963378906 -15.654999732971191,61.176998138427734 -15.654999732971191,61.176998138427734 C-15.654999732971191,61.176998138427734 -56.641998291015625,20.18899917602539 -56.641998291015625,20.18899917602539 C-62.75400161743164,14.07800006866455 -72.66300201416016,14.07800006866455 -78.7750015258789,20.18899917602539 C-84.88600158691406,26.301000595092773 -84.88600158691406,36.209999084472656 -78.7750015258789,42.321998596191406z"></path></g></g></g><g class="com" style="display: none;"><g><path></path></g><g><path></path></g><g><path></path></g><g><path></path></g><g><path></path></g><g><path></path></g><g><path></path></g><g><path></path></g><g><path></path></g><g><path></path></g><g><path></path></g><g><path></path></g></g></g></svg>