<svg xmlns="http://www.w3.org/2000/svg" viewBox="0 0 500 500" width="500" height="500" preserveAspectRatio="xMidYMid meet" style="width: 100%; height: 100%; transform: translate3d(0px, 0px, 0px); content-visibility: visible;"><defs><clipPath id="__lottie_element_5926"><rect width="500" height="500" x="0" y="0"></rect></clipPath><clipPath id="__lottie_element_5933"><path d="M0,0 L500,0 L500,500 L0,500z"></path></clipPath><clipPath id="__lottie_element_5937"><path fill="#ffffff" clip-rule="nonzero" d=" M153.9969940185547,10.321000099182129 C153.9969940185547,10.321000099182129 -142.0030059814453,10.321000099182129 -142.0030059814453,10.321000099182129 C-142.0030059814453,10.321000099182129 -142.0030059814453,220.3209991455078 -142.0030059814453,220.3209991455078 C-142.0030059814453,220.3209991455078 153.9969940185547,220.3209991455078 153.9969940185547,220.3209991455078 C153.9969940185547,220.3209991455078 153.9969940185547,10.321000099182129 153.9969940185547,10.321000099182129"></path></clipPath><clipPath id="__lottie_element_5946"><path d="M0,0 L500,0 L500,500 L0,500z"></path></clipPath><clipPath id="__lottie_element_5959"><path d="M0,0 L500,0 L500,500 L0,500z"></path></clipPath><clipPath id="__lottie_element_5975"><path d="M0,0 L500,0 L500,500 L0,500z"></path></clipPath><clipPath id="__lottie_element_5988"><path d="M0,0 L500,0 L500,500 L0,500z"></path></clipPath></defs><g clip-path="url(#__lottie_element_5926)"><g clip-path="url(#__lottie_element_5988)" transform="matrix(1,0,0,1,0,0)" opacity="0" style="display: block;"><g class="primary design" transform="matrix(20.829999923706055,0,0,20.829999923706055,250.0019989013672,249.63699340820312)" opacity="1" style="display: block;"><g opacity="1" transform="matrix(1,0,0,1,0,0)"><path fill="rgb(255,255,255)" fill-opacity="1" d=" M8.25,-3.6429998874664307 C8.25,-3.6429998874664307 1,-8.70199966430664 1,-8.70199966430664 C0.4000000059604645,-9.121999740600586 -0.4000000059604645,-9.121999740600586 -1,-8.70199966430664 C-1,-8.70199966430664 -8.25,-3.6429998874664307 -8.25,-3.6429998874664307 C-8.720000267028809,-3.322999954223633 -9,-2.7820000648498535 -9,-2.2119998931884766 C-9,-2.2119998931884766 -9,7.26800012588501 -9,7.26800012588501 C-9,8.227999687194824 -8.210000038146973,9.017999649047852 -7.25,9.017999649047852 C-7.25,9.017999649047852 -4.25,9.017999649047852 -4.25,9.017999649047852 C-2.7300000190734863,9.017999649047852 -1.5,7.788000106811523 -1.5,6.26800012588501 C-1.5,6.26800012588501 -1.5,2.7679998874664307 -1.5,2.7679998874664307 C-1.5,2.628000020980835 -1.3899999856948853,2.5179998874664307 -1.25,2.5179998874664307 C-1.25,2.5179998874664307 1.25,2.5179998874664307 1.25,2.5179998874664307 C1.3899999856948853,2.5179998874664307 1.5,2.628000020980835 1.5,2.7679998874664307 C1.5,2.7679998874664307 1.5,6.26800012588501 1.5,6.26800012588501 C1.5,7.788000106811523 2.7300000190734863,9.017999649047852 4.25,9.017999649047852 C4.25,9.017999649047852 7.25,9.017999649047852 7.25,9.017999649047852 C8.210000038146973,9.017999649047852 9,8.227999687194824 9,7.26800012588501 C9,7.26800012588501 9,-2.2119998931884766 9,-2.2119998931884766 C9,-2.7820000648498535 8.720000267028809,-3.322999954223633 8.25,-3.6429998874664307z M7.5,7.26800012588501 C7.5,7.4079999923706055 7.389999866485596,7.51800012588501 7.25,7.51800012588501 C7.25,7.51800012588501 4.25,7.51800012588501 4.25,7.51800012588501 C3.559999942779541,7.51800012588501 3,6.958000183105469 3,6.26800012588501 C3,6.26800012588501 3,2.7679998874664307 3,2.7679998874664307 C3,1.8079999685287476 2.2100000381469727,1.0180000066757202 1.25,1.0180000066757202 C1.25,1.0180000066757202 -1.25,1.0180000066757202 -1.25,1.0180000066757202 C-2.2100000381469727,1.0180000066757202 -3,1.8079999685287476 -3,2.7679998874664307 C-3,2.7679998874664307 -3,6.26800012588501 -3,6.26800012588501 C-3,6.958000183105469 -3.559999942779541,7.51800012588501 -4.25,7.51800012588501 C-4.25,7.51800012588501 -7.25,7.51800012588501 -7.25,7.51800012588501 C-7.389999866485596,7.51800012588501 -7.5,7.4079999923706055 -7.5,7.26800012588501 C-7.5,7.26800012588501 -7.5,-2.2119998931884766 -7.5,-2.2119998931884766 C-7.5,-2.2920000553131104 -7.460000038146973,-2.372999906539917 -7.389999866485596,-2.4230000972747803 C-7.389999866485596,-2.4230000972747803 -0.14000000059604645,-7.4730000495910645 -0.14000000059604645,-7.4730000495910645 C-0.05000000074505806,-7.5329999923706055 0.05999999865889549,-7.5329999923706055 0.15000000596046448,-7.4730000495910645 C0.15000000596046448,-7.4730000495910645 7.400000095367432,-2.4230000972747803 7.400000095367432,-2.4230000972747803 C7.46999979019165,-2.372999906539917 7.510000228881836,-2.302000045776367 7.510000228881836,-2.2119998931884766 C7.510000228881836,-2.2119998931884766 7.510000228881836,7.26800012588501 7.510000228881836,7.26800012588501 C7.510000228881836,7.26800012588501 7.5,7.26800012588501 7.5,7.26800012588501z"></path></g></g><g class="primary design" style="display: none;"><g><path stroke-linecap="round" stroke-linejoin="round" fill-opacity="0"></path></g></g><g class="primary design" style="display: none;" transform="matrix(1,0,0,1,250.0030059814453,249.6790008544922)" opacity="1"><g opacity="1" transform="matrix(1,0,0,1,0,0)"><path stroke-linecap="round" stroke-linejoin="round" fill-opacity="0" stroke="rgb(255,255,255)" stroke-opacity="1" stroke-width="31.3" d=" M-150.00399780273438,172.1999969482422 C-161.8780059814453,172.1999969482422 -171.5030059814453,162.51600646972656 -171.5030059814453,150.57200622558594 C-171.5030059814453,150.57200622558594 -171.91400146484375,-46.0890007019043 -171.91400146484375,-46.0890007019043 C-171.91400146484375,-54.742000579833984 -166.3780059814453,-61.117000579833984 -162.89300537109375,-63.17300033569336 C-162.89300537109375,-63.17300033569336 -19.448999404907227,-163.16400146484375 -12.003000259399414,-168.34300231933594 C-4.690000057220459,-173.42999267578125 4.059000015258789,-173.61700439453125 11.934000015258789,-168.40499877929688 C18.259000778198242,-164.218994140625 162.8780059814453,-63.154998779296875 162.8780059814453,-63.154998779296875 C165.18499755859375,-61.80400085449219 171.8990020751953,-56.367000579833984 171.8990020751953,-46.00899887084961 C171.8990020751953,-46.00899887084961 171.87899780273438,151.4459991455078 171.87899780273438,151.4459991455078 C171.87899780273438,163.2530059814453 162.3719940185547,172.20399475097656 151.02499389648438,172.20399475097656 C151.02499389648438,172.20399475097656 -150.00399780273438,172.1999969482422 -150.00399780273438,172.1999969482422z"></path></g></g><g class="primary design" style="display: none;"><g><path stroke-linecap="round" stroke-linejoin="round" fill-opacity="0"></path></g></g><g class="primary design" style="display: none;" transform="matrix(1,0,0,1,249.75799560546875,359.5060119628906)" opacity="1"><g opacity="1" transform="matrix(1,0,0,1,0,0)"><path fill="rgb(255,255,255)" fill-opacity="1" d=" M67.9469985961914,15.625 C67.9469985961914,15.625 -67.9469985961914,15.625 -67.9469985961914,15.625 C-76.572998046875,15.625 -83.5719985961914,8.62600040435791 -83.5719985961914,0 C-83.5719985961914,-8.62600040435791 -76.572998046875,-15.625 -67.9469985961914,-15.625 C-67.9469985961914,-15.625 67.9469985961914,-15.625 67.9469985961914,-15.625 C76.572998046875,-15.625 83.5719985961914,-8.62600040435791 83.5719985961914,0 C83.5719985961914,8.62600040435791 76.572998046875,15.625 67.9469985961914,15.625z"></path></g></g></g><g clip-path="url(#__lottie_element_5975)" transform="matrix(1,0,0,1,0,0)" opacity="0" style="display: block;"><g class="primary design" transform="matrix(20.829999923706055,0,0,20.829999923706055,250.0019989013672,249.63699340820312)" opacity="1" style="display: block;"><g opacity="1" transform="matrix(1,0,0,1,0,0)"><path fill="rgb(255,255,255)" fill-opacity="1" d=" M8.25,-3.6429998874664307 C8.25,-3.6429998874664307 1,-8.70199966430664 1,-8.70199966430664 C0.4000000059604645,-9.121999740600586 -0.4000000059604645,-9.121999740600586 -1,-8.70199966430664 C-1,-8.70199966430664 -8.25,-3.6429998874664307 -8.25,-3.6429998874664307 C-8.720000267028809,-3.322999954223633 -9,-2.7820000648498535 -9,-2.2119998931884766 C-9,-2.2119998931884766 -9,7.26800012588501 -9,7.26800012588501 C-9,8.227999687194824 -8.210000038146973,9.017999649047852 -7.25,9.017999649047852 C-7.25,9.017999649047852 -4.25,9.017999649047852 -4.25,9.017999649047852 C-2.7300000190734863,9.017999649047852 -1.5,7.788000106811523 -1.5,6.26800012588501 C-1.5,6.26800012588501 -1.5,2.7679998874664307 -1.5,2.7679998874664307 C-1.5,2.628000020980835 -1.3899999856948853,2.5179998874664307 -1.25,2.5179998874664307 C-1.25,2.5179998874664307 1.25,2.5179998874664307 1.25,2.5179998874664307 C1.3899999856948853,2.5179998874664307 1.5,2.628000020980835 1.5,2.7679998874664307 C1.5,2.7679998874664307 1.5,6.26800012588501 1.5,6.26800012588501 C1.5,7.788000106811523 2.7300000190734863,9.017999649047852 4.25,9.017999649047852 C4.25,9.017999649047852 7.25,9.017999649047852 7.25,9.017999649047852 C8.210000038146973,9.017999649047852 9,8.227999687194824 9,7.26800012588501 C9,7.26800012588501 9,-2.2119998931884766 9,-2.2119998931884766 C9,-2.7820000648498535 8.720000267028809,-3.322999954223633 8.25,-3.6429998874664307z M7.5,7.26800012588501 C7.5,7.4079999923706055 7.389999866485596,7.51800012588501 7.25,7.51800012588501 C7.25,7.51800012588501 4.25,7.51800012588501 4.25,7.51800012588501 C3.559999942779541,7.51800012588501 3,6.958000183105469 3,6.26800012588501 C3,6.26800012588501 3,2.7679998874664307 3,2.7679998874664307 C3,1.8079999685287476 2.2100000381469727,1.0180000066757202 1.25,1.0180000066757202 C1.25,1.0180000066757202 -1.25,1.0180000066757202 -1.25,1.0180000066757202 C-2.2100000381469727,1.0180000066757202 -3,1.8079999685287476 -3,2.7679998874664307 C-3,2.7679998874664307 -3,6.26800012588501 -3,6.26800012588501 C-3,6.958000183105469 -3.559999942779541,7.51800012588501 -4.25,7.51800012588501 C-4.25,7.51800012588501 -7.25,7.51800012588501 -7.25,7.51800012588501 C-7.389999866485596,7.51800012588501 -7.5,7.4079999923706055 -7.5,7.26800012588501 C-7.5,7.26800012588501 -7.5,-2.2119998931884766 -7.5,-2.2119998931884766 C-7.5,-2.2920000553131104 -7.460000038146973,-2.372999906539917 -7.389999866485596,-2.4230000972747803 C-7.389999866485596,-2.4230000972747803 -0.14000000059604645,-7.4730000495910645 -0.14000000059604645,-7.4730000495910645 C-0.05000000074505806,-7.5329999923706055 0.05999999865889549,-7.5329999923706055 0.15000000596046448,-7.4730000495910645 C0.15000000596046448,-7.4730000495910645 7.400000095367432,-2.4230000972747803 7.400000095367432,-2.4230000972747803 C7.46999979019165,-2.372999906539917 7.510000228881836,-2.302000045776367 7.510000228881836,-2.2119998931884766 C7.510000228881836,-2.2119998931884766 7.510000228881836,7.26800012588501 7.510000228881836,7.26800012588501 C7.510000228881836,7.26800012588501 7.5,7.26800012588501 7.5,7.26800012588501z"></path></g></g><g class="primary design" style="display: none;" transform="matrix(1,0,0,1,250.0030059814453,249.6790008544922)" opacity="1"><g opacity="1" transform="matrix(1,0,0,1,0,0)"><path stroke-linecap="round" stroke-linejoin="round" fill-opacity="0" stroke="rgb(255,255,255)" stroke-opacity="1" stroke-width="31.3" d=" M-61.97200012207031,36.68899917602539 C-61.97200012207031,36.68899917602539 -90.9010009765625,36.80699920654297 -90.9010009765625,36.80699920654297 C-95.5780029296875,36.80699920654297 -102.48300170898438,43.632999420166016 -102.48300170898438,57.71699905395508 C-102.48300170898438,57.71699905395508 -102.69000244140625,130.32699584960938 -102.69000244140625,130.32699584960938 C-102.69000244140625,153.4510040283203 -113.03800201416016,172.1999969482422 -125.802001953125,172.1999969482422 C-125.802001953125,172.1999969482422 -159.7480010986328,172.1999969482422 -159.7480010986328,172.1999969482422 C-166.34100341796875,172.1999969482422 -171.68600463867188,162.51600646972656 -171.68600463867188,150.57200622558594 C-171.68600463867188,150.57200622558594 -171.91400146484375,-46.0890007019043 -171.91400146484375,-46.0890007019043 C-171.91400146484375,-54.742000579833984 -168.83999633789062,-61.117000579833984 -166.90499877929688,-63.17300033569336 C-166.90499877929688,-63.17300033569336 -87.25299835205078,-163.16400146484375 -83.11900329589844,-168.34300231933594 C-79.05799865722656,-173.42999267578125 -74.19999694824219,-173.61700439453125 -69.8270034790039,-168.40499877929688 C-66.31500244140625,-164.218994140625 13.98799991607666,-63.154998779296875 13.98799991607666,-63.154998779296875 C15.269000053405762,-61.80400085449219 18.996999740600586,-56.367000579833984 18.996999740600586,-46.00899887084961 C18.996999740600586,-46.00899887084961 18.986000061035156,171.8209991455078 18.986000061035156,171.8209991455078 C18.986000061035156,172.03900146484375 18.88800048828125,172.20399475097656 18.77199935913086,172.20399475097656 C18.77199935913086,172.20399475097656 -27.332000732421875,172.1999969482422 -27.332000732421875,172.1999969482422 C-39.895999908447266,172.1999969482422 -50.44499969482422,153.35899353027344 -50.44499969482422,130.50799560546875 C-50.44499969482422,130.50799560546875 -50.40800094604492,57.624000549316406 -50.40800094604492,57.624000549316406 C-50.40800094604492,47.507999420166016 -54.834999084472656,36.68899917602539 -61.97200012207031,36.68899917602539z"></path></g></g><g class="primary design" style="display: none;" transform="matrix(1,0,0,1,250.0030059814453,249.6790008544922)" opacity="1"><g opacity="1" transform="matrix(1,0,0,1,0,0)"><path stroke-linecap="round" stroke-linejoin="round" fill-opacity="0" stroke="rgb(255,255,255)" stroke-opacity="1" stroke-width="31.3" d=" M-72.50299835205078,-172.16600036621094 C-72.50299835205078,-172.16600036621094 77.55699920654297,-172.47799682617188 79.71900177001953,-172.56199645996094 C81.9749984741211,-172.6490020751953 84.27300262451172,-171.39599609375 86.447998046875,-168.73500061035156 C89.87000274658203,-164.5489959716797 168.11599731445312,-63.48500061035156 168.11599731445312,-63.48500061035156 C169.36399841308594,-62.13399887084961 172.9969940185547,-56.696998596191406 172.9969940185547,-46.3390007019043 C172.9969940185547,-46.3390007019043 172.98599243164062,151.11599731445312 172.98599243164062,151.11599731445312 C172.98599243164062,162.92300415039062 167.8419952392578,171.87399291992188 161.7030029296875,171.87399291992188 C161.7030029296875,171.87399291992188 13.003999710083008,172.177001953125 13.003999710083008,172.177001953125"></path></g></g></g><g clip-path="url(#__lottie_element_5959)" transform="matrix(1,0,0,1,0,0)" opacity="1" style="display: block;"><g class="primary design" transform="matrix(20.829999923706055,0,0,20.829999923706055,250.0019989013672,249.63699340820312)" opacity="1" style="display: block;"><g opacity="1" transform="matrix(1,0,0,1,0,0)"><path fill="rgb(255,255,255)" fill-opacity="1" d=" M8.25,-3.6429998874664307 C8.25,-3.6429998874664307 1,-8.70199966430664 1,-8.70199966430664 C0.4000000059604645,-9.121999740600586 -0.4000000059604645,-9.121999740600586 -1,-8.70199966430664 C-1,-8.70199966430664 -8.25,-3.6429998874664307 -8.25,-3.6429998874664307 C-8.720000267028809,-3.322999954223633 -9,-2.7820000648498535 -9,-2.2119998931884766 C-9,-2.2119998931884766 -9,7.26800012588501 -9,7.26800012588501 C-9,8.227999687194824 -8.210000038146973,9.017999649047852 -7.25,9.017999649047852 C-7.25,9.017999649047852 -4.25,9.017999649047852 -4.25,9.017999649047852 C-2.7300000190734863,9.017999649047852 -1.5,7.788000106811523 -1.5,6.26800012588501 C-1.5,6.26800012588501 -1.5,2.7679998874664307 -1.5,2.7679998874664307 C-1.5,2.628000020980835 -1.3899999856948853,2.5179998874664307 -1.25,2.5179998874664307 C-1.25,2.5179998874664307 1.25,2.5179998874664307 1.25,2.5179998874664307 C1.3899999856948853,2.5179998874664307 1.5,2.628000020980835 1.5,2.7679998874664307 C1.5,2.7679998874664307 1.5,6.26800012588501 1.5,6.26800012588501 C1.5,7.788000106811523 2.7300000190734863,9.017999649047852 4.25,9.017999649047852 C4.25,9.017999649047852 7.25,9.017999649047852 7.25,9.017999649047852 C8.210000038146973,9.017999649047852 9,8.227999687194824 9,7.26800012588501 C9,7.26800012588501 9,-2.2119998931884766 9,-2.2119998931884766 C9,-2.7820000648498535 8.720000267028809,-3.322999954223633 8.25,-3.6429998874664307z M7.5,7.26800012588501 C7.5,7.4079999923706055 7.389999866485596,7.51800012588501 7.25,7.51800012588501 C7.25,7.51800012588501 4.25,7.51800012588501 4.25,7.51800012588501 C3.559999942779541,7.51800012588501 3,6.958000183105469 3,6.26800012588501 C3,6.26800012588501 3,2.7679998874664307 3,2.7679998874664307 C3,1.8079999685287476 2.2100000381469727,1.0180000066757202 1.25,1.0180000066757202 C1.25,1.0180000066757202 -1.25,1.0180000066757202 -1.25,1.0180000066757202 C-2.2100000381469727,1.0180000066757202 -3,1.8079999685287476 -3,2.7679998874664307 C-3,2.7679998874664307 -3,6.26800012588501 -3,6.26800012588501 C-3,6.958000183105469 -3.559999942779541,7.51800012588501 -4.25,7.51800012588501 C-4.25,7.51800012588501 -7.25,7.51800012588501 -7.25,7.51800012588501 C-7.389999866485596,7.51800012588501 -7.5,7.4079999923706055 -7.5,7.26800012588501 C-7.5,7.26800012588501 -7.5,-2.2119998931884766 -7.5,-2.2119998931884766 C-7.5,-2.2920000553131104 -7.460000038146973,-2.372999906539917 -7.389999866485596,-2.4230000972747803 C-7.389999866485596,-2.4230000972747803 -0.14000000059604645,-7.4730000495910645 -0.14000000059604645,-7.4730000495910645 C-0.05000000074505806,-7.5329999923706055 0.05999999865889549,-7.5329999923706055 0.15000000596046448,-7.4730000495910645 C0.15000000596046448,-7.4730000495910645 7.400000095367432,-2.4230000972747803 7.400000095367432,-2.4230000972747803 C7.46999979019165,-2.372999906539917 7.510000228881836,-2.302000045776367 7.510000228881836,-2.2119998931884766 C7.510000228881836,-2.2119998931884766 7.510000228881836,7.26800012588501 7.510000228881836,7.26800012588501 C7.510000228881836,7.26800012588501 7.5,7.26800012588501 7.5,7.26800012588501z"></path></g></g><g class="primary design" style="display: none;" transform="matrix(20.829999923706055,0,0,20.829999923706055,250.0019989013672,249.63699340820312)" opacity="1"><g opacity="1" transform="matrix(1,0,0,1,0,0)"><path fill="rgb(255,255,255)" fill-opacity="1" d=" M8.25,-3.6429998874664307 C8.25,-3.6429998874664307 1,-8.70199966430664 1,-8.70199966430664 C0.4000000059604645,-9.121999740600586 -0.4000000059604645,-9.121999740600586 -1,-8.70199966430664 C-1,-8.70199966430664 -8.25,-3.6429998874664307 -8.25,-3.6429998874664307 C-8.720000267028809,-3.322999954223633 -9,-2.7820000648498535 -9,-2.2119998931884766 C-9,-2.2119998931884766 -9,7.26800012588501 -9,7.26800012588501 C-9,8.227999687194824 -8.210000038146973,9.017999649047852 -7.25,9.017999649047852 C-7.25,9.017999649047852 -4.25,9.017999649047852 -4.25,9.017999649047852 C-2.7300000190734863,9.017999649047852 -1.5,7.788000106811523 -1.5,6.26800012588501 C-1.5,6.26800012588501 -1.5,2.7679998874664307 -1.5,2.7679998874664307 C-1.5,2.628000020980835 -1.3899999856948853,2.5179998874664307 -1.25,2.5179998874664307 C-1.25,2.5179998874664307 1.25,2.5179998874664307 1.25,2.5179998874664307 C1.3899999856948853,2.5179998874664307 1.5,2.628000020980835 1.5,2.7679998874664307 C1.5,2.7679998874664307 1.5,6.26800012588501 1.5,6.26800012588501 C1.5,7.788000106811523 2.7300000190734863,9.017999649047852 4.25,9.017999649047852 C4.25,9.017999649047852 7.25,9.017999649047852 7.25,9.017999649047852 C8.210000038146973,9.017999649047852 9,8.227999687194824 9,7.26800012588501 C9,7.26800012588501 9,-2.2119998931884766 9,-2.2119998931884766 C9,-2.7820000648498535 8.720000267028809,-3.322999954223633 8.25,-3.6429998874664307z M7.5,7.26800012588501 C7.5,7.4079999923706055 7.389999866485596,7.51800012588501 7.25,7.51800012588501 C7.25,7.51800012588501 4.25,7.51800012588501 4.25,7.51800012588501 C3.559999942779541,7.51800012588501 3,6.958000183105469 3,6.26800012588501 C3,6.26800012588501 3,2.7679998874664307 3,2.7679998874664307 C3,1.8079999685287476 2.2100000381469727,1.0180000066757202 1.25,1.0180000066757202 C1.25,1.0180000066757202 -1.25,1.0180000066757202 -1.25,1.0180000066757202 C-2.2100000381469727,1.0180000066757202 -3,1.8079999685287476 -3,2.7679998874664307 C-3,2.7679998874664307 -3,6.26800012588501 -3,6.26800012588501 C-3,6.958000183105469 -3.559999942779541,7.51800012588501 -4.25,7.51800012588501 C-4.25,7.51800012588501 -7.25,7.51800012588501 -7.25,7.51800012588501 C-7.389999866485596,7.51800012588501 -7.5,7.4079999923706055 -7.5,7.26800012588501 C-7.5,7.26800012588501 -7.5,-2.2119998931884766 -7.5,-2.2119998931884766 C-7.5,-2.2920000553131104 -7.460000038146973,-2.372999906539917 -7.389999866485596,-2.4230000972747803 C-7.389999866485596,-2.4230000972747803 -0.14000000059604645,-7.4730000495910645 -0.14000000059604645,-7.4730000495910645 C-0.05000000074505806,-7.5329999923706055 0.05999999865889549,-7.5329999923706055 0.15000000596046448,-7.4730000495910645 C0.15000000596046448,-7.4730000495910645 7.400000095367432,-2.4230000972747803 7.400000095367432,-2.4230000972747803 C7.46999979019165,-2.372999906539917 7.510000228881836,-2.302000045776367 7.510000228881836,-2.2119998931884766 C7.510000228881836,-2.2119998931884766 7.510000228881836,7.26800012588501 7.510000228881836,7.26800012588501 C7.510000228881836,7.26800012588501 7.5,7.26800012588501 7.5,7.26800012588501z"></path></g></g><g class="primary design" style="display: none;"><g><path stroke-linecap="round" stroke-linejoin="round" fill-opacity="0"></path></g></g><g class="primary design" style="display: none;"><g><path stroke-linecap="round" stroke-linejoin="round" fill-opacity="0"></path></g></g></g><g clip-path="url(#__lottie_element_5946)" transform="matrix(1,0,0,1,0,0)" opacity="0" style="display: block;"><g class="primary design" transform="matrix(20.829999923706055,0,0,20.829999923706055,250.0019989013672,249.63699340820312)" opacity="1" style="display: block;"><g opacity="1" transform="matrix(1,0,0,1,0,0)"><path fill="rgb(255,255,255)" fill-opacity="1" d=" M8.25,-3.6429998874664307 C8.25,-3.6429998874664307 1,-8.70199966430664 1,-8.70199966430664 C0.4000000059604645,-9.121999740600586 -0.4000000059604645,-9.121999740600586 -1,-8.70199966430664 C-1,-8.70199966430664 -8.25,-3.6429998874664307 -8.25,-3.6429998874664307 C-8.720000267028809,-3.322999954223633 -9,-2.7820000648498535 -9,-2.2119998931884766 C-9,-2.2119998931884766 -9,7.26800012588501 -9,7.26800012588501 C-9,8.227999687194824 -8.210000038146973,9.017999649047852 -7.25,9.017999649047852 C-7.25,9.017999649047852 -4.25,9.017999649047852 -4.25,9.017999649047852 C-2.7300000190734863,9.017999649047852 -1.5,7.788000106811523 -1.5,6.26800012588501 C-1.5,6.26800012588501 -1.5,2.7679998874664307 -1.5,2.7679998874664307 C-1.5,2.628000020980835 -1.3899999856948853,2.5179998874664307 -1.25,2.5179998874664307 C-1.25,2.5179998874664307 1.25,2.5179998874664307 1.25,2.5179998874664307 C1.3899999856948853,2.5179998874664307 1.5,2.628000020980835 1.5,2.7679998874664307 C1.5,2.7679998874664307 1.5,6.26800012588501 1.5,6.26800012588501 C1.5,7.788000106811523 2.7300000190734863,9.017999649047852 4.25,9.017999649047852 C4.25,9.017999649047852 7.25,9.017999649047852 7.25,9.017999649047852 C8.210000038146973,9.017999649047852 9,8.227999687194824 9,7.26800012588501 C9,7.26800012588501 9,-2.2119998931884766 9,-2.2119998931884766 C9,-2.7820000648498535 8.720000267028809,-3.322999954223633 8.25,-3.6429998874664307z M7.5,7.26800012588501 C7.5,7.4079999923706055 7.389999866485596,7.51800012588501 7.25,7.51800012588501 C7.25,7.51800012588501 4.25,7.51800012588501 4.25,7.51800012588501 C3.559999942779541,7.51800012588501 3,6.958000183105469 3,6.26800012588501 C3,6.26800012588501 3,2.7679998874664307 3,2.7679998874664307 C3,1.8079999685287476 2.2100000381469727,1.0180000066757202 1.25,1.0180000066757202 C1.25,1.0180000066757202 -1.25,1.0180000066757202 -1.25,1.0180000066757202 C-2.2100000381469727,1.0180000066757202 -3,1.8079999685287476 -3,2.7679998874664307 C-3,2.7679998874664307 -3,6.26800012588501 -3,6.26800012588501 C-3,6.958000183105469 -3.559999942779541,7.51800012588501 -4.25,7.51800012588501 C-4.25,7.51800012588501 -7.25,7.51800012588501 -7.25,7.51800012588501 C-7.389999866485596,7.51800012588501 -7.5,7.4079999923706055 -7.5,7.26800012588501 C-7.5,7.26800012588501 -7.5,-2.2119998931884766 -7.5,-2.2119998931884766 C-7.5,-2.2920000553131104 -7.460000038146973,-2.372999906539917 -7.389999866485596,-2.4230000972747803 C-7.389999866485596,-2.4230000972747803 -0.14000000059604645,-7.4730000495910645 -0.14000000059604645,-7.4730000495910645 C-0.05000000074505806,-7.5329999923706055 0.05999999865889549,-7.5329999923706055 0.15000000596046448,-7.4730000495910645 C0.15000000596046448,-7.4730000495910645 7.400000095367432,-2.4230000972747803 7.400000095367432,-2.4230000972747803 C7.46999979019165,-2.372999906539917 7.510000228881836,-2.302000045776367 7.510000228881836,-2.2119998931884766 C7.510000228881836,-2.2119998931884766 7.510000228881836,7.26800012588501 7.510000228881836,7.26800012588501 C7.510000228881836,7.26800012588501 7.5,7.26800012588501 7.5,7.26800012588501z"></path></g></g><g class="primary design" style="display: none;" transform="matrix(20.829999923706055,0,0,20.829999923706055,250.0019989013672,249.63699340820312)" opacity="1"><g opacity="1" transform="matrix(1,0,0,1,0,0)"><path fill="rgb(255,255,255)" fill-opacity="1" d=" M8.25,-3.6429998874664307 C8.25,-3.6429998874664307 1,-8.70199966430664 1,-8.70199966430664 C0.4000000059604645,-9.121999740600586 -0.4000000059604645,-9.121999740600586 -1,-8.70199966430664 C-1,-8.70199966430664 -8.25,-3.6429998874664307 -8.25,-3.6429998874664307 C-8.720000267028809,-3.322999954223633 -9,-2.7820000648498535 -9,-2.2119998931884766 C-9,-2.2119998931884766 -9,7.26800012588501 -9,7.26800012588501 C-9,8.227999687194824 -8.210000038146973,9.017999649047852 -7.25,9.017999649047852 C-7.25,9.017999649047852 -4.25,9.017999649047852 -4.25,9.017999649047852 C-2.7300000190734863,9.017999649047852 -1.5,7.788000106811523 -1.5,6.26800012588501 C-1.5,6.26800012588501 -1.5,2.7679998874664307 -1.5,2.7679998874664307 C-1.5,2.628000020980835 -1.3899999856948853,2.5179998874664307 -1.25,2.5179998874664307 C-1.25,2.5179998874664307 1.25,2.5179998874664307 1.25,2.5179998874664307 C1.3899999856948853,2.5179998874664307 1.5,2.628000020980835 1.5,2.7679998874664307 C1.5,2.7679998874664307 1.5,6.26800012588501 1.5,6.26800012588501 C1.5,7.788000106811523 2.7300000190734863,9.017999649047852 4.25,9.017999649047852 C4.25,9.017999649047852 7.25,9.017999649047852 7.25,9.017999649047852 C8.210000038146973,9.017999649047852 9,8.227999687194824 9,7.26800012588501 C9,7.26800012588501 9,-2.2119998931884766 9,-2.2119998931884766 C9,-2.7820000648498535 8.720000267028809,-3.322999954223633 8.25,-3.6429998874664307z M7.5,7.26800012588501 C7.5,7.4079999923706055 7.389999866485596,7.51800012588501 7.25,7.51800012588501 C7.25,7.51800012588501 4.25,7.51800012588501 4.25,7.51800012588501 C3.559999942779541,7.51800012588501 3,6.958000183105469 3,6.26800012588501 C3,6.26800012588501 3,2.7679998874664307 3,2.7679998874664307 C3,1.8079999685287476 2.2100000381469727,1.0180000066757202 1.25,1.0180000066757202 C1.25,1.0180000066757202 -1.25,1.0180000066757202 -1.25,1.0180000066757202 C-2.2100000381469727,1.0180000066757202 -3,1.8079999685287476 -3,2.7679998874664307 C-3,2.7679998874664307 -3,6.26800012588501 -3,6.26800012588501 C-3,6.958000183105469 -3.559999942779541,7.51800012588501 -4.25,7.51800012588501 C-4.25,7.51800012588501 -7.25,7.51800012588501 -7.25,7.51800012588501 C-7.389999866485596,7.51800012588501 -7.5,7.4079999923706055 -7.5,7.26800012588501 C-7.5,7.26800012588501 -7.5,-2.2119998931884766 -7.5,-2.2119998931884766 C-7.5,-2.2920000553131104 -7.460000038146973,-2.372999906539917 -7.389999866485596,-2.4230000972747803 C-7.389999866485596,-2.4230000972747803 -0.14000000059604645,-7.4730000495910645 -0.14000000059604645,-7.4730000495910645 C-0.05000000074505806,-7.5329999923706055 0.05999999865889549,-7.5329999923706055 0.15000000596046448,-7.4730000495910645 C0.15000000596046448,-7.4730000495910645 7.400000095367432,-2.4230000972747803 7.400000095367432,-2.4230000972747803 C7.46999979019165,-2.372999906539917 7.510000228881836,-2.302000045776367 7.510000228881836,-2.2119998931884766 C7.510000228881836,-2.2119998931884766 7.510000228881836,7.26800012588501 7.510000228881836,7.26800012588501 C7.510000228881836,7.26800012588501 7.5,7.26800012588501 7.5,7.26800012588501z"></path></g></g><g class="primary design" style="display: none;"><g><path stroke-linecap="round" stroke-linejoin="round" fill-opacity="0"></path></g></g></g><g clip-path="url(#__lottie_element_5933)" transform="matrix(1,0,0,1,0,0)" opacity="0" style="display: block;"><g class="primary design" style="display: none;" transform="matrix(20.829999923706055,0,0,20.829999923706055,250.0019989013672,249.63699340820312)" opacity="1"><g opacity="1" transform="matrix(1,0,0,1,0,0)"><path fill="rgb(255,255,255)" fill-opacity="1" d=" M8.25,-3.6429998874664307 C8.25,-3.6429998874664307 1,-8.70199966430664 1,-8.70199966430664 C0.4000000059604645,-9.121999740600586 -0.4000000059604645,-9.121999740600586 -1,-8.70199966430664 C-1,-8.70199966430664 -8.25,-3.6429998874664307 -8.25,-3.6429998874664307 C-8.720000267028809,-3.322999954223633 -9,-2.7820000648498535 -9,-2.2119998931884766 C-9,-2.2119998931884766 -9,7.26800012588501 -9,7.26800012588501 C-9,8.227999687194824 -8.210000038146973,9.017999649047852 -7.25,9.017999649047852 C-7.25,9.017999649047852 -4.25,9.017999649047852 -4.25,9.017999649047852 C-2.7300000190734863,9.017999649047852 -1.5,7.788000106811523 -1.5,6.26800012588501 C-1.5,6.26800012588501 -1.5,2.7679998874664307 -1.5,2.7679998874664307 C-1.5,2.628000020980835 -1.3899999856948853,2.5179998874664307 -1.25,2.5179998874664307 C-1.25,2.5179998874664307 1.25,2.5179998874664307 1.25,2.5179998874664307 C1.3899999856948853,2.5179998874664307 1.5,2.628000020980835 1.5,2.7679998874664307 C1.5,2.7679998874664307 1.5,6.26800012588501 1.5,6.26800012588501 C1.5,7.788000106811523 2.7300000190734863,9.017999649047852 4.25,9.017999649047852 C4.25,9.017999649047852 7.25,9.017999649047852 7.25,9.017999649047852 C8.210000038146973,9.017999649047852 9,8.227999687194824 9,7.26800012588501 C9,7.26800012588501 9,-2.2119998931884766 9,-2.2119998931884766 C9,-2.7820000648498535 8.720000267028809,-3.322999954223633 8.25,-3.6429998874664307z M7.5,7.26800012588501 C7.5,7.4079999923706055 7.389999866485596,7.51800012588501 7.25,7.51800012588501 C7.25,7.51800012588501 4.25,7.51800012588501 4.25,7.51800012588501 C3.559999942779541,7.51800012588501 3,6.958000183105469 3,6.26800012588501 C3,6.26800012588501 3,2.7679998874664307 3,2.7679998874664307 C3,1.8079999685287476 2.2100000381469727,1.0180000066757202 1.25,1.0180000066757202 C1.25,1.0180000066757202 -1.25,1.0180000066757202 -1.25,1.0180000066757202 C-2.2100000381469727,1.0180000066757202 -3,1.8079999685287476 -3,2.7679998874664307 C-3,2.7679998874664307 -3,6.26800012588501 -3,6.26800012588501 C-3,6.958000183105469 -3.559999942779541,7.51800012588501 -4.25,7.51800012588501 C-4.25,7.51800012588501 -7.25,7.51800012588501 -7.25,7.51800012588501 C-7.389999866485596,7.51800012588501 -7.5,7.4079999923706055 -7.5,7.26800012588501 C-7.5,7.26800012588501 -7.5,-2.2119998931884766 -7.5,-2.2119998931884766 C-7.5,-2.2920000553131104 -7.460000038146973,-2.372999906539917 -7.389999866485596,-2.4230000972747803 C-7.389999866485596,-2.4230000972747803 -0.14000000059604645,-7.4730000495910645 -0.14000000059604645,-7.4730000495910645 C-0.05000000074505806,-7.5329999923706055 0.05999999865889549,-7.5329999923706055 0.15000000596046448,-7.4730000495910645 C0.15000000596046448,-7.4730000495910645 7.400000095367432,-2.4230000972747803 7.400000095367432,-2.4230000972747803 C7.46999979019165,-2.372999906539917 7.510000228881836,-2.302000045776367 7.510000228881836,-2.2119998931884766 C7.510000228881836,-2.2119998931884766 7.510000228881836,7.26800012588501 7.510000228881836,7.26800012588501 C7.510000228881836,7.26800012588501 7.5,7.26800012588501 7.5,7.26800012588501z"></path></g></g><g class="primary design" style="display: none;"><g><path stroke-linecap="round" stroke-linejoin="round" fill-opacity="0"></path></g></g><g class="primary design" clip-path="url(#__lottie_element_5937)" style="display: none;"><g><path stroke-linecap="round" stroke-linejoin="round" fill-opacity="0"></path></g></g></g><g class="com" style="display: none;"><g><path></path></g><g><path></path></g><g><path></path></g><g><path></path></g><g><path></path></g><g><path></path></g><g><path></path></g><g><path></path></g><g><path></path></g><g><path></path></g><g><path></path></g><g><path></path></g></g></g></svg>