<svg xmlns="http://www.w3.org/2000/svg" viewBox="0 0 500 500" width="500" height="500" preserveAspectRatio="xMidYMid meet" style="width: 100%; height: 100%; transform: translate3d(0px, 0px, 0px); content-visibility: visible;"><defs><clipPath id="__lottie_element_1370"><rect width="500" height="500" x="0" y="0"></rect></clipPath><clipPath id="__lottie_element_1377"><path d="M0,0 L500,0 L500,500 L0,500z"></path></clipPath><clipPath id="__lottie_element_1396"><path d="M0,0 L500,0 L500,500 L0,500z"></path></clipPath><clipPath id="__lottie_element_1412"><path d="M0,0 L500,0 L500,500 L0,500z"></path></clipPath><clipPath id="__lottie_element_1425"><path d="M0,0 L500,0 L500,500 L0,500z"></path></clipPath></defs><g clip-path="url(#__lottie_element_1370)"><g clip-path="url(#__lottie_element_1425)" transform="matrix(1,0,0,1,0,0)" opacity="0" style="display: block;"><g class="primary design" style="display: none;" transform="matrix(1,0,0,1,-0.0000152587890625,0)" opacity="1"><g opacity="1" transform="matrix(1,0,0,1,250.0030059814453,218.75299072265625)"><path fill="rgb(255,255,255)" fill-opacity="1" d=" M128.41799926757812,-53.16899871826172 C136.4040069580078,-4.210000038146973 117.0459976196289,40.79199981689453 83.1510009765625,68.81900024414062 C73.49400329589844,76.80400085449219 67.70899963378906,88.49400329589844 67.70899963378906,101.02400207519531 C67.70899963378906,101.02400207519531 67.70899963378906,140.625 67.70899963378906,140.625 C67.70899963378906,152.13099670410156 58.38100051879883,161.45899963378906 46.875,161.45899963378906 C46.875,161.45899963378906 -46.875,161.45899963378906 -46.875,161.45899963378906 C-58.38100051879883,161.45899963378906 -67.70899963378906,152.13099670410156 -67.70899963378906,140.625 C-67.70899963378906,140.625 -67.70899963378906,100.99199676513672 -67.70899963378906,100.99199676513672 C-67.70899963378906,88.6500015258789 -73.20999908447266,76.9729995727539 -82.75299835205078,69.14600372314453 C-111.74600219726562,45.36600112915039 -130.20899963378906,9.211999893188477 -130.20899963378906,-31.25 C-130.20899963378906,-108.4280014038086 -62.95100021362305,-169.99200439453125 16.111000061035156,-160.48800659179688 C72.4800033569336,-153.71200561523438 119.27799987792969,-109.2040023803711 128.41799926757812,-53.16899871826172z"></path></g></g><g class="primary design" style="display: none;" transform="matrix(1,0,0,1,-0.0000152587890625,0)" opacity="1"><g opacity="1" transform="matrix(1,0,0,1,250.0030059814453,218.75299072265625)"><path stroke-linecap="round" stroke-linejoin="round" fill-opacity="0" stroke="rgb(255,255,255)" stroke-opacity="1" stroke-width="31.3" d=" M128.41799926757812,-53.16899871826172 C136.4040069580078,-4.210000038146973 117.0459976196289,40.79199981689453 83.1510009765625,68.81900024414062 C73.49400329589844,76.80400085449219 67.70899963378906,88.49400329589844 67.70899963378906,101.02400207519531 C67.70899963378906,101.02400207519531 67.70899963378906,140.625 67.70899963378906,140.625 C67.70899963378906,152.13099670410156 58.38100051879883,161.45899963378906 46.875,161.45899963378906 C46.875,161.45899963378906 -46.875,161.45899963378906 -46.875,161.45899963378906 C-58.38100051879883,161.45899963378906 -67.70899963378906,152.13099670410156 -67.70899963378906,140.625 C-67.70899963378906,140.625 -67.70899963378906,100.99199676513672 -67.70899963378906,100.99199676513672 C-67.70899963378906,88.6500015258789 -73.20999908447266,76.9729995727539 -82.75299835205078,69.14600372314453 C-111.74600219726562,45.36600112915039 -130.20899963378906,9.211999893188477 -130.20899963378906,-31.25 C-130.20899963378906,-108.4280014038086 -62.95100021362305,-169.99200439453125 16.111000061035156,-160.48800659179688 C72.4800033569336,-153.71200561523438 119.27799987792969,-109.2040023803711 128.41799926757812,-53.16899871826172z"></path></g><g opacity="1" transform="matrix(1,0,0,1,250.00399780273438,442.7120056152344)"><path stroke-linecap="round" stroke-linejoin="round" fill-opacity="0" stroke="rgb(255,255,255)" stroke-opacity="1" stroke-width="31.3" d=" M-57.29100036621094,0 C-57.29100036621094,0 57.29100036621094,0 57.29100036621094,0"></path></g></g><g class="primary design" transform="matrix(1,0,0,1,0,0)" opacity="1" style="display: block;"><g opacity="1" transform="matrix(1,0,0,1,250.0070037841797,218.76600646972656)"><path fill="rgb(255,255,255)" fill-opacity="1" d=" M46.87200164794922,177.0959930419922 C46.87200164794922,177.0959930419922 -46.87900161743164,177.0959930419922 -46.87900161743164,177.0959930419922 C-66.99600219726562,177.0959930419922 -83.36199951171875,160.72900390625 -83.36199951171875,140.61199951171875 C-83.36199951171875,140.61199951171875 -83.36199951171875,100.97899627685547 -83.36199951171875,100.97899627685547 C-83.36199951171875,93.28800201416016 -86.75900268554688,86.09100341796875 -92.68099975585938,81.23400115966797 C-126.47899627685547,53.51300048828125 -145.86199951171875,12.508999824523926 -145.86199951171875,-31.26300048828125 C-145.86199951171875,-72.93299865722656 -127.95700073242188,-112.71499633789062 -96.73699951171875,-140.406005859375 C-65.552001953125,-168.0659942626953 -23.746999740600586,-181.05299377441406 17.97599983215332,-176.03900146484375 C48.60100173950195,-172.35699462890625 78.00599670410156,-158.36500549316406 100.7770004272461,-136.63600158691406 C123.5989990234375,-114.85700225830078 138.89999389648438,-86.11399841308594 143.86099243164062,-55.70100021362305 C143.86099243164062,-55.70100021362305 143.86099243164062,-55.70100021362305 143.86099243164062,-55.70100021362305 C152.375,-3.497999906539917 133.406005859375,47.55500030517578 93.12000274658203,80.86699676513672 C86.91400146484375,85.99800109863281 83.35600280761719,93.33999633789062 83.35600280761719,101.01100158691406 C83.35600280761719,101.01100158691406 83.35600280761719,140.61199951171875 83.35600280761719,140.61199951171875 C83.35600280761719,160.72900390625 66.98899841308594,177.0959930419922 46.87200164794922,177.0959930419922z M-0.1589999943971634,-145.83200073242188 C-28.22100067138672,-145.83200073242188 -54.71900177001953,-135.83700561523438 -75.96800231933594,-116.98999786376953 C-100.49500274658203,-95.23500061035156 -114.56099700927734,-63.987998962402344 -114.56099700927734,-31.26300048828125 C-114.56099700927734,3.0980000495910645 -99.35199737548828,35.28099822998047 -72.83100128173828,57.03300094604492 C-59.63199996948242,67.85900115966797 -52.06100082397461,83.87699890136719 -52.06100082397461,100.97899627685547 C-52.06100082397461,100.97899627685547 -52.06100082397461,140.61199951171875 -52.06100082397461,140.61199951171875 C-52.06100082397461,143.47000122070312 -49.73699951171875,145.79600524902344 -46.87900161743164,145.79600524902344 C-46.87900161743164,145.79600524902344 46.87200164794922,145.79600524902344 46.87200164794922,145.79600524902344 C49.72999954223633,145.79600524902344 52.05500030517578,143.47000122070312 52.05500030517578,140.61199951171875 C52.05500030517578,140.61199951171875 52.05500030517578,101.01100158691406 52.05500030517578,101.01100158691406 C52.05500030517578,83.97599792480469 59.75299835205078,67.84300231933594 73.17500305175781,56.744998931884766 C104.79499816894531,30.599000930786133 119.66999816894531,-9.557000160217285 112.96800231933594,-50.6619987487793 C112.96800231933594,-50.6619987487793 112.96800231933594,-50.6619987487793 112.96800231933594,-50.6619987487793 C105.02200317382812,-99.38200378417969 63.5,-139.04100036621094 14.23900032043457,-144.96299743652344 C9.406999588012695,-145.54400634765625 4.60099983215332,-145.83200073242188 -0.1589999943971634,-145.83200073242188z"></path></g><g opacity="1" transform="matrix(1,0,0,1,250.0030059814453,442.7120056152344)"><path fill="rgb(255,255,255)" fill-opacity="1" d=" M57.29199981689453,15.649999618530273 C57.29199981689453,15.649999618530273 -57.29199981689453,15.649999618530273 -57.29199981689453,15.649999618530273 C-65.93599700927734,15.649999618530273 -72.94200134277344,8.642999649047852 -72.94200134277344,0 C-72.94200134277344,-8.642999649047852 -65.93599700927734,-15.649999618530273 -57.29199981689453,-15.649999618530273 C-57.29199981689453,-15.649999618530273 57.29199981689453,-15.649999618530273 57.29199981689453,-15.649999618530273 C65.93599700927734,-15.649999618530273 72.94200134277344,-8.642999649047852 72.94200134277344,0 C72.94200134277344,8.642999649047852 65.93599700927734,15.649999618530273 57.29199981689453,15.649999618530273z"></path></g></g><g class="primary design" style="display: none;" transform="matrix(1,0,0,1,0,0)" opacity="1"><g opacity="1" transform="matrix(1,0,0,1,250.0070037841797,218.76600646972656)"><path fill="rgb(255,255,255)" fill-opacity="1" d=" M46.87200164794922,177.0959930419922 C46.87200164794922,177.0959930419922 -46.87900161743164,177.0959930419922 -46.87900161743164,177.0959930419922 C-66.99600219726562,177.0959930419922 -83.36199951171875,160.72900390625 -83.36199951171875,140.61199951171875 C-83.36199951171875,140.61199951171875 -83.36199951171875,100.97899627685547 -83.36199951171875,100.97899627685547 C-83.36199951171875,93.28800201416016 -86.75900268554688,86.09100341796875 -92.68099975585938,81.23400115966797 C-126.47899627685547,53.51300048828125 -145.86199951171875,12.508999824523926 -145.86199951171875,-31.26300048828125 C-145.86199951171875,-72.93299865722656 -127.95700073242188,-112.71499633789062 -96.73699951171875,-140.406005859375 C-65.552001953125,-168.0659942626953 -23.746999740600586,-181.05299377441406 17.97599983215332,-176.03900146484375 C48.60100173950195,-172.35699462890625 78.00599670410156,-158.36500549316406 100.7770004272461,-136.63600158691406 C123.5989990234375,-114.85700225830078 138.89999389648438,-86.11399841308594 143.86099243164062,-55.70100021362305 C143.86099243164062,-55.70100021362305 143.86099243164062,-55.70100021362305 143.86099243164062,-55.70100021362305 C152.375,-3.497999906539917 133.406005859375,47.55500030517578 93.12000274658203,80.86699676513672 C86.91400146484375,85.99800109863281 83.35600280761719,93.33999633789062 83.35600280761719,101.01100158691406 C83.35600280761719,101.01100158691406 83.35600280761719,140.61199951171875 83.35600280761719,140.61199951171875 C83.35600280761719,160.72900390625 66.98899841308594,177.0959930419922 46.87200164794922,177.0959930419922z"></path></g><g opacity="1" transform="matrix(1,0,0,1,250.0030059814453,442.7120056152344)"><path fill="rgb(255,255,255)" fill-opacity="1" d=" M57.29199981689453,15.649999618530273 C57.29199981689453,15.649999618530273 -57.29199981689453,15.649999618530273 -57.29199981689453,15.649999618530273 C-65.93599700927734,15.649999618530273 -72.94200134277344,8.642999649047852 -72.94200134277344,0 C-72.94200134277344,-8.642999649047852 -65.93599700927734,-15.649999618530273 -57.29199981689453,-15.649999618530273 C-57.29199981689453,-15.649999618530273 57.29199981689453,-15.649999618530273 57.29199981689453,-15.649999618530273 C65.93599700927734,-15.649999618530273 72.94200134277344,-8.642999649047852 72.94200134277344,0 C72.94200134277344,8.642999649047852 65.93599700927734,15.649999618530273 57.29199981689453,15.649999618530273z"></path></g></g></g><g clip-path="url(#__lottie_element_1412)" transform="matrix(1,0,0,1,0,0)" opacity="0" style="display: block;"><g class="primary design" style="display: none;" transform="matrix(1,0,0,1,0,0)" opacity="1"><g opacity="1" transform="matrix(1,0,0,1,250.0030059814453,218.75299072265625)"><path stroke-linecap="round" stroke-linejoin="round" fill-opacity="0" stroke="rgb(255,255,255)" stroke-opacity="1" stroke-width="31.3" d=" M128.41799926757812,-53.16899871826172 C136.4040069580078,-4.2099995613098145 117.0459976196289,40.79199981689453 83.1510009765625,68.81900024414062 C73.49400329589844,76.80400085449219 67.70899963378906,88.49400329589844 67.70899963378906,101.02400207519531 C67.70899963378906,101.02400207519531 67.70899963378906,140.625 67.70899963378906,140.625 C67.70899963378906,152.13099670410156 58.38100051879883,161.45899963378906 46.875,161.45899963378906 C46.875,161.45899963378906 -46.875,161.45899963378906 -46.875,161.45899963378906 C-58.38100051879883,161.45899963378906 -67.70899963378906,152.13099670410156 -67.70899963378906,140.625 C-67.70899963378906,140.625 -67.70899963378906,100.99200439453125 -67.70899963378906,100.99200439453125 C-67.70899963378906,88.6500015258789 -73.20999908447266,76.9729995727539 -82.75299835205078,69.14600372314453 C-111.74600219726562,45.36600112915039 -130.20899963378906,9.212000846862793 -130.20899963378906,-31.25 C-130.20899963378906,-108.4280014038086 -62.95100021362305,-169.99200439453125 16.111000061035156,-160.48800659179688 C72.4800033569336,-153.71200561523438 119.27799987792969,-109.2040023803711 128.41799926757812,-53.16899871826172z"></path><path fill="rgb(255,255,255)" fill-opacity="0" d=" M128.41799926757812,-53.16899871826172 C136.4040069580078,-4.2099995613098145 117.0459976196289,40.79199981689453 83.1510009765625,68.81900024414062 C73.49400329589844,76.80400085449219 67.70899963378906,88.49400329589844 67.70899963378906,101.02400207519531 C67.70899963378906,101.02400207519531 67.70899963378906,140.625 67.70899963378906,140.625 C67.70899963378906,152.13099670410156 58.38100051879883,161.45899963378906 46.875,161.45899963378906 C46.875,161.45899963378906 -46.875,161.45899963378906 -46.875,161.45899963378906 C-58.38100051879883,161.45899963378906 -67.70899963378906,152.13099670410156 -67.70899963378906,140.625 C-67.70899963378906,140.625 -67.70899963378906,100.99200439453125 -67.70899963378906,100.99200439453125 C-67.70899963378906,88.6500015258789 -73.20999908447266,76.9729995727539 -82.75299835205078,69.14600372314453 C-111.74600219726562,45.36600112915039 -130.20899963378906,9.212000846862793 -130.20899963378906,-31.25 C-130.20899963378906,-108.4280014038086 -62.95100021362305,-169.99200439453125 16.111000061035156,-160.48800659179688 C72.4800033569336,-153.71200561523438 119.27799987792969,-109.2040023803711 128.41799926757812,-53.16899871826172z"></path></g><g opacity="1" transform="matrix(1,0,0,1,250.00399780273438,442.7120056152344)"><path stroke-linecap="round" stroke-linejoin="round" fill-opacity="0" stroke="rgb(255,255,255)" stroke-opacity="1" stroke-width="31.3" d=" M-57.29100036621094,0 C-57.29100036621094,0 57.29100036621094,0 57.29100036621094,0"></path></g></g><g class="primary design" transform="matrix(1,0,0,1,0,0)" opacity="1" style="display: block;"><g opacity="1" transform="matrix(1,0,0,1,250.0070037841797,218.76600646972656)"><path fill="rgb(255,255,255)" fill-opacity="1" d=" M46.87200164794922,177.0959930419922 C46.87200164794922,177.0959930419922 -46.87900161743164,177.0959930419922 -46.87900161743164,177.0959930419922 C-66.99600219726562,177.0959930419922 -83.36199951171875,160.72900390625 -83.36199951171875,140.61199951171875 C-83.36199951171875,140.61199951171875 -83.36199951171875,100.97899627685547 -83.36199951171875,100.97899627685547 C-83.36199951171875,93.28800201416016 -86.75900268554688,86.09100341796875 -92.68099975585938,81.23400115966797 C-126.47899627685547,53.51300048828125 -145.86199951171875,12.508999824523926 -145.86199951171875,-31.26300048828125 C-145.86199951171875,-72.93299865722656 -127.95700073242188,-112.71499633789062 -96.73699951171875,-140.406005859375 C-65.552001953125,-168.0659942626953 -23.746999740600586,-181.05299377441406 17.97599983215332,-176.03900146484375 C48.60100173950195,-172.35699462890625 78.00599670410156,-158.36500549316406 100.7770004272461,-136.63600158691406 C123.5989990234375,-114.85700225830078 138.89999389648438,-86.11399841308594 143.86099243164062,-55.70100021362305 C143.86099243164062,-55.70100021362305 143.86099243164062,-55.70100021362305 143.86099243164062,-55.70100021362305 C152.375,-3.497999906539917 133.406005859375,47.55500030517578 93.12000274658203,80.86699676513672 C86.91400146484375,85.99800109863281 83.35600280761719,93.33999633789062 83.35600280761719,101.01100158691406 C83.35600280761719,101.01100158691406 83.35600280761719,140.61199951171875 83.35600280761719,140.61199951171875 C83.35600280761719,160.72900390625 66.98899841308594,177.0959930419922 46.87200164794922,177.0959930419922z"></path></g><g opacity="1" transform="matrix(1,0,0,1,250.0030059814453,442.7120056152344)"><path fill="rgb(255,255,255)" fill-opacity="1" d=" M57.29199981689453,15.649999618530273 C57.29199981689453,15.649999618530273 -57.29199981689453,15.649999618530273 -57.29199981689453,15.649999618530273 C-65.93599700927734,15.649999618530273 -72.94200134277344,8.642999649047852 -72.94200134277344,0 C-72.94200134277344,-8.642999649047852 -65.93599700927734,-15.649999618530273 -57.29199981689453,-15.649999618530273 C-57.29199981689453,-15.649999618530273 57.29199981689453,-15.649999618530273 57.29199981689453,-15.649999618530273 C65.93599700927734,-15.649999618530273 72.94200134277344,-8.642999649047852 72.94200134277344,0 C72.94200134277344,8.642999649047852 65.93599700927734,15.649999618530273 57.29199981689453,15.649999618530273z"></path></g></g><g class="primary design" style="display: none;" transform="matrix(1,0,0,1,0,0)" opacity="1"><g opacity="1" transform="matrix(1,0,0,1,250.0070037841797,218.76600646972656)"><path fill="rgb(255,255,255)" fill-opacity="1" d=" M46.87200164794922,177.0959930419922 C46.87200164794922,177.0959930419922 -46.87900161743164,177.0959930419922 -46.87900161743164,177.0959930419922 C-66.99600219726562,177.0959930419922 -83.36199951171875,160.72900390625 -83.36199951171875,140.61199951171875 C-83.36199951171875,140.61199951171875 -83.36199951171875,100.97899627685547 -83.36199951171875,100.97899627685547 C-83.36199951171875,93.28800201416016 -86.75900268554688,86.09100341796875 -92.68099975585938,81.23400115966797 C-126.47899627685547,53.51300048828125 -145.86199951171875,12.508999824523926 -145.86199951171875,-31.26300048828125 C-145.86199951171875,-72.93299865722656 -127.95700073242188,-112.71499633789062 -96.73699951171875,-140.406005859375 C-65.552001953125,-168.0659942626953 -23.746999740600586,-181.05299377441406 17.97599983215332,-176.03900146484375 C48.60100173950195,-172.35699462890625 78.00599670410156,-158.36500549316406 100.7770004272461,-136.63600158691406 C123.5989990234375,-114.85700225830078 138.89999389648438,-86.11399841308594 143.86099243164062,-55.70100021362305 C143.86099243164062,-55.70100021362305 143.86099243164062,-55.70100021362305 143.86099243164062,-55.70100021362305 C152.375,-3.497999906539917 133.406005859375,47.55500030517578 93.12000274658203,80.86699676513672 C86.91400146484375,85.99800109863281 83.35600280761719,93.33999633789062 83.35600280761719,101.01100158691406 C83.35600280761719,101.01100158691406 83.35600280761719,140.61199951171875 83.35600280761719,140.61199951171875 C83.35600280761719,160.72900390625 66.98899841308594,177.0959930419922 46.87200164794922,177.0959930419922z M-0.1589999943971634,-145.83200073242188 C-28.22100067138672,-145.83200073242188 -54.71900177001953,-135.83700561523438 -75.96800231933594,-116.98999786376953 C-100.49500274658203,-95.23500061035156 -114.56099700927734,-63.987998962402344 -114.56099700927734,-31.26300048828125 C-114.56099700927734,3.0980000495910645 -99.35199737548828,35.28099822998047 -72.83100128173828,57.03300094604492 C-59.63199996948242,67.85900115966797 -52.06100082397461,83.87699890136719 -52.06100082397461,100.97899627685547 C-52.06100082397461,100.97899627685547 -52.06100082397461,140.61199951171875 -52.06100082397461,140.61199951171875 C-52.06100082397461,143.47000122070312 -49.73699951171875,145.79600524902344 -46.87900161743164,145.79600524902344 C-46.87900161743164,145.79600524902344 46.87200164794922,145.79600524902344 46.87200164794922,145.79600524902344 C49.72999954223633,145.79600524902344 52.05500030517578,143.47000122070312 52.05500030517578,140.61199951171875 C52.05500030517578,140.61199951171875 52.05500030517578,101.01100158691406 52.05500030517578,101.01100158691406 C52.05500030517578,83.97599792480469 59.75299835205078,67.84300231933594 73.17500305175781,56.744998931884766 C104.79499816894531,30.599000930786133 119.66999816894531,-9.557000160217285 112.96800231933594,-50.6619987487793 C112.96800231933594,-50.6619987487793 112.96800231933594,-50.6619987487793 112.96800231933594,-50.6619987487793 C105.02200317382812,-99.38200378417969 63.5,-139.04100036621094 14.23900032043457,-144.96299743652344 C9.406999588012695,-145.54400634765625 4.60099983215332,-145.83200073242188 -0.1589999943971634,-145.83200073242188z"></path></g><g opacity="1" transform="matrix(1,0,0,1,250.0030059814453,442.7120056152344)"><path fill="rgb(255,255,255)" fill-opacity="1" d=" M57.29199981689453,15.649999618530273 C57.29199981689453,15.649999618530273 -57.29199981689453,15.649999618530273 -57.29199981689453,15.649999618530273 C-65.93599700927734,15.649999618530273 -72.94200134277344,8.642999649047852 -72.94200134277344,0 C-72.94200134277344,-8.642999649047852 -65.93599700927734,-15.649999618530273 -57.29199981689453,-15.649999618530273 C-57.29199981689453,-15.649999618530273 57.29199981689453,-15.649999618530273 57.29199981689453,-15.649999618530273 C65.93599700927734,-15.649999618530273 72.94200134277344,-8.642999649047852 72.94200134277344,0 C72.94200134277344,8.642999649047852 65.93599700927734,15.649999618530273 57.29199981689453,15.649999618530273z"></path></g></g></g><g clip-path="url(#__lottie_element_1396)" transform="matrix(1,0,0,1,0,0)" opacity="1" style="display: block;"><g class="primary design" style="display: none;" transform="matrix(0.9969317317008972,0.0782756432890892,-0.0782756432890892,0.9969317317008972,35.42063903808594,-18.210784912109375)" opacity="1"><g opacity="1" transform="matrix(0.9923152327537537,0.12373548001050949,-0.12373548001050949,0.9923152327537537,277.59600830078125,220.46669006347656)"><path fill="rgb(255,255,255)" fill-opacity="1" d=" M128.41799926757812,-53.16899871826172 C136.4040069580078,-4.210000038146973 117.0459976196289,40.79199981689453 83.1510009765625,68.81900024414062 C73.49400329589844,76.80400085449219 67.70899963378906,88.49400329589844 67.70899963378906,101.02400207519531 C67.70899963378906,101.02400207519531 67.70899963378906,140.625 67.70899963378906,140.625 C67.70899963378906,152.13099670410156 58.38100051879883,161.45899963378906 46.875,161.45899963378906 C46.875,161.45899963378906 -46.875,161.45899963378906 -46.875,161.45899963378906 C-58.38100051879883,161.45899963378906 -67.70899963378906,152.13099670410156 -67.70899963378906,140.625 C-67.70899963378906,140.625 -67.70899963378906,100.99199676513672 -67.70899963378906,100.99199676513672 C-67.70899963378906,88.6500015258789 -73.20999908447266,76.9729995727539 -82.75299835205078,69.14600372314453 C-111.74600219726562,45.36600112915039 -130.20899963378906,9.211999893188477 -130.20899963378906,-31.25 C-130.20899963378906,-108.4280014038086 -62.95100021362305,-169.99200439453125 16.111000061035156,-160.48800659179688 C72.4800033569336,-153.71200561523438 119.27799987792969,-109.2040023803711 128.41799926757812,-53.16899871826172z"></path></g></g><g class="primary design" style="display: none;" transform="matrix(1,0,0,1,-0.0000152587890625,0)" opacity="1"><g opacity="1" transform="matrix(1,0,0,1,250.0030059814453,218.75299072265625)"><path stroke-linecap="round" stroke-linejoin="round" fill-opacity="0" stroke="rgb(255,255,255)" stroke-opacity="1" stroke-width="31.3" d=" M128.41799926757812,-53.16899871826172 C136.4040069580078,-4.210000038146973 117.0459976196289,40.79199981689453 83.1510009765625,68.81900024414062 C73.49400329589844,76.80400085449219 67.70899963378906,88.49400329589844 67.70899963378906,101.02400207519531 C67.70899963378906,101.02400207519531 67.70899963378906,140.625 67.70899963378906,140.625 C67.70899963378906,152.13099670410156 58.38100051879883,161.45899963378906 46.875,161.45899963378906 C46.875,161.45899963378906 -46.875,161.45899963378906 -46.875,161.45899963378906 C-58.38100051879883,161.45899963378906 -67.70899963378906,152.13099670410156 -67.70899963378906,140.625 C-67.70899963378906,140.625 -67.70899963378906,100.99199676513672 -67.70899963378906,100.99199676513672 C-67.70899963378906,88.6500015258789 -73.20999908447266,76.9729995727539 -82.75299835205078,69.14600372314453 C-111.74600219726562,45.36600112915039 -130.20899963378906,9.211999893188477 -130.20899963378906,-31.25 C-130.20899963378906,-108.4280014038086 -62.95100021362305,-169.99200439453125 16.111000061035156,-160.48800659179688 C72.4800033569336,-153.71200561523438 119.27799987792969,-109.2040023803711 128.41799926757812,-53.16899871826172z"></path></g><g opacity="1" transform="matrix(1,0,0,1,250.00399780273438,442.7120056152344)"><path stroke-linecap="round" stroke-linejoin="round" fill-opacity="0" stroke="rgb(255,255,255)" stroke-opacity="1" stroke-width="31.3" d=" M-57.29100036621094,0 C-57.29100036621094,0 57.29100036621094,0 57.29100036621094,0"></path></g></g><g class="primary design" transform="matrix(1,0,0,1,0,0)" opacity="1" style="display: block;"><g opacity="1" transform="matrix(1,0,0,1,250.0070037841797,218.76600646972656)"><path fill="rgb(255,255,255)" fill-opacity="1" d=" M46.87200164794922,177.0959930419922 C46.87200164794922,177.0959930419922 -46.87900161743164,177.0959930419922 -46.87900161743164,177.0959930419922 C-66.99600219726562,177.0959930419922 -83.36199951171875,160.72900390625 -83.36199951171875,140.61199951171875 C-83.36199951171875,140.61199951171875 -83.36199951171875,100.97899627685547 -83.36199951171875,100.97899627685547 C-83.36199951171875,93.28800201416016 -86.75900268554688,86.09100341796875 -92.68099975585938,81.23400115966797 C-126.47899627685547,53.51300048828125 -145.86199951171875,12.508999824523926 -145.86199951171875,-31.26300048828125 C-145.86199951171875,-72.93299865722656 -127.95700073242188,-112.71499633789062 -96.73699951171875,-140.406005859375 C-65.552001953125,-168.0659942626953 -23.746999740600586,-181.05299377441406 17.97599983215332,-176.03900146484375 C48.60100173950195,-172.35699462890625 78.00599670410156,-158.36500549316406 100.7770004272461,-136.63600158691406 C123.5989990234375,-114.85700225830078 138.89999389648438,-86.11399841308594 143.86099243164062,-55.70100021362305 C143.86099243164062,-55.70100021362305 143.86099243164062,-55.70100021362305 143.86099243164062,-55.70100021362305 C152.375,-3.497999906539917 133.406005859375,47.55500030517578 93.12000274658203,80.86699676513672 C86.91400146484375,85.99800109863281 83.35600280761719,93.33999633789062 83.35600280761719,101.01100158691406 C83.35600280761719,101.01100158691406 83.35600280761719,140.61199951171875 83.35600280761719,140.61199951171875 C83.35600280761719,160.72900390625 66.98899841308594,177.0959930419922 46.87200164794922,177.0959930419922z M-0.1589999943971634,-145.83200073242188 C-28.22100067138672,-145.83200073242188 -54.71900177001953,-135.83700561523438 -75.96800231933594,-116.98999786376953 C-100.49500274658203,-95.23500061035156 -114.56099700927734,-63.987998962402344 -114.56099700927734,-31.26300048828125 C-114.56099700927734,3.0980000495910645 -99.35199737548828,35.28099822998047 -72.83100128173828,57.03300094604492 C-59.63199996948242,67.85900115966797 -52.06100082397461,83.87699890136719 -52.06100082397461,100.97899627685547 C-52.06100082397461,100.97899627685547 -52.06100082397461,140.61199951171875 -52.06100082397461,140.61199951171875 C-52.06100082397461,143.47000122070312 -49.73699951171875,145.79600524902344 -46.87900161743164,145.79600524902344 C-46.87900161743164,145.79600524902344 46.87200164794922,145.79600524902344 46.87200164794922,145.79600524902344 C49.72999954223633,145.79600524902344 52.05500030517578,143.47000122070312 52.05500030517578,140.61199951171875 C52.05500030517578,140.61199951171875 52.05500030517578,101.01100158691406 52.05500030517578,101.01100158691406 C52.05500030517578,83.97599792480469 59.75299835205078,67.84300231933594 73.17500305175781,56.744998931884766 C104.79499816894531,30.599000930786133 119.66999816894531,-9.557000160217285 112.96800231933594,-50.6619987487793 C112.96800231933594,-50.6619987487793 112.96800231933594,-50.6619987487793 112.96800231933594,-50.6619987487793 C105.02200317382812,-99.38200378417969 63.5,-139.04100036621094 14.23900032043457,-144.96299743652344 C9.406999588012695,-145.54400634765625 4.60099983215332,-145.83200073242188 -0.1589999943971634,-145.83200073242188z"></path></g><g opacity="1" transform="matrix(1,0,0,1,250.0030059814453,442.7120056152344)"><path fill="rgb(255,255,255)" fill-opacity="1" d=" M57.29199981689453,15.649999618530273 C57.29199981689453,15.649999618530273 -57.29199981689453,15.649999618530273 -57.29199981689453,15.649999618530273 C-65.93599700927734,15.649999618530273 -72.94200134277344,8.642999649047852 -72.94200134277344,0 C-72.94200134277344,-8.642999649047852 -65.93599700927734,-15.649999618530273 -57.29199981689453,-15.649999618530273 C-57.29199981689453,-15.649999618530273 57.29199981689453,-15.649999618530273 57.29199981689453,-15.649999618530273 C65.93599700927734,-15.649999618530273 72.94200134277344,-8.642999649047852 72.94200134277344,0 C72.94200134277344,8.642999649047852 65.93599700927734,15.649999618530273 57.29199981689453,15.649999618530273z"></path></g></g><g class="primary design" style="display: none;" transform="matrix(1,0,0,1,0,0)" opacity="1"><g opacity="1" transform="matrix(1,0,0,1,250.0070037841797,218.76600646972656)"><path fill="rgb(255,255,255)" fill-opacity="1" d=" M46.87200164794922,177.0959930419922 C46.87200164794922,177.0959930419922 -46.87900161743164,177.0959930419922 -46.87900161743164,177.0959930419922 C-66.99600219726562,177.0959930419922 -83.36199951171875,160.72900390625 -83.36199951171875,140.61199951171875 C-83.36199951171875,140.61199951171875 -83.36199951171875,100.97899627685547 -83.36199951171875,100.97899627685547 C-83.36199951171875,93.28800201416016 -86.75900268554688,86.09100341796875 -92.68099975585938,81.23400115966797 C-126.47899627685547,53.51300048828125 -145.86199951171875,12.508999824523926 -145.86199951171875,-31.26300048828125 C-145.86199951171875,-72.93299865722656 -127.95700073242188,-112.71499633789062 -96.73699951171875,-140.406005859375 C-65.552001953125,-168.0659942626953 -23.746999740600586,-181.05299377441406 17.97599983215332,-176.03900146484375 C48.60100173950195,-172.35699462890625 78.00599670410156,-158.36500549316406 100.7770004272461,-136.63600158691406 C123.5989990234375,-114.85700225830078 138.89999389648438,-86.11399841308594 143.86099243164062,-55.70100021362305 C143.86099243164062,-55.70100021362305 143.86099243164062,-55.70100021362305 143.86099243164062,-55.70100021362305 C152.375,-3.497999906539917 133.406005859375,47.55500030517578 93.12000274658203,80.86699676513672 C86.91400146484375,85.99800109863281 83.35600280761719,93.33999633789062 83.35600280761719,101.01100158691406 C83.35600280761719,101.01100158691406 83.35600280761719,140.61199951171875 83.35600280761719,140.61199951171875 C83.35600280761719,160.72900390625 66.98899841308594,177.0959930419922 46.87200164794922,177.0959930419922z M-0.1589999943971634,-145.83200073242188 C-28.22100067138672,-145.83200073242188 -54.71900177001953,-135.83700561523438 -75.96800231933594,-116.98999786376953 C-100.49500274658203,-95.23500061035156 -114.56099700927734,-63.987998962402344 -114.56099700927734,-31.26300048828125 C-114.56099700927734,3.0980000495910645 -99.35199737548828,35.28099822998047 -72.83100128173828,57.03300094604492 C-59.63199996948242,67.85900115966797 -52.06100082397461,83.87699890136719 -52.06100082397461,100.97899627685547 C-52.06100082397461,100.97899627685547 -52.06100082397461,140.61199951171875 -52.06100082397461,140.61199951171875 C-52.06100082397461,143.47000122070312 -49.73699951171875,145.79600524902344 -46.87900161743164,145.79600524902344 C-46.87900161743164,145.79600524902344 46.87200164794922,145.79600524902344 46.87200164794922,145.79600524902344 C49.72999954223633,145.79600524902344 52.05500030517578,143.47000122070312 52.05500030517578,140.61199951171875 C52.05500030517578,140.61199951171875 52.05500030517578,101.01100158691406 52.05500030517578,101.01100158691406 C52.05500030517578,83.97599792480469 59.75299835205078,67.84300231933594 73.17500305175781,56.744998931884766 C104.79499816894531,30.599000930786133 119.66999816894531,-9.557000160217285 112.96800231933594,-50.6619987487793 C112.96800231933594,-50.6619987487793 112.96800231933594,-50.6619987487793 112.96800231933594,-50.6619987487793 C105.02200317382812,-99.38200378417969 63.5,-139.04100036621094 14.23900032043457,-144.96299743652344 C9.406999588012695,-145.54400634765625 4.60099983215332,-145.83200073242188 -0.1589999943971634,-145.83200073242188z"></path></g><g opacity="1" transform="matrix(1,0,0,1,250.0030059814453,442.7120056152344)"><path fill="rgb(255,255,255)" fill-opacity="1" d=" M57.29199981689453,15.649999618530273 C57.29199981689453,15.649999618530273 -57.29199981689453,15.649999618530273 -57.29199981689453,15.649999618530273 C-65.93599700927734,15.649999618530273 -72.94200134277344,8.642999649047852 -72.94200134277344,0 C-72.94200134277344,-8.642999649047852 -65.93599700927734,-15.649999618530273 -57.29199981689453,-15.649999618530273 C-57.29199981689453,-15.649999618530273 57.29199981689453,-15.649999618530273 57.29199981689453,-15.649999618530273 C65.93599700927734,-15.649999618530273 72.94200134277344,-8.642999649047852 72.94200134277344,0 C72.94200134277344,8.642999649047852 65.93599700927734,15.649999618530273 57.29199981689453,15.649999618530273z"></path></g></g></g><g clip-path="url(#__lottie_element_1377)" transform="matrix(1,0,0,1,0,0)" opacity="0" style="display: block;"><g class="primary design" style="display: none;" transform="matrix(0.9993908405303955,-0.034899480640888214,0.034899480640888214,0.9993908405303955,-15.298110961914062,8.994659423828125)" opacity="1"><g opacity="1" transform="matrix(1,0,0,1,250.0030059814453,218.75299072265625)"><path fill="rgb(255,255,255)" fill-opacity="1" d=" M128.41799926757812,-53.16899871826172 C136.4040069580078,-4.210000038146973 117.0459976196289,40.79199981689453 83.1510009765625,68.81900024414062 C73.49400329589844,76.80400085449219 67.70899963378906,88.49400329589844 67.70899963378906,101.02400207519531 C67.70899963378906,101.02400207519531 67.70899963378906,140.625 67.70899963378906,140.625 C67.70899963378906,152.13099670410156 58.38100051879883,161.45899963378906 46.875,161.45899963378906 C46.875,161.45899963378906 -46.875,161.45899963378906 -46.875,161.45899963378906 C-58.38100051879883,161.45899963378906 -67.70899963378906,152.13099670410156 -67.70899963378906,140.625 C-67.70899963378906,140.625 -67.70899963378906,100.99199676513672 -67.70899963378906,100.99199676513672 C-67.70899963378906,88.6500015258789 -73.20999908447266,76.9729995727539 -82.75299835205078,69.14600372314453 C-111.74600219726562,45.36600112915039 -130.20899963378906,9.211999893188477 -130.20899963378906,-31.25 C-130.20899963378906,-108.4280014038086 -62.95100021362305,-169.99200439453125 16.111000061035156,-160.48800659179688 C72.4800033569336,-153.71200561523438 119.27799987792969,-109.2040023803711 128.41799926757812,-53.16899871826172z"></path></g></g><g class="primary design" style="display: none;" transform="matrix(1,0,0,1,0,0)" opacity="1"><g opacity="1" transform="matrix(1,0,0,1,250.00399780273438,442.7120056152344)"><path stroke-linecap="round" stroke-linejoin="round" fill-opacity="0" stroke="rgb(255,255,255)" stroke-opacity="1" stroke-width="31.3" d=" M-57.29100036621094,0 C-57.29100036621094,0 57.29100036621094,0 57.29100036621094,0"></path></g></g><g class="primary design" style="display: none;" transform="matrix(1,0,0,1,0,0)" opacity="1"><g opacity="1" transform="matrix(1,0,0,1,250.0030059814453,218.75299072265625)"><path stroke-linecap="round" stroke-linejoin="round" fill-opacity="0" stroke="rgb(255,255,255)" stroke-opacity="1" stroke-width="31.3" d=" M128.41799926757812,-53.16899871826172 C136.4040069580078,-4.210000038146973 117.0459976196289,40.79199981689453 83.1510009765625,68.81900024414062 C73.49400329589844,76.80400085449219 67.70899963378906,88.49400329589844 67.70899963378906,101.02400207519531 C67.70899963378906,101.02400207519531 67.70899963378906,140.625 67.70899963378906,140.625 C67.70899963378906,152.13099670410156 58.38100051879883,161.45899963378906 46.875,161.45899963378906 C46.875,161.45899963378906 -46.875,161.45899963378906 -46.875,161.45899963378906 C-58.38100051879883,161.45899963378906 -67.70899963378906,152.13099670410156 -67.70899963378906,140.625 C-67.70899963378906,140.625 -67.70899963378906,100.99199676513672 -67.70899963378906,100.99199676513672 C-67.70899963378906,88.6500015258789 -73.20999908447266,76.9729995727539 -82.75299835205078,69.14600372314453 C-111.74600219726562,45.36600112915039 -130.20899963378906,9.211999893188477 -130.20899963378906,-31.25 C-130.20899963378906,-108.4280014038086 -62.95100021362305,-169.99200439453125 16.111000061035156,-160.48800659179688 C72.4800033569336,-153.71200561523438 119.27799987792969,-109.2040023803711 128.41799926757812,-53.16899871826172z"></path></g></g><g class="primary design" style="display: none;" transform="matrix(1,0,0,1,0,0)" opacity="1"><g opacity="1" transform="matrix(1,0,0,1,250.0070037841797,218.76600646972656)"><path fill="rgb(255,255,255)" fill-opacity="1" d=" M46.87200164794922,177.0959930419922 C46.87200164794922,177.0959930419922 -46.87900161743164,177.0959930419922 -46.87900161743164,177.0959930419922 C-66.99600219726562,177.0959930419922 -83.36199951171875,160.72900390625 -83.36199951171875,140.61199951171875 C-83.36199951171875,140.61199951171875 -83.36199951171875,100.97899627685547 -83.36199951171875,100.97899627685547 C-83.36199951171875,93.28800201416016 -86.75900268554688,86.09100341796875 -92.68099975585938,81.23400115966797 C-126.47899627685547,53.51300048828125 -145.86199951171875,12.508999824523926 -145.86199951171875,-31.26300048828125 C-145.86199951171875,-72.93299865722656 -127.95700073242188,-112.71499633789062 -96.73699951171875,-140.406005859375 C-65.552001953125,-168.0659942626953 -23.746999740600586,-181.05299377441406 17.97599983215332,-176.03900146484375 C48.60100173950195,-172.35699462890625 78.00599670410156,-158.36500549316406 100.7770004272461,-136.63600158691406 C123.5989990234375,-114.85700225830078 138.89999389648438,-86.11399841308594 143.86099243164062,-55.70100021362305 C143.86099243164062,-55.70100021362305 143.86099243164062,-55.70100021362305 143.86099243164062,-55.70100021362305 C152.375,-3.497999906539917 133.406005859375,47.55500030517578 93.12000274658203,80.86699676513672 C86.91400146484375,85.99800109863281 83.35600280761719,93.33999633789062 83.35600280761719,101.01100158691406 C83.35600280761719,101.01100158691406 83.35600280761719,140.61199951171875 83.35600280761719,140.61199951171875 C83.35600280761719,160.72900390625 66.98899841308594,177.0959930419922 46.87200164794922,177.0959930419922z M-0.1589999943971634,-145.83200073242188 C-28.22100067138672,-145.83200073242188 -54.71900177001953,-135.83700561523438 -75.96800231933594,-116.98999786376953 C-100.49500274658203,-95.23500061035156 -114.56099700927734,-63.987998962402344 -114.56099700927734,-31.26300048828125 C-114.56099700927734,3.0980000495910645 -99.35199737548828,35.28099822998047 -72.83100128173828,57.03300094604492 C-59.63199996948242,67.85900115966797 -52.06100082397461,83.87699890136719 -52.06100082397461,100.97899627685547 C-52.06100082397461,100.97899627685547 -52.06100082397461,140.61199951171875 -52.06100082397461,140.61199951171875 C-52.06100082397461,143.47000122070312 -49.73699951171875,145.79600524902344 -46.87900161743164,145.79600524902344 C-46.87900161743164,145.79600524902344 46.87200164794922,145.79600524902344 46.87200164794922,145.79600524902344 C49.72999954223633,145.79600524902344 52.05500030517578,143.47000122070312 52.05500030517578,140.61199951171875 C52.05500030517578,140.61199951171875 52.05500030517578,101.01100158691406 52.05500030517578,101.01100158691406 C52.05500030517578,83.97599792480469 59.75299835205078,67.84300231933594 73.17500305175781,56.744998931884766 C104.79499816894531,30.599000930786133 119.66999816894531,-9.557000160217285 112.96800231933594,-50.6619987487793 C112.96800231933594,-50.6619987487793 112.96800231933594,-50.6619987487793 112.96800231933594,-50.6619987487793 C105.02200317382812,-99.38200378417969 63.5,-139.04100036621094 14.23900032043457,-144.96299743652344 C9.406999588012695,-145.54400634765625 4.60099983215332,-145.83200073242188 -0.1589999943971634,-145.83200073242188z"></path></g><g opacity="1" transform="matrix(1,0,0,1,250.0030059814453,442.7120056152344)"><path fill="rgb(255,255,255)" fill-opacity="1" d=" M57.29199981689453,15.649999618530273 C57.29199981689453,15.649999618530273 -57.29199981689453,15.649999618530273 -57.29199981689453,15.649999618530273 C-65.93599700927734,15.649999618530273 -72.94200134277344,8.642999649047852 -72.94200134277344,0 C-72.94200134277344,-8.642999649047852 -65.93599700927734,-15.649999618530273 -57.29199981689453,-15.649999618530273 C-57.29199981689453,-15.649999618530273 57.29199981689453,-15.649999618530273 57.29199981689453,-15.649999618530273 C65.93599700927734,-15.649999618530273 72.94200134277344,-8.642999649047852 72.94200134277344,0 C72.94200134277344,8.642999649047852 65.93599700927734,15.649999618530273 57.29199981689453,15.649999618530273z"></path></g></g><g class="primary design" style="display: none;" transform="matrix(1,0,0,1,250,250)" opacity="1"><g opacity="1" transform="matrix(1,0,0,1,0,-136)"><path stroke-linecap="butt" stroke-linejoin="miter" fill-opacity="0" stroke-miterlimit="4" stroke="rgb(255,255,255)" stroke-opacity="1" stroke-width="31" d=" M0,-83 C43.12900161743164,-83 78.5739974975586,-50.10499954223633 82.61599731445312,-8.03600025177002 C82.87000274658203,-5.392000198364258 83,-2.7109999656677246 83,0 C83,45.84000015258789 45.84000015258789,83 0,83 C-45.84000015258789,83 -83,45.84000015258789 -83,0 C-83,-2.7279999256134033 -82.86799621582031,-5.425000190734863 -82.61100006103516,-8.085000038146973 C-78.5459976196289,-50.13100051879883 -43.11199951171875,-83 0,-83z"></path></g></g></g><g class="com" style="display: none;"><g><path></path></g><g><path></path></g><g><path></path></g><g><path></path></g><g><path></path></g><g><path></path></g><g><path></path></g><g><path></path></g><g><path></path></g><g><path></path></g><g><path></path></g><g><path></path></g></g></g></svg>
